G04 #@! TF.FileFunction,Copper,L2,Bot,Signal*
%FSLAX46Y46*%
G04 Gerber Fmt 4.6, Leading zero omitted, Abs format (unit mm)*
<<<<<<< HEAD
G04 Created by KiCad (PCBNEW 4.0.6) date Wednesday, 20 September 2017 'PMt' 02:31:42 PM*
=======
G04 Created by KiCad (PCBNEW 4.0.6) date Thursday, 24 August 2017 'PMt' 01:37:40 PM*
>>>>>>> parent of 32982b0... no message
%MOMM*%
%LPD*%
G01*
G04 APERTURE LIST*
%ADD10C,0.150000*%
%ADD11O,1.700000X2.400000*%
%ADD12R,2.000000X1.900000*%
%ADD13C,1.900000*%
%ADD14C,1.600000*%
%ADD15C,0.600000*%
<<<<<<< HEAD
%ADD16C,1.000000*%
%ADD17C,0.500000*%
%ADD18C,0.254000*%
G04 APERTURE END LIST*
D10*
D11*
X142700000Y-99950000D03*
X142700000Y-92950000D03*
X147200000Y-91450000D03*
X142700000Y-96950000D03*
D12*
X145000000Y-85200000D03*
D13*
X145000000Y-87740000D03*
D14*
X143500000Y-81200000D03*
X146500000Y-81200000D03*
D15*
X147000000Y-99500000D03*
D16*
X147200000Y-91450000D02*
X147200000Y-99300000D01*
X147200000Y-99300000D02*
X147000000Y-99500000D01*
D17*
X142700000Y-99950000D02*
X141950000Y-99950000D01*
X141950000Y-99950000D02*
X141000000Y-99000000D01*
X141000000Y-99000000D02*
X141000000Y-90300000D01*
X141000000Y-90300000D02*
X143560000Y-87740000D01*
X143560000Y-87740000D02*
X145000000Y-87740000D01*
D18*
G36*
X149290000Y-102290000D02*
X146071487Y-102290000D01*
X146234785Y-101896734D01*
X146235214Y-101405421D01*
X146047592Y-100951343D01*
X145700485Y-100603629D01*
X145246734Y-100415215D01*
X144755421Y-100414786D01*
X144301343Y-100602408D01*
X144090041Y-100813341D01*
X144185000Y-100335950D01*
X144185000Y-99564050D01*
X144071961Y-98995765D01*
X143750054Y-98513996D01*
X143654277Y-98450000D01*
X143750054Y-98386004D01*
X144071961Y-97904235D01*
X144185000Y-97335950D01*
X144185000Y-96564050D01*
X144071961Y-95995765D01*
X143750054Y-95513996D01*
X143268285Y-95192089D01*
X142700000Y-95079050D01*
X142131715Y-95192089D01*
X141885000Y-95356938D01*
X141885000Y-94543062D01*
X142131715Y-94707911D01*
X142700000Y-94820950D01*
X143268285Y-94707911D01*
X143750054Y-94386004D01*
X143809039Y-94297727D01*
X143765215Y-94403266D01*
X143764786Y-94894579D01*
X143952408Y-95348657D01*
X144299515Y-95696371D01*
X144753266Y-95884785D01*
X145244579Y-95885214D01*
X145698657Y-95697592D01*
X146046371Y-95350485D01*
X146234785Y-94896734D01*
X146235214Y-94405421D01*
X146047592Y-93951343D01*
X145700485Y-93603629D01*
X145246734Y-93415215D01*
X144755421Y-93414786D01*
X144301343Y-93602408D01*
X144090041Y-93813341D01*
X144185000Y-93335950D01*
X144185000Y-92564050D01*
X144071961Y-91995765D01*
X143792152Y-91577000D01*
X145715000Y-91577000D01*
X145715000Y-91927000D01*
X145876640Y-92485618D01*
X146239749Y-92939856D01*
X146749048Y-93220562D01*
X146843110Y-93241476D01*
X147073000Y-93120155D01*
X147073000Y-91577000D01*
X147327000Y-91577000D01*
X147327000Y-93120155D01*
X147556890Y-93241476D01*
X147650952Y-93220562D01*
X148160251Y-92939856D01*
X148523360Y-92485618D01*
X148685000Y-91927000D01*
X148685000Y-91577000D01*
X147327000Y-91577000D01*
X147073000Y-91577000D01*
X145715000Y-91577000D01*
X143792152Y-91577000D01*
X143750054Y-91513996D01*
X143268285Y-91192089D01*
X142700000Y-91079050D01*
X142131715Y-91192089D01*
X141885000Y-91356938D01*
X141885000Y-90973000D01*
X145715000Y-90973000D01*
X145715000Y-91323000D01*
X147073000Y-91323000D01*
X147073000Y-89779845D01*
X147327000Y-89779845D01*
X147327000Y-91323000D01*
X148685000Y-91323000D01*
X148685000Y-90973000D01*
X148523360Y-90414382D01*
X148160251Y-89960144D01*
X147650952Y-89679438D01*
X147556890Y-89658524D01*
X147327000Y-89779845D01*
X147073000Y-89779845D01*
X146843110Y-89658524D01*
X146749048Y-89679438D01*
X146239749Y-89960144D01*
X145876640Y-90414382D01*
X145715000Y-90973000D01*
X141885000Y-90973000D01*
X141885000Y-90666580D01*
X143785107Y-88766472D01*
X144100997Y-89082914D01*
X144683341Y-89324724D01*
X145313893Y-89325275D01*
X145896657Y-89084481D01*
X146342914Y-88639003D01*
X146584724Y-88056659D01*
X146585275Y-87426107D01*
X146344481Y-86843343D01*
X146239455Y-86738133D01*
X146359698Y-86688327D01*
X146538327Y-86509699D01*
X146635000Y-86276310D01*
X146635000Y-85485750D01*
X146476250Y-85327000D01*
X145127000Y-85327000D01*
X145127000Y-85347000D01*
X144873000Y-85347000D01*
X144873000Y-85327000D01*
X143523750Y-85327000D01*
X143365000Y-85485750D01*
X143365000Y-86276310D01*
X143461673Y-86509699D01*
X143640302Y-86688327D01*
X143760251Y-86738012D01*
X143657086Y-86840997D01*
X143651271Y-86855000D01*
X143560005Y-86855000D01*
X143560000Y-86854999D01*
X143277516Y-86911190D01*
X143221325Y-86922367D01*
X142934210Y-87114210D01*
X142934208Y-87114213D01*
X140710000Y-89338420D01*
X140710000Y-84123690D01*
X143365000Y-84123690D01*
X143365000Y-84914250D01*
X143523750Y-85073000D01*
X144873000Y-85073000D01*
X144873000Y-83773750D01*
X145127000Y-83773750D01*
X145127000Y-85073000D01*
X146476250Y-85073000D01*
X146635000Y-84914250D01*
X146635000Y-84123690D01*
X146538327Y-83890301D01*
X146359698Y-83711673D01*
X146126309Y-83615000D01*
X145285750Y-83615000D01*
X145127000Y-83773750D01*
X144873000Y-83773750D01*
X144714250Y-83615000D01*
X143873691Y-83615000D01*
X143640302Y-83711673D01*
X143461673Y-83890301D01*
X143365000Y-84123690D01*
X140710000Y-84123690D01*
X140710000Y-81484187D01*
X142064752Y-81484187D01*
X142282757Y-82011800D01*
X142686077Y-82415824D01*
X143213309Y-82634750D01*
X143784187Y-82635248D01*
X144311800Y-82417243D01*
X144715824Y-82013923D01*
X144934750Y-81486691D01*
X144934752Y-81484187D01*
X145064752Y-81484187D01*
X145282757Y-82011800D01*
X145686077Y-82415824D01*
X146213309Y-82634750D01*
X146784187Y-82635248D01*
X147311800Y-82417243D01*
X147715824Y-82013923D01*
X147934750Y-81486691D01*
X147935248Y-80915813D01*
X147717243Y-80388200D01*
X147313923Y-79984176D01*
X146786691Y-79765250D01*
X146215813Y-79764752D01*
X145688200Y-79982757D01*
X145284176Y-80386077D01*
X145065250Y-80913309D01*
X145064752Y-81484187D01*
X144934752Y-81484187D01*
X144935248Y-80915813D01*
X144717243Y-80388200D01*
X144313923Y-79984176D01*
X143786691Y-79765250D01*
X143215813Y-79764752D01*
X142688200Y-79982757D01*
X142284176Y-80386077D01*
X142065250Y-80913309D01*
X142064752Y-81484187D01*
X140710000Y-81484187D01*
X140710000Y-78710000D01*
X149290000Y-78710000D01*
X149290000Y-102290000D01*
X149290000Y-102290000D01*
G37*
X149290000Y-102290000D02*
X146071487Y-102290000D01*
X146234785Y-101896734D01*
X146235214Y-101405421D01*
X146047592Y-100951343D01*
X145700485Y-100603629D01*
X145246734Y-100415215D01*
X144755421Y-100414786D01*
X144301343Y-100602408D01*
X144090041Y-100813341D01*
X144185000Y-100335950D01*
X144185000Y-99564050D01*
X144071961Y-98995765D01*
X143750054Y-98513996D01*
X143654277Y-98450000D01*
X143750054Y-98386004D01*
X144071961Y-97904235D01*
X144185000Y-97335950D01*
X144185000Y-96564050D01*
X144071961Y-95995765D01*
X143750054Y-95513996D01*
X143268285Y-95192089D01*
X142700000Y-95079050D01*
X142131715Y-95192089D01*
X141885000Y-95356938D01*
X141885000Y-94543062D01*
X142131715Y-94707911D01*
X142700000Y-94820950D01*
X143268285Y-94707911D01*
X143750054Y-94386004D01*
X143809039Y-94297727D01*
X143765215Y-94403266D01*
X143764786Y-94894579D01*
X143952408Y-95348657D01*
X144299515Y-95696371D01*
X144753266Y-95884785D01*
X145244579Y-95885214D01*
X145698657Y-95697592D01*
X146046371Y-95350485D01*
X146234785Y-94896734D01*
X146235214Y-94405421D01*
X146047592Y-93951343D01*
X145700485Y-93603629D01*
X145246734Y-93415215D01*
X144755421Y-93414786D01*
X144301343Y-93602408D01*
X144090041Y-93813341D01*
X144185000Y-93335950D01*
X144185000Y-92564050D01*
X144071961Y-91995765D01*
X143792152Y-91577000D01*
X145715000Y-91577000D01*
X145715000Y-91927000D01*
X145876640Y-92485618D01*
X146239749Y-92939856D01*
X146749048Y-93220562D01*
X146843110Y-93241476D01*
X147073000Y-93120155D01*
X147073000Y-91577000D01*
X147327000Y-91577000D01*
X147327000Y-93120155D01*
X147556890Y-93241476D01*
X147650952Y-93220562D01*
X148160251Y-92939856D01*
X148523360Y-92485618D01*
X148685000Y-91927000D01*
X148685000Y-91577000D01*
X147327000Y-91577000D01*
X147073000Y-91577000D01*
X145715000Y-91577000D01*
X143792152Y-91577000D01*
X143750054Y-91513996D01*
X143268285Y-91192089D01*
X142700000Y-91079050D01*
X142131715Y-91192089D01*
X141885000Y-91356938D01*
X141885000Y-90973000D01*
X145715000Y-90973000D01*
X145715000Y-91323000D01*
X147073000Y-91323000D01*
X147073000Y-89779845D01*
X147327000Y-89779845D01*
X147327000Y-91323000D01*
X148685000Y-91323000D01*
X148685000Y-90973000D01*
X148523360Y-90414382D01*
X148160251Y-89960144D01*
X147650952Y-89679438D01*
X147556890Y-89658524D01*
X147327000Y-89779845D01*
X147073000Y-89779845D01*
X146843110Y-89658524D01*
X146749048Y-89679438D01*
X146239749Y-89960144D01*
X145876640Y-90414382D01*
X145715000Y-90973000D01*
X141885000Y-90973000D01*
X141885000Y-90666580D01*
X143785107Y-88766472D01*
X144100997Y-89082914D01*
X144683341Y-89324724D01*
X145313893Y-89325275D01*
X145896657Y-89084481D01*
X146342914Y-88639003D01*
X146584724Y-88056659D01*
X146585275Y-87426107D01*
X146344481Y-86843343D01*
X146239455Y-86738133D01*
X146359698Y-86688327D01*
X146538327Y-86509699D01*
X146635000Y-86276310D01*
X146635000Y-85485750D01*
X146476250Y-85327000D01*
X145127000Y-85327000D01*
X145127000Y-85347000D01*
X144873000Y-85347000D01*
X144873000Y-85327000D01*
X143523750Y-85327000D01*
X143365000Y-85485750D01*
X143365000Y-86276310D01*
X143461673Y-86509699D01*
X143640302Y-86688327D01*
X143760251Y-86738012D01*
X143657086Y-86840997D01*
X143651271Y-86855000D01*
X143560005Y-86855000D01*
X143560000Y-86854999D01*
X143277516Y-86911190D01*
X143221325Y-86922367D01*
X142934210Y-87114210D01*
X142934208Y-87114213D01*
X140710000Y-89338420D01*
X140710000Y-84123690D01*
X143365000Y-84123690D01*
X143365000Y-84914250D01*
X143523750Y-85073000D01*
X144873000Y-85073000D01*
X144873000Y-83773750D01*
X145127000Y-83773750D01*
X145127000Y-85073000D01*
X146476250Y-85073000D01*
X146635000Y-84914250D01*
X146635000Y-84123690D01*
X146538327Y-83890301D01*
X146359698Y-83711673D01*
X146126309Y-83615000D01*
X145285750Y-83615000D01*
X145127000Y-83773750D01*
X144873000Y-83773750D01*
X144714250Y-83615000D01*
X143873691Y-83615000D01*
X143640302Y-83711673D01*
X143461673Y-83890301D01*
X143365000Y-84123690D01*
X140710000Y-84123690D01*
X140710000Y-81484187D01*
X142064752Y-81484187D01*
X142282757Y-82011800D01*
X142686077Y-82415824D01*
X143213309Y-82634750D01*
X143784187Y-82635248D01*
X144311800Y-82417243D01*
X144715824Y-82013923D01*
X144934750Y-81486691D01*
X144934752Y-81484187D01*
X145064752Y-81484187D01*
X145282757Y-82011800D01*
X145686077Y-82415824D01*
X146213309Y-82634750D01*
X146784187Y-82635248D01*
X147311800Y-82417243D01*
X147715824Y-82013923D01*
X147934750Y-81486691D01*
X147935248Y-80915813D01*
X147717243Y-80388200D01*
X147313923Y-79984176D01*
X146786691Y-79765250D01*
X146215813Y-79764752D01*
X145688200Y-79982757D01*
X145284176Y-80386077D01*
X145065250Y-80913309D01*
X145064752Y-81484187D01*
X144934752Y-81484187D01*
X144935248Y-80915813D01*
X144717243Y-80388200D01*
X144313923Y-79984176D01*
X143786691Y-79765250D01*
X143215813Y-79764752D01*
X142688200Y-79982757D01*
X142284176Y-80386077D01*
X142065250Y-80913309D01*
X142064752Y-81484187D01*
X140710000Y-81484187D01*
X140710000Y-78710000D01*
X149290000Y-78710000D01*
X149290000Y-102290000D01*
=======
%ADD16C,0.500000*%
%ADD17C,0.254000*%
G04 APERTURE END LIST*
D10*
D11*
X143100000Y-99950000D03*
X143100000Y-92950000D03*
X147600000Y-91450000D03*
X143100000Y-96950000D03*
D12*
X145400000Y-85200000D03*
D13*
X145400000Y-87740000D03*
D14*
X143900000Y-81200000D03*
X146900000Y-81200000D03*
D15*
X148750000Y-100000000D03*
X148750000Y-101500000D03*
X147250000Y-101500000D03*
X145250000Y-98000000D03*
X146500000Y-95500000D03*
D16*
X147250000Y-101500000D02*
X148750000Y-101500000D01*
X145250000Y-96750000D02*
X145250000Y-98000000D01*
X146500000Y-95500000D02*
X145250000Y-96750000D01*
X143100000Y-99950000D02*
X145300000Y-99950000D01*
X147740000Y-87740000D02*
X145400000Y-87740000D01*
X149250000Y-89250000D02*
X147740000Y-87740000D01*
X149250000Y-96000000D02*
X149250000Y-89250000D01*
X145300000Y-99950000D02*
X149250000Y-96000000D01*
D17*
G36*
X149540000Y-88288421D02*
X148365790Y-87114210D01*
X148078675Y-86922367D01*
X148022484Y-86911190D01*
X147740000Y-86854999D01*
X147739995Y-86855000D01*
X146749298Y-86855000D01*
X146744481Y-86843343D01*
X146639455Y-86738133D01*
X146759698Y-86688327D01*
X146938327Y-86509699D01*
X147035000Y-86276310D01*
X147035000Y-85485750D01*
X146876250Y-85327000D01*
X145527000Y-85327000D01*
X145527000Y-85347000D01*
X145273000Y-85347000D01*
X145273000Y-85327000D01*
X143923750Y-85327000D01*
X143765000Y-85485750D01*
X143765000Y-86276310D01*
X143861673Y-86509699D01*
X144040302Y-86688327D01*
X144160251Y-86738012D01*
X144057086Y-86840997D01*
X143815276Y-87423341D01*
X143814725Y-88053893D01*
X144055519Y-88636657D01*
X144500997Y-89082914D01*
X145083341Y-89324724D01*
X145713893Y-89325275D01*
X146296657Y-89084481D01*
X146742914Y-88639003D01*
X146748729Y-88625000D01*
X147373420Y-88625000D01*
X148365000Y-89616579D01*
X148365000Y-89852529D01*
X148050952Y-89679438D01*
X147956890Y-89658524D01*
X147727000Y-89779845D01*
X147727000Y-91323000D01*
X147747000Y-91323000D01*
X147747000Y-91577000D01*
X147727000Y-91577000D01*
X147727000Y-93120155D01*
X147956890Y-93241476D01*
X148050952Y-93220562D01*
X148365000Y-93047471D01*
X148365000Y-95633421D01*
X144933420Y-99065000D01*
X144485733Y-99065000D01*
X144471961Y-98995765D01*
X144150054Y-98513996D01*
X144054277Y-98450000D01*
X144150054Y-98386004D01*
X144471961Y-97904235D01*
X144585000Y-97335950D01*
X144585000Y-96564050D01*
X144471961Y-95995765D01*
X144150054Y-95513996D01*
X143668285Y-95192089D01*
X143100000Y-95079050D01*
X142531715Y-95192089D01*
X142049946Y-95513996D01*
X141728039Y-95995765D01*
X141615000Y-96564050D01*
X141615000Y-97335950D01*
X141728039Y-97904235D01*
X142049946Y-98386004D01*
X142145723Y-98450000D01*
X142049946Y-98513996D01*
X141728039Y-98995765D01*
X141615000Y-99564050D01*
X141615000Y-100335950D01*
X141728039Y-100904235D01*
X142049946Y-101386004D01*
X142531715Y-101707911D01*
X143100000Y-101820950D01*
X143668285Y-101707911D01*
X144150054Y-101386004D01*
X144209039Y-101297727D01*
X144165215Y-101403266D01*
X144164786Y-101894579D01*
X144328171Y-102290000D01*
X141460000Y-102290000D01*
X141460000Y-92564050D01*
X141615000Y-92564050D01*
X141615000Y-93335950D01*
X141728039Y-93904235D01*
X142049946Y-94386004D01*
X142531715Y-94707911D01*
X143100000Y-94820950D01*
X143668285Y-94707911D01*
X144150054Y-94386004D01*
X144209039Y-94297727D01*
X144165215Y-94403266D01*
X144164786Y-94894579D01*
X144352408Y-95348657D01*
X144699515Y-95696371D01*
X145153266Y-95884785D01*
X145644579Y-95885214D01*
X146098657Y-95697592D01*
X146446371Y-95350485D01*
X146634785Y-94896734D01*
X146635214Y-94405421D01*
X146447592Y-93951343D01*
X146100485Y-93603629D01*
X145646734Y-93415215D01*
X145155421Y-93414786D01*
X144701343Y-93602408D01*
X144490041Y-93813341D01*
X144585000Y-93335950D01*
X144585000Y-92564050D01*
X144471961Y-91995765D01*
X144192152Y-91577000D01*
X146115000Y-91577000D01*
X146115000Y-91927000D01*
X146276640Y-92485618D01*
X146639749Y-92939856D01*
X147149048Y-93220562D01*
X147243110Y-93241476D01*
X147473000Y-93120155D01*
X147473000Y-91577000D01*
X146115000Y-91577000D01*
X144192152Y-91577000D01*
X144150054Y-91513996D01*
X143668285Y-91192089D01*
X143100000Y-91079050D01*
X142531715Y-91192089D01*
X142049946Y-91513996D01*
X141728039Y-91995765D01*
X141615000Y-92564050D01*
X141460000Y-92564050D01*
X141460000Y-90973000D01*
X146115000Y-90973000D01*
X146115000Y-91323000D01*
X147473000Y-91323000D01*
X147473000Y-89779845D01*
X147243110Y-89658524D01*
X147149048Y-89679438D01*
X146639749Y-89960144D01*
X146276640Y-90414382D01*
X146115000Y-90973000D01*
X141460000Y-90973000D01*
X141460000Y-84123690D01*
X143765000Y-84123690D01*
X143765000Y-84914250D01*
X143923750Y-85073000D01*
X145273000Y-85073000D01*
X145273000Y-83773750D01*
X145527000Y-83773750D01*
X145527000Y-85073000D01*
X146876250Y-85073000D01*
X147035000Y-84914250D01*
X147035000Y-84123690D01*
X146938327Y-83890301D01*
X146759698Y-83711673D01*
X146526309Y-83615000D01*
X145685750Y-83615000D01*
X145527000Y-83773750D01*
X145273000Y-83773750D01*
X145114250Y-83615000D01*
X144273691Y-83615000D01*
X144040302Y-83711673D01*
X143861673Y-83890301D01*
X143765000Y-84123690D01*
X141460000Y-84123690D01*
X141460000Y-81484187D01*
X142464752Y-81484187D01*
X142682757Y-82011800D01*
X143086077Y-82415824D01*
X143613309Y-82634750D01*
X144184187Y-82635248D01*
X144711800Y-82417243D01*
X145115824Y-82013923D01*
X145334750Y-81486691D01*
X145334752Y-81484187D01*
X145464752Y-81484187D01*
X145682757Y-82011800D01*
X146086077Y-82415824D01*
X146613309Y-82634750D01*
X147184187Y-82635248D01*
X147711800Y-82417243D01*
X148115824Y-82013923D01*
X148334750Y-81486691D01*
X148335248Y-80915813D01*
X148117243Y-80388200D01*
X147713923Y-79984176D01*
X147186691Y-79765250D01*
X146615813Y-79764752D01*
X146088200Y-79982757D01*
X145684176Y-80386077D01*
X145465250Y-80913309D01*
X145464752Y-81484187D01*
X145334752Y-81484187D01*
X145335248Y-80915813D01*
X145117243Y-80388200D01*
X144713923Y-79984176D01*
X144186691Y-79765250D01*
X143615813Y-79764752D01*
X143088200Y-79982757D01*
X142684176Y-80386077D01*
X142465250Y-80913309D01*
X142464752Y-81484187D01*
X141460000Y-81484187D01*
X141460000Y-79460000D01*
X149540000Y-79460000D01*
X149540000Y-88288421D01*
X149540000Y-88288421D01*
G37*
X149540000Y-88288421D02*
X148365790Y-87114210D01*
X148078675Y-86922367D01*
X148022484Y-86911190D01*
X147740000Y-86854999D01*
X147739995Y-86855000D01*
X146749298Y-86855000D01*
X146744481Y-86843343D01*
X146639455Y-86738133D01*
X146759698Y-86688327D01*
X146938327Y-86509699D01*
X147035000Y-86276310D01*
X147035000Y-85485750D01*
X146876250Y-85327000D01*
X145527000Y-85327000D01*
X145527000Y-85347000D01*
X145273000Y-85347000D01*
X145273000Y-85327000D01*
X143923750Y-85327000D01*
X143765000Y-85485750D01*
X143765000Y-86276310D01*
X143861673Y-86509699D01*
X144040302Y-86688327D01*
X144160251Y-86738012D01*
X144057086Y-86840997D01*
X143815276Y-87423341D01*
X143814725Y-88053893D01*
X144055519Y-88636657D01*
X144500997Y-89082914D01*
X145083341Y-89324724D01*
X145713893Y-89325275D01*
X146296657Y-89084481D01*
X146742914Y-88639003D01*
X146748729Y-88625000D01*
X147373420Y-88625000D01*
X148365000Y-89616579D01*
X148365000Y-89852529D01*
X148050952Y-89679438D01*
X147956890Y-89658524D01*
X147727000Y-89779845D01*
X147727000Y-91323000D01*
X147747000Y-91323000D01*
X147747000Y-91577000D01*
X147727000Y-91577000D01*
X147727000Y-93120155D01*
X147956890Y-93241476D01*
X148050952Y-93220562D01*
X148365000Y-93047471D01*
X148365000Y-95633421D01*
X144933420Y-99065000D01*
X144485733Y-99065000D01*
X144471961Y-98995765D01*
X144150054Y-98513996D01*
X144054277Y-98450000D01*
X144150054Y-98386004D01*
X144471961Y-97904235D01*
X144585000Y-97335950D01*
X144585000Y-96564050D01*
X144471961Y-95995765D01*
X144150054Y-95513996D01*
X143668285Y-95192089D01*
X143100000Y-95079050D01*
X142531715Y-95192089D01*
X142049946Y-95513996D01*
X141728039Y-95995765D01*
X141615000Y-96564050D01*
X141615000Y-97335950D01*
X141728039Y-97904235D01*
X142049946Y-98386004D01*
X142145723Y-98450000D01*
X142049946Y-98513996D01*
X141728039Y-98995765D01*
X141615000Y-99564050D01*
X141615000Y-100335950D01*
X141728039Y-100904235D01*
X142049946Y-101386004D01*
X142531715Y-101707911D01*
X143100000Y-101820950D01*
X143668285Y-101707911D01*
X144150054Y-101386004D01*
X144209039Y-101297727D01*
X144165215Y-101403266D01*
X144164786Y-101894579D01*
X144328171Y-102290000D01*
X141460000Y-102290000D01*
X141460000Y-92564050D01*
X141615000Y-92564050D01*
X141615000Y-93335950D01*
X141728039Y-93904235D01*
X142049946Y-94386004D01*
X142531715Y-94707911D01*
X143100000Y-94820950D01*
X143668285Y-94707911D01*
X144150054Y-94386004D01*
X144209039Y-94297727D01*
X144165215Y-94403266D01*
X144164786Y-94894579D01*
X144352408Y-95348657D01*
X144699515Y-95696371D01*
X145153266Y-95884785D01*
X145644579Y-95885214D01*
X146098657Y-95697592D01*
X146446371Y-95350485D01*
X146634785Y-94896734D01*
X146635214Y-94405421D01*
X146447592Y-93951343D01*
X146100485Y-93603629D01*
X145646734Y-93415215D01*
X145155421Y-93414786D01*
X144701343Y-93602408D01*
X144490041Y-93813341D01*
X144585000Y-93335950D01*
X144585000Y-92564050D01*
X144471961Y-91995765D01*
X144192152Y-91577000D01*
X146115000Y-91577000D01*
X146115000Y-91927000D01*
X146276640Y-92485618D01*
X146639749Y-92939856D01*
X147149048Y-93220562D01*
X147243110Y-93241476D01*
X147473000Y-93120155D01*
X147473000Y-91577000D01*
X146115000Y-91577000D01*
X144192152Y-91577000D01*
X144150054Y-91513996D01*
X143668285Y-91192089D01*
X143100000Y-91079050D01*
X142531715Y-91192089D01*
X142049946Y-91513996D01*
X141728039Y-91995765D01*
X141615000Y-92564050D01*
X141460000Y-92564050D01*
X141460000Y-90973000D01*
X146115000Y-90973000D01*
X146115000Y-91323000D01*
X147473000Y-91323000D01*
X147473000Y-89779845D01*
X147243110Y-89658524D01*
X147149048Y-89679438D01*
X146639749Y-89960144D01*
X146276640Y-90414382D01*
X146115000Y-90973000D01*
X141460000Y-90973000D01*
X141460000Y-84123690D01*
X143765000Y-84123690D01*
X143765000Y-84914250D01*
X143923750Y-85073000D01*
X145273000Y-85073000D01*
X145273000Y-83773750D01*
X145527000Y-83773750D01*
X145527000Y-85073000D01*
X146876250Y-85073000D01*
X147035000Y-84914250D01*
X147035000Y-84123690D01*
X146938327Y-83890301D01*
X146759698Y-83711673D01*
X146526309Y-83615000D01*
X145685750Y-83615000D01*
X145527000Y-83773750D01*
X145273000Y-83773750D01*
X145114250Y-83615000D01*
X144273691Y-83615000D01*
X144040302Y-83711673D01*
X143861673Y-83890301D01*
X143765000Y-84123690D01*
X141460000Y-84123690D01*
X141460000Y-81484187D01*
X142464752Y-81484187D01*
X142682757Y-82011800D01*
X143086077Y-82415824D01*
X143613309Y-82634750D01*
X144184187Y-82635248D01*
X144711800Y-82417243D01*
X145115824Y-82013923D01*
X145334750Y-81486691D01*
X145334752Y-81484187D01*
X145464752Y-81484187D01*
X145682757Y-82011800D01*
X146086077Y-82415824D01*
X146613309Y-82634750D01*
X147184187Y-82635248D01*
X147711800Y-82417243D01*
X148115824Y-82013923D01*
X148334750Y-81486691D01*
X148335248Y-80915813D01*
X148117243Y-80388200D01*
X147713923Y-79984176D01*
X147186691Y-79765250D01*
X146615813Y-79764752D01*
X146088200Y-79982757D01*
X145684176Y-80386077D01*
X145465250Y-80913309D01*
X145464752Y-81484187D01*
X145334752Y-81484187D01*
X145335248Y-80915813D01*
X145117243Y-80388200D01*
X144713923Y-79984176D01*
X144186691Y-79765250D01*
X143615813Y-79764752D01*
X143088200Y-79982757D01*
X142684176Y-80386077D01*
X142465250Y-80913309D01*
X142464752Y-81484187D01*
X141460000Y-81484187D01*
X141460000Y-79460000D01*
X149540000Y-79460000D01*
X149540000Y-88288421D01*
G36*
X149540000Y-102290000D02*
X146471487Y-102290000D01*
X146634785Y-101896734D01*
X146635214Y-101405421D01*
X146447592Y-100951343D01*
X146100485Y-100603629D01*
X145957375Y-100544205D01*
X149540000Y-96961579D01*
X149540000Y-102290000D01*
X149540000Y-102290000D01*
G37*
X149540000Y-102290000D02*
X146471487Y-102290000D01*
X146634785Y-101896734D01*
X146635214Y-101405421D01*
X146447592Y-100951343D01*
X146100485Y-100603629D01*
X145957375Y-100544205D01*
X149540000Y-96961579D01*
X149540000Y-102290000D01*
>>>>>>> parent of 32982b0... no message
M02*
