G04 #@! TF.FileFunction,Legend,Top*
%FSLAX46Y46*%
G04 Gerber Fmt 4.6, Leading zero omitted, Abs format (unit mm)*
<<<<<<< HEAD
G04 Created by KiCad (PCBNEW 4.0.6) date Wednesday, 20 September 2017 'PMt' 02:31:42 PM*
=======
G04 Created by KiCad (PCBNEW 4.0.6) date Thursday, 24 August 2017 'PMt' 01:37:40 PM*
>>>>>>> parent of 32982b0... no message
%MOMM*%
%LPD*%
G01*
G04 APERTURE LIST*
%ADD10C,0.150000*%
%ADD11C,0.250000*%
G04 APERTURE END LIST*
D10*
D11*
X141833334Y-80252381D02*
X141500000Y-79776190D01*
X141261905Y-80252381D02*
X141261905Y-79252381D01*
X141642858Y-79252381D01*
X141738096Y-79300000D01*
X141785715Y-79347619D01*
X141833334Y-79442857D01*
X141833334Y-79585714D01*
X141785715Y-79680952D01*
X141738096Y-79728571D01*
X141642858Y-79776190D01*
X141261905Y-79776190D01*
X142785715Y-80252381D02*
X142214286Y-80252381D01*
X142500000Y-80252381D02*
X142500000Y-79252381D01*
X142404762Y-79395238D01*
X142309524Y-79490476D01*
X142214286Y-79538095D01*
X142219048Y-88721429D02*
X142980953Y-88721429D01*
X142600001Y-89102381D02*
X142600001Y-88340476D01*
D10*
<<<<<<< HEAD
X141700000Y-102950000D02*
X141700000Y-90000000D01*
X141700000Y-90000000D02*
X149200000Y-90000000D01*
X149200000Y-102950000D02*
X149200000Y-90000000D01*
X141700000Y-102950000D02*
X149200000Y-102950000D01*
X143475096Y-83985112D02*
G75*
G03X146500000Y-83970000I1524904J-2484888D01*
G01*
X143500000Y-83970000D02*
X146500000Y-83970000D01*
X147517936Y-86470000D02*
G75*
G03X147517936Y-86470000I-2517936J0D01*
=======
X142100000Y-102950000D02*
X142100000Y-90000000D01*
X142100000Y-90000000D02*
X149600000Y-90000000D01*
X149600000Y-102950000D02*
X149600000Y-90000000D01*
X142100000Y-102950000D02*
X149600000Y-102950000D01*
X143875096Y-83985112D02*
G75*
G03X146900000Y-83970000I1524904J-2484888D01*
G01*
X143900000Y-83970000D02*
X146900000Y-83970000D01*
X147917936Y-86470000D02*
G75*
G03X147917936Y-86470000I-2517936J0D01*
>>>>>>> parent of 32982b0... no message
G01*
M02*
