M48
INCH,TZ
T1C0.016
T2C0.031
T3C0.039
%
G90
G05
T1
<<<<<<< HEAD
X57874Y-39173
T2
X56496Y-31969
X57677Y-31969
T3
X57087Y-33543
X57087Y-34543
T2
X56181Y-36476G85X56181Y-36713
G05
X56181Y-38051G85X56181Y-38287
G05
X56181Y-39232G85X56181Y-39469
G05
X57953Y-35886G85X57953Y-36122
=======
X57185Y-38583
X57677Y-37598
X57972Y-39961
X58563Y-39370
X58563Y-39961
T2
X56654Y-31969
X57835Y-31969
T3
X57244Y-33543
X57244Y-34543
T2
X56339Y-36476G85X56339Y-36713
G05
X56339Y-38051G85X56339Y-38287
G05
X56339Y-39232G85X56339Y-39469
G05
X58110Y-35886G85X58110Y-36122
>>>>>>> parent of 32982b0... no message
G05
T0
M30
