M48
INCH,TZ
T1C0.016
T2C0.024
T3C0.028
T4C0.031
T5C0.032
T6C0.039
T7C0.039
%
G90
G05
T1
X48346Y-30236
X48346Y-31102
X48346Y-31969
X48346Y-32913
X49134Y-30236
X49134Y-31102
X49134Y-31969
X49213Y-32913
X49409Y-29035
X49764Y-32362
X51102Y-32362
X51811Y-22441
X51811Y-22835
X51811Y-23228
X51811Y-23622
X51811Y-32362
X52205Y-22441
X52205Y-22835
X52205Y-23228
X52205Y-23622
X52598Y-22441
X52598Y-22835
X52598Y-23228
X52598Y-23622
X52598Y-30315
X52992Y-22441
X52992Y-22835
X52992Y-23228
X52992Y-23622
X53386Y-22441
X53386Y-22835
X53386Y-23228
X53386Y-23622
X53780Y-22441
X53780Y-22835
X53780Y-23228
X54370Y-24134
X54803Y-50984
X55551Y-46732
X56142Y-50433
X56339Y-24134
X56535Y-50039
X56575Y-51299
X56929Y-22441
X56929Y-22835
X56929Y-30472
X57323Y-22441
X57323Y-22835
X57323Y-23228
X57362Y-33031
X57362Y-50039
X57598Y-43307
X57598Y-44173
X57598Y-45197
X57717Y-22441
X57717Y-22835
X57717Y-23228
X57756Y-45827
X57756Y-49409
X58110Y-22441
X58110Y-22835
X58110Y-23228
X58189Y-48898
X58504Y-22441
X58504Y-22835
X58504Y-23228
X58898Y-22441
X58898Y-22835
X58898Y-23228
X59291Y-22441
X59291Y-22835
X59291Y-23228
X59646Y-51417
X59685Y-22441
X59685Y-22835
X59685Y-23228
X60079Y-22441
X60079Y-22835
X60079Y-23228
X60472Y-22441
X60472Y-22835
X60472Y-23228
X60472Y-47244
X60709Y-39252
X60787Y-33268
X60866Y-22441
X60866Y-22835
X60866Y-23228
X61142Y-52087
X61260Y-22441
X61260Y-22835
X61260Y-23228
X61654Y-22441
X61654Y-22835
X61654Y-52087
X62165Y-52087
X62520Y-47165
X62677Y-39567
X63150Y-52047
X63937Y-51654
X64370Y-51654
X64449Y-44252
X65315Y-51654
X65551Y-54488
X65551Y-56220
X65630Y-52913
X65630Y-53543
X66024Y-51654
X66181Y-55079
X66339Y-44055
X66772Y-50906
X66929Y-53583
X67047Y-44528
X67677Y-46811
X68386Y-44764
X68819Y-45669
T2
X48988Y-34461
X49488Y-33961
X49488Y-34961
X50512Y-43307
X50512Y-44094
X52598Y-31654
X53386Y-31654
T3
X49291Y-46063
X49291Y-46850
T4
X50945Y-37244
X51457Y-34528
X52441Y-34528
X52913Y-24409
X52913Y-26378
X52913Y-37244
X53622Y-39252
X53622Y-41220
X55315Y-31063
X55315Y-33031
X55354Y-24173
X55512Y-39252
X55512Y-41220
X58732Y-33260
X58732Y-34260
X58732Y-35260
X58732Y-36260
X58732Y-37260
X58732Y-38260
X58732Y-39260
X58732Y-40260
X58732Y-41260
X58732Y-42260
X58732Y-43260
X58732Y-44260
X58732Y-45260
X58732Y-46260
X61732Y-33260
X61732Y-34260
X61732Y-35260
X61732Y-36260
X61732Y-37260
X61732Y-38260
X61732Y-39260
X61732Y-40260
X61732Y-41260
X61732Y-42260
X61732Y-43260
X61732Y-44260
X61732Y-45260
X61732Y-46260
X61890Y-48394
X61890Y-49394
X61890Y-50394
X62953Y-22913
X62953Y-24882
X63622Y-40945
X63622Y-42717
X63819Y-36811
X63819Y-38780
X64094Y-48394
X64094Y-49394
X64094Y-50394
X64843Y-22913
X64843Y-24882
X64921Y-52283
X64921Y-53268
X65591Y-40945
X65591Y-42717
X65748Y-36319
X65748Y-37303
X65748Y-38287
X65748Y-39272
X65984Y-48819
X65984Y-50787
T5
X48606Y-51142
X49606Y-51142
X50606Y-51142
T6
X53583Y-48150
X55583Y-48150
X60157Y-47913
X60157Y-48913
X60157Y-49913
X60157Y-50913
X60157Y-51913
X60157Y-52913
X60157Y-53913
X63591Y-44685
X65591Y-44685
X68307Y-40630
X68307Y-42992
X68307Y-51142
X68307Y-53504
X70079Y-40630
X70079Y-42992
X70079Y-44331
X70079Y-45331
X70079Y-46331
X70079Y-47331
X70079Y-48331
X70079Y-49331
X70079Y-51142
X70079Y-53504
T7
X52638Y-43299
X52638Y-46299
X53567Y-49843
X53819Y-43307
X53819Y-46307
X54331Y-34646
X54331Y-37646
X55000Y-43299
X55000Y-46299
X55567Y-49847
X55709Y-34638
X55709Y-37638
X56181Y-43307
X56181Y-46307
X57087Y-34646
X57087Y-37646
X57480Y-47835
X57480Y-50835
X63535Y-34606
X63543Y-33228
X63622Y-46260
X64921Y-54291
X64921Y-57291
X66181Y-54291
X66181Y-57291
X66535Y-34606
X66543Y-33228
X66622Y-46260
X66969Y-40354
X66969Y-43354
T4
X52106Y-53386G85X52106Y-53622
G05
X52106Y-54961G85X52106Y-55197
G05
X52106Y-56142G85X52106Y-56378
G05
X53878Y-52795G85X53878Y-53031
G05
X61594Y-53386G85X61594Y-53622
G05
X61594Y-54961G85X61594Y-55197
G05
X61594Y-56142G85X61594Y-56378
G05
X63366Y-52795G85X63366Y-53031
G05
T7
X55945Y-52283G85X56732Y-52283
G05
X55945Y-54645G85X56732Y-54645
G05
X58189Y-53858G85X58189Y-53071
G05
T0
M30
