G04 #@! TF.FileFunction,Legend,Top*
%FSLAX46Y46*%
G04 Gerber Fmt 4.6, Leading zero omitted, Abs format (unit mm)*
G04 Created by KiCad (PCBNEW 4.0.6) date Thursday, 05 October 2017 'PMt' 05:15:57 PM*
%MOMM*%
%LPD*%
G01*
G04 APERTURE LIST*
%ADD10C,0.100000*%
%ADD11C,0.200000*%
%ADD12C,0.250000*%
%ADD13C,0.400000*%
%ADD14C,0.300000*%
%ADD15C,0.150000*%
%ADD16C,0.120000*%
%ADD17C,0.160000*%
G04 APERTURE END LIST*
D10*
D11*
X151085714Y-136957143D02*
X151123810Y-136995238D01*
X151161905Y-137109524D01*
X151161905Y-137185714D01*
X151123810Y-137300000D01*
X151047619Y-137376191D01*
X150971429Y-137414286D01*
X150819048Y-137452381D01*
X150704762Y-137452381D01*
X150552381Y-137414286D01*
X150476190Y-137376191D01*
X150400000Y-137300000D01*
X150361905Y-137185714D01*
X150361905Y-137109524D01*
X150400000Y-136995238D01*
X150438095Y-136957143D01*
X150361905Y-136728572D02*
X150361905Y-136271429D01*
X151161905Y-136500000D02*
X150361905Y-136500000D01*
X151085714Y-135095238D02*
X151123810Y-135133333D01*
X151161905Y-135247619D01*
X151161905Y-135323809D01*
X151123810Y-135438095D01*
X151047619Y-135514286D01*
X150971429Y-135552381D01*
X150819048Y-135590476D01*
X150704762Y-135590476D01*
X150552381Y-135552381D01*
X150476190Y-135514286D01*
X150400000Y-135438095D01*
X150361905Y-135323809D01*
X150361905Y-135247619D01*
X150400000Y-135133333D01*
X150438095Y-135095238D01*
X150361905Y-134600000D02*
X150361905Y-134447619D01*
X150400000Y-134371428D01*
X150476190Y-134295238D01*
X150628571Y-134257143D01*
X150895238Y-134257143D01*
X151047619Y-134295238D01*
X151123810Y-134371428D01*
X151161905Y-134447619D01*
X151161905Y-134600000D01*
X151123810Y-134676190D01*
X151047619Y-134752381D01*
X150895238Y-134790476D01*
X150628571Y-134790476D01*
X150476190Y-134752381D01*
X150400000Y-134676190D01*
X150361905Y-134600000D01*
X150361905Y-133914286D02*
X151009524Y-133914286D01*
X151085714Y-133876191D01*
X151123810Y-133838095D01*
X151161905Y-133761905D01*
X151161905Y-133609524D01*
X151123810Y-133533333D01*
X151085714Y-133495238D01*
X151009524Y-133457143D01*
X150361905Y-133457143D01*
X150361905Y-133190477D02*
X150361905Y-132733334D01*
X151161905Y-132961905D02*
X150361905Y-132961905D01*
X148942857Y-132185714D02*
X148904762Y-132223810D01*
X148790476Y-132261905D01*
X148714286Y-132261905D01*
X148600000Y-132223810D01*
X148523809Y-132147619D01*
X148485714Y-132071429D01*
X148447619Y-131919048D01*
X148447619Y-131804762D01*
X148485714Y-131652381D01*
X148523809Y-131576190D01*
X148600000Y-131500000D01*
X148714286Y-131461905D01*
X148790476Y-131461905D01*
X148904762Y-131500000D01*
X148942857Y-131538095D01*
X149742857Y-132261905D02*
X149476190Y-131880952D01*
X149285714Y-132261905D02*
X149285714Y-131461905D01*
X149590476Y-131461905D01*
X149666667Y-131500000D01*
X149704762Y-131538095D01*
X149742857Y-131614286D01*
X149742857Y-131728571D01*
X149704762Y-131804762D01*
X149666667Y-131842857D01*
X149590476Y-131880952D01*
X149285714Y-131880952D01*
X150085714Y-131842857D02*
X150352381Y-131842857D01*
X150466667Y-132261905D02*
X150085714Y-132261905D01*
X150085714Y-131461905D01*
X150466667Y-131461905D01*
X151076191Y-131842857D02*
X150809524Y-131842857D01*
X150809524Y-132261905D02*
X150809524Y-131461905D01*
X151190477Y-131461905D01*
X149509524Y-129585714D02*
X149471429Y-129623810D01*
X149357143Y-129661905D01*
X149280953Y-129661905D01*
X149166667Y-129623810D01*
X149090476Y-129547619D01*
X149052381Y-129471429D01*
X149014286Y-129319048D01*
X149014286Y-129204762D01*
X149052381Y-129052381D01*
X149090476Y-128976190D01*
X149166667Y-128900000D01*
X149280953Y-128861905D01*
X149357143Y-128861905D01*
X149471429Y-128900000D01*
X149509524Y-128938095D01*
X149738095Y-128861905D02*
X150004762Y-129661905D01*
X150271429Y-128861905D01*
X150538095Y-129357143D02*
X151147619Y-129357143D01*
X150842857Y-129661905D02*
X150842857Y-129052381D01*
X149547620Y-127261905D02*
X149166667Y-127261905D01*
X149166667Y-126461905D01*
X149814286Y-127261905D02*
X149814286Y-126461905D01*
X150004762Y-126461905D01*
X150119048Y-126500000D01*
X150195239Y-126576190D01*
X150233334Y-126652381D01*
X150271429Y-126804762D01*
X150271429Y-126919048D01*
X150233334Y-127071429D01*
X150195239Y-127147619D01*
X150119048Y-127223810D01*
X150004762Y-127261905D01*
X149814286Y-127261905D01*
X151071429Y-127261905D02*
X150804762Y-126880952D01*
X150614286Y-127261905D02*
X150614286Y-126461905D01*
X150919048Y-126461905D01*
X150995239Y-126500000D01*
X151033334Y-126538095D01*
X151071429Y-126614286D01*
X151071429Y-126728571D01*
X151033334Y-126804762D01*
X150995239Y-126842857D01*
X150919048Y-126880952D01*
X150614286Y-126880952D01*
X149109524Y-123861905D02*
X149604762Y-123861905D01*
X149338095Y-124166667D01*
X149452381Y-124166667D01*
X149528571Y-124204762D01*
X149566667Y-124242857D01*
X149604762Y-124319048D01*
X149604762Y-124509524D01*
X149566667Y-124585714D01*
X149528571Y-124623810D01*
X149452381Y-124661905D01*
X149223809Y-124661905D01*
X149147619Y-124623810D01*
X149109524Y-124585714D01*
X149833333Y-123861905D02*
X150100000Y-124661905D01*
X150366667Y-123861905D01*
X150557143Y-123861905D02*
X151052381Y-123861905D01*
X150785714Y-124166667D01*
X150900000Y-124166667D01*
X150976190Y-124204762D01*
X151014286Y-124242857D01*
X151052381Y-124319048D01*
X151052381Y-124509524D01*
X151014286Y-124585714D01*
X150976190Y-124623810D01*
X150900000Y-124661905D01*
X150671428Y-124661905D01*
X150595238Y-124623810D01*
X150557143Y-124585714D01*
D12*
X173885714Y-101450000D02*
X174600000Y-101450000D01*
X173742857Y-101878571D02*
X174242857Y-100378571D01*
X174742857Y-101878571D01*
X175242857Y-100378571D02*
X175242857Y-101592857D01*
X175314285Y-101735714D01*
X175385714Y-101807143D01*
X175528571Y-101878571D01*
X175814285Y-101878571D01*
X175957143Y-101807143D01*
X176028571Y-101735714D01*
X176100000Y-101592857D01*
X176100000Y-100378571D01*
X176671429Y-100378571D02*
X177671429Y-101878571D01*
X177671429Y-100378571D02*
X176671429Y-101878571D01*
D11*
X149490477Y-121500000D02*
X149414286Y-121461905D01*
X149300001Y-121461905D01*
X149185715Y-121500000D01*
X149109524Y-121576190D01*
X149071429Y-121652381D01*
X149033334Y-121804762D01*
X149033334Y-121919048D01*
X149071429Y-122071429D01*
X149109524Y-122147619D01*
X149185715Y-122223810D01*
X149300001Y-122261905D01*
X149376191Y-122261905D01*
X149490477Y-122223810D01*
X149528572Y-122185714D01*
X149528572Y-121919048D01*
X149376191Y-121919048D01*
X149871429Y-122261905D02*
X149871429Y-121461905D01*
X150328572Y-122261905D01*
X150328572Y-121461905D01*
X150709524Y-122261905D02*
X150709524Y-121461905D01*
X150900000Y-121461905D01*
X151014286Y-121500000D01*
X151090477Y-121576190D01*
X151128572Y-121652381D01*
X151166667Y-121804762D01*
X151166667Y-121919048D01*
X151128572Y-122071429D01*
X151090477Y-122147619D01*
X151014286Y-122223810D01*
X150900000Y-122261905D01*
X150709524Y-122261905D01*
D13*
X168914286Y-135700000D02*
X169009524Y-135604761D01*
X169104762Y-135700000D01*
X169009524Y-135795238D01*
X168914286Y-135700000D01*
X169104762Y-135700000D01*
D11*
X148038095Y-146347619D02*
X148000000Y-146309524D01*
X147961905Y-146233333D01*
X147961905Y-146042857D01*
X148000000Y-145966667D01*
X148038095Y-145928571D01*
X148114286Y-145890476D01*
X148190476Y-145890476D01*
X148304762Y-145928571D01*
X148761905Y-146385714D01*
X148761905Y-145890476D01*
X148685714Y-145547619D02*
X148723810Y-145509524D01*
X148761905Y-145547619D01*
X148723810Y-145585714D01*
X148685714Y-145547619D01*
X148761905Y-145547619D01*
X147961905Y-145242857D02*
X147961905Y-144747619D01*
X148266667Y-145014286D01*
X148266667Y-144900000D01*
X148304762Y-144823810D01*
X148342857Y-144785714D01*
X148419048Y-144747619D01*
X148609524Y-144747619D01*
X148685714Y-144785714D01*
X148723810Y-144823810D01*
X148761905Y-144900000D01*
X148761905Y-145128572D01*
X148723810Y-145204762D01*
X148685714Y-145242857D01*
X148457143Y-144404762D02*
X148457143Y-143795238D01*
X147961905Y-143071429D02*
X147961905Y-143223810D01*
X148000000Y-143300000D01*
X148038095Y-143338095D01*
X148152381Y-143414286D01*
X148304762Y-143452381D01*
X148609524Y-143452381D01*
X148685714Y-143414286D01*
X148723810Y-143376191D01*
X148761905Y-143300000D01*
X148761905Y-143147619D01*
X148723810Y-143071429D01*
X148685714Y-143033333D01*
X148609524Y-142995238D01*
X148419048Y-142995238D01*
X148342857Y-143033333D01*
X148304762Y-143071429D01*
X148266667Y-143147619D01*
X148266667Y-143300000D01*
X148304762Y-143376191D01*
X148342857Y-143414286D01*
X148419048Y-143452381D01*
X147961905Y-142766667D02*
X148761905Y-142500000D01*
X147961905Y-142233333D01*
X148761905Y-141966667D02*
X147961905Y-141966667D01*
X147961905Y-141776191D01*
X148000000Y-141661905D01*
X148076190Y-141585714D01*
X148152381Y-141547619D01*
X148304762Y-141509524D01*
X148419048Y-141509524D01*
X148571429Y-141547619D01*
X148647619Y-141585714D01*
X148723810Y-141661905D01*
X148761905Y-141776191D01*
X148761905Y-141966667D01*
X148685714Y-140709524D02*
X148723810Y-140747619D01*
X148761905Y-140861905D01*
X148761905Y-140938095D01*
X148723810Y-141052381D01*
X148647619Y-141128572D01*
X148571429Y-141166667D01*
X148419048Y-141204762D01*
X148304762Y-141204762D01*
X148152381Y-141166667D01*
X148076190Y-141128572D01*
X148000000Y-141052381D01*
X147961905Y-140938095D01*
X147961905Y-140861905D01*
X148000000Y-140747619D01*
X148038095Y-140709524D01*
X150085714Y-145852381D02*
X150123810Y-145890476D01*
X150161905Y-146004762D01*
X150161905Y-146080952D01*
X150123810Y-146195238D01*
X150047619Y-146271429D01*
X149971429Y-146309524D01*
X149819048Y-146347619D01*
X149704762Y-146347619D01*
X149552381Y-146309524D01*
X149476190Y-146271429D01*
X149400000Y-146195238D01*
X149361905Y-146080952D01*
X149361905Y-146004762D01*
X149400000Y-145890476D01*
X149438095Y-145852381D01*
X149857143Y-145509524D02*
X149857143Y-144900000D01*
X150161905Y-145204762D02*
X149552381Y-145204762D01*
X149361905Y-144633334D02*
X150161905Y-144366667D01*
X149361905Y-144100000D01*
X149742857Y-143833334D02*
X149742857Y-143566667D01*
X150161905Y-143452381D02*
X150161905Y-143833334D01*
X149361905Y-143833334D01*
X149361905Y-143452381D01*
D12*
X162171429Y-131742857D02*
X161771429Y-131171429D01*
X161485714Y-131742857D02*
X161485714Y-130542857D01*
X161942857Y-130542857D01*
X162057143Y-130600000D01*
X162114286Y-130657143D01*
X162171429Y-130771429D01*
X162171429Y-130942857D01*
X162114286Y-131057143D01*
X162057143Y-131114286D01*
X161942857Y-131171429D01*
X161485714Y-131171429D01*
X162685714Y-131114286D02*
X163085714Y-131114286D01*
X163257143Y-131742857D02*
X162685714Y-131742857D01*
X162685714Y-130542857D01*
X163257143Y-130542857D01*
X164171428Y-131114286D02*
X163771428Y-131114286D01*
X163771428Y-131742857D02*
X163771428Y-130542857D01*
X164342857Y-130542857D01*
X156685714Y-131742857D02*
X156685714Y-130542857D01*
X157257143Y-131742857D02*
X157257143Y-130542857D01*
X157942858Y-131742857D01*
X157942858Y-130542857D01*
X133014286Y-132535714D02*
X132942857Y-132607143D01*
X132728571Y-132678571D01*
X132585714Y-132678571D01*
X132371429Y-132607143D01*
X132228571Y-132464286D01*
X132157143Y-132321429D01*
X132085714Y-132035714D01*
X132085714Y-131821429D01*
X132157143Y-131535714D01*
X132228571Y-131392857D01*
X132371429Y-131250000D01*
X132585714Y-131178571D01*
X132728571Y-131178571D01*
X132942857Y-131250000D01*
X133014286Y-131321429D01*
X133442857Y-131178571D02*
X134300000Y-131178571D01*
X133871429Y-132678571D02*
X133871429Y-131178571D01*
X135942857Y-132678571D02*
X135942857Y-131178571D01*
X136657143Y-132678571D02*
X136657143Y-131178571D01*
X137514286Y-132678571D01*
X137514286Y-131178571D01*
X154978571Y-145028571D02*
X154978571Y-145742857D01*
X153478571Y-145742857D01*
X154978571Y-144528571D02*
X153478571Y-144528571D01*
X153478571Y-144171428D01*
X153550000Y-143957143D01*
X153692857Y-143814285D01*
X153835714Y-143742857D01*
X154121429Y-143671428D01*
X154335714Y-143671428D01*
X154621429Y-143742857D01*
X154764286Y-143814285D01*
X154907143Y-143957143D01*
X154978571Y-144171428D01*
X154978571Y-144528571D01*
X154978571Y-142171428D02*
X154264286Y-142671428D01*
X154978571Y-143028571D02*
X153478571Y-143028571D01*
X153478571Y-142457143D01*
X153550000Y-142314285D01*
X153621429Y-142242857D01*
X153764286Y-142171428D01*
X153978571Y-142171428D01*
X154121429Y-142242857D01*
X154192857Y-142314285D01*
X154264286Y-142457143D01*
X154264286Y-143028571D01*
X154978571Y-140385714D02*
X153478571Y-140385714D01*
X154978571Y-139671428D02*
X153478571Y-139671428D01*
X154978571Y-138814285D01*
X153478571Y-138814285D01*
D11*
X162357143Y-105504762D02*
X162357143Y-104895238D01*
X162661905Y-105200000D02*
X162052381Y-105200000D01*
X139957143Y-100804762D02*
X139957143Y-100195238D01*
X140261905Y-100500000D02*
X139652381Y-100500000D01*
X135057143Y-100904762D02*
X135057143Y-100295238D01*
X135361905Y-100600000D02*
X134752381Y-100600000D01*
X133657143Y-96004762D02*
X133657143Y-95395238D01*
X133961905Y-95700000D02*
X133352381Y-95700000D01*
X141657143Y-79504762D02*
X141657143Y-78895238D01*
X141961905Y-79200000D02*
X141352381Y-79200000D01*
X163457143Y-62904762D02*
X163457143Y-62295238D01*
X163761905Y-62600000D02*
X163152381Y-62600000D01*
X158657143Y-62804762D02*
X158657143Y-62195238D01*
X158961905Y-62500000D02*
X158352381Y-62500000D01*
X133257143Y-66504762D02*
X133257143Y-65895238D01*
X133561905Y-66200000D02*
X132952381Y-66200000D01*
D14*
X171721429Y-69037500D02*
X172435714Y-68126785D01*
X171721429Y-67323215D02*
X173221429Y-67510715D01*
X173221429Y-68653572D01*
X173150000Y-68930357D01*
X173078571Y-69064285D01*
X172935714Y-69189285D01*
X172721429Y-69162500D01*
X172578571Y-69001785D01*
X172507143Y-68850000D01*
X172435714Y-68555357D01*
X172435714Y-67412500D01*
X171721429Y-71894643D02*
X171721429Y-70180358D01*
X171721429Y-71037500D02*
X173221429Y-71225000D01*
X173007143Y-70912500D01*
X172864286Y-70608929D01*
X172792857Y-70314286D01*
D11*
X163414286Y-113228571D02*
X164023810Y-113457143D01*
X163414286Y-113685714D01*
X164595238Y-114028571D02*
X164595238Y-112885714D01*
X139185714Y-122471429D02*
X138576190Y-122242857D01*
X139185714Y-122014286D01*
X138004762Y-121671429D02*
X138004762Y-122814286D01*
D13*
X128014286Y-69300000D02*
X128109524Y-69204761D01*
X128204762Y-69300000D01*
X128109524Y-69395238D01*
X128014286Y-69300000D01*
X128204762Y-69300000D01*
X158714286Y-117500000D02*
X158809524Y-117404761D01*
X158904762Y-117500000D01*
X158809524Y-117595238D01*
X158714286Y-117500000D01*
X158904762Y-117500000D01*
D12*
X126000001Y-133017857D02*
X126000001Y-131303571D01*
X126000001Y-135067857D02*
X126000001Y-133353571D01*
X126814286Y-131717857D02*
X127042857Y-131717857D01*
X127157143Y-131775000D01*
X127271429Y-131889286D01*
X127328571Y-132117857D01*
X127328571Y-132517857D01*
X127271429Y-132746429D01*
X127157143Y-132860714D01*
X127042857Y-132917857D01*
X126814286Y-132917857D01*
X126700000Y-132860714D01*
X126585714Y-132746429D01*
X126528571Y-132517857D01*
X126528571Y-132117857D01*
X126585714Y-131889286D01*
X126700000Y-131775000D01*
X126814286Y-131717857D01*
X128242857Y-132289286D02*
X127842857Y-132289286D01*
X127842857Y-132917857D02*
X127842857Y-131717857D01*
X128414286Y-131717857D01*
X129271428Y-132289286D02*
X128871428Y-132289286D01*
X128871428Y-132917857D02*
X128871428Y-131717857D01*
X129442857Y-131717857D01*
X130757142Y-131660714D02*
X129728571Y-133203571D01*
X126985714Y-134339286D02*
X126585714Y-134339286D01*
X126585714Y-134967857D02*
X126585714Y-133767857D01*
X127157143Y-133767857D01*
X127442857Y-133767857D02*
X128128571Y-133767857D01*
X127785714Y-134967857D02*
X127785714Y-133767857D01*
X128528571Y-134967857D02*
X128528571Y-133767857D01*
X128814286Y-133767857D01*
X128985714Y-133825000D01*
X129100000Y-133939286D01*
X129157143Y-134053571D01*
X129214286Y-134282143D01*
X129214286Y-134453571D01*
X129157143Y-134682143D01*
X129100000Y-134796429D01*
X128985714Y-134910714D01*
X128814286Y-134967857D01*
X128528571Y-134967857D01*
X129728571Y-134967857D02*
X129728571Y-133767857D01*
D11*
X160600000Y-71550000D02*
X163600000Y-68550000D01*
X159850000Y-71550000D02*
X163600000Y-67800000D01*
X161850000Y-67300000D02*
X162100000Y-67300000D01*
X159100000Y-70050000D02*
X161850000Y-67300000D01*
X159100000Y-70800000D02*
X162600000Y-67300000D01*
X163350000Y-67300000D02*
X163600000Y-67300000D01*
X159100000Y-71550000D02*
X163350000Y-67300000D01*
X163600000Y-67300000D02*
X163600000Y-71550000D01*
X159100000Y-67300000D02*
X163600000Y-67300000D01*
X159100000Y-71550000D02*
X159100000Y-67300000D01*
X163600000Y-71550000D02*
X159100000Y-71550000D01*
D14*
X177896429Y-66923215D02*
X179396429Y-67110715D01*
X178325000Y-67976786D01*
X179396429Y-69110715D01*
X177896429Y-68923215D01*
X178682143Y-70450000D02*
X178682143Y-71450000D01*
X177896429Y-71780357D02*
X177896429Y-70351786D01*
X179396429Y-70539286D01*
X179396429Y-71967857D01*
X179396429Y-72825000D02*
X179396429Y-74539286D01*
X177896429Y-73494643D02*
X179396429Y-73682143D01*
X178682143Y-75450000D02*
X178682143Y-76450000D01*
X177896429Y-76780357D02*
X177896429Y-75351786D01*
X179396429Y-75539286D01*
X179396429Y-76967857D01*
X177896429Y-79780357D02*
X178610714Y-78869642D01*
X177896429Y-78066072D02*
X179396429Y-78253572D01*
X179396429Y-79396429D01*
X179325000Y-79673214D01*
X179253571Y-79807142D01*
X179110714Y-79932142D01*
X178896429Y-79905357D01*
X178753571Y-79744642D01*
X178682143Y-79592857D01*
X178610714Y-79298214D01*
X178610714Y-78155357D01*
X177896429Y-81066072D02*
X179396429Y-81253572D01*
X178325000Y-82119643D01*
X179396429Y-83253572D01*
X177896429Y-83066072D01*
X178325000Y-84405357D02*
X178325000Y-85833928D01*
X177896429Y-84066071D02*
X179396429Y-85253571D01*
X177896429Y-86066071D01*
X177896429Y-87066072D02*
X179396429Y-87253572D01*
X177896429Y-88780357D01*
X179396429Y-88967857D01*
X175346429Y-66923215D02*
X176846429Y-67110715D01*
X175346429Y-68637500D01*
X176846429Y-68825000D01*
X176846429Y-70825000D02*
X176846429Y-71396429D01*
X176775000Y-71673214D01*
X176632143Y-71941071D01*
X176346429Y-72048215D01*
X175846429Y-71985715D01*
X175560714Y-71807142D01*
X175417857Y-71503571D01*
X175346429Y-71208929D01*
X175346429Y-70637500D01*
X175417857Y-70360714D01*
X175560714Y-70092857D01*
X175846429Y-69985715D01*
X176346429Y-70048215D01*
X176632143Y-70226786D01*
X176775000Y-70530357D01*
X176846429Y-70825000D01*
X175346429Y-73208929D02*
X176846429Y-73396429D01*
X176846429Y-74110714D01*
X176775000Y-74530357D01*
X176632143Y-74798214D01*
X176489286Y-74923214D01*
X176203571Y-75030356D01*
X175989286Y-75003571D01*
X175703571Y-74824999D01*
X175560714Y-74664285D01*
X175417857Y-74360714D01*
X175346429Y-73923214D01*
X175346429Y-73208929D01*
X176132143Y-76307143D02*
X176132143Y-77307143D01*
X175346429Y-77637500D02*
X175346429Y-76208929D01*
X176846429Y-76396429D01*
X176846429Y-77825000D01*
D13*
X169414286Y-80400000D02*
X169509524Y-80304761D01*
X169604762Y-80400000D01*
X169509524Y-80495238D01*
X169414286Y-80400000D01*
X169604762Y-80400000D01*
D11*
X180057143Y-126780951D02*
X180057143Y-126171427D01*
X180057143Y-125790475D02*
X180057143Y-125180951D01*
X180057143Y-124799999D02*
X180057143Y-124190475D01*
X180057143Y-123809523D02*
X180057143Y-123199999D01*
X180057143Y-122819047D02*
X180057143Y-122209523D01*
X180057143Y-121828571D02*
X180057143Y-121219047D01*
X180057143Y-120838095D02*
X180057143Y-120228571D01*
X179942857Y-119580952D02*
X179942857Y-119847619D01*
X180361905Y-119847619D02*
X179561905Y-119847619D01*
X179561905Y-119466666D01*
X179561905Y-119276191D02*
X179561905Y-118819048D01*
X180361905Y-119047619D02*
X179561905Y-119047619D01*
X180361905Y-118552381D02*
X179561905Y-118552381D01*
X179561905Y-118361905D01*
X179600000Y-118247619D01*
X179676190Y-118171428D01*
X179752381Y-118133333D01*
X179904762Y-118095238D01*
X180019048Y-118095238D01*
X180171429Y-118133333D01*
X180247619Y-118171428D01*
X180323810Y-118247619D01*
X180361905Y-118361905D01*
X180361905Y-118552381D01*
X180361905Y-117752381D02*
X179561905Y-117752381D01*
X180057143Y-117371429D02*
X180057143Y-116761905D01*
X180057143Y-116380953D02*
X180057143Y-115771429D01*
X180057143Y-115390477D02*
X180057143Y-114780953D01*
X180057143Y-114400001D02*
X180057143Y-113790477D01*
X180057143Y-113409525D02*
X180057143Y-112800001D01*
X180057143Y-112419049D02*
X180057143Y-111809525D01*
X180057143Y-111428573D02*
X180057143Y-110819049D01*
X121238095Y-120919047D02*
X121200000Y-120880952D01*
X121161905Y-120804761D01*
X121161905Y-120614285D01*
X121200000Y-120538095D01*
X121238095Y-120499999D01*
X121314286Y-120461904D01*
X121390476Y-120461904D01*
X121504762Y-120499999D01*
X121961905Y-120957142D01*
X121961905Y-120461904D01*
X121885714Y-120119047D02*
X121923810Y-120080952D01*
X121961905Y-120119047D01*
X121923810Y-120157142D01*
X121885714Y-120119047D01*
X121961905Y-120119047D01*
X121161905Y-119814285D02*
X121161905Y-119319047D01*
X121466667Y-119585714D01*
X121466667Y-119471428D01*
X121504762Y-119395238D01*
X121542857Y-119357142D01*
X121619048Y-119319047D01*
X121809524Y-119319047D01*
X121885714Y-119357142D01*
X121923810Y-119395238D01*
X121961905Y-119471428D01*
X121961905Y-119700000D01*
X121923810Y-119776190D01*
X121885714Y-119814285D01*
X121657143Y-118976190D02*
X121657143Y-118366666D01*
X121161905Y-117642857D02*
X121161905Y-117795238D01*
X121200000Y-117871428D01*
X121238095Y-117909523D01*
X121352381Y-117985714D01*
X121504762Y-118023809D01*
X121809524Y-118023809D01*
X121885714Y-117985714D01*
X121923810Y-117947619D01*
X121961905Y-117871428D01*
X121961905Y-117719047D01*
X121923810Y-117642857D01*
X121885714Y-117604761D01*
X121809524Y-117566666D01*
X121619048Y-117566666D01*
X121542857Y-117604761D01*
X121504762Y-117642857D01*
X121466667Y-117719047D01*
X121466667Y-117871428D01*
X121504762Y-117947619D01*
X121542857Y-117985714D01*
X121619048Y-118023809D01*
X121161905Y-117338095D02*
X121961905Y-117071428D01*
X121161905Y-116804761D01*
X121961905Y-116538095D02*
X121161905Y-116538095D01*
X121161905Y-116347619D01*
X121200000Y-116233333D01*
X121276190Y-116157142D01*
X121352381Y-116119047D01*
X121504762Y-116080952D01*
X121619048Y-116080952D01*
X121771429Y-116119047D01*
X121847619Y-116157142D01*
X121923810Y-116233333D01*
X121961905Y-116347619D01*
X121961905Y-116538095D01*
X121885714Y-115280952D02*
X121923810Y-115319047D01*
X121961905Y-115433333D01*
X121961905Y-115509523D01*
X121923810Y-115623809D01*
X121847619Y-115700000D01*
X121771429Y-115738095D01*
X121619048Y-115776190D01*
X121504762Y-115776190D01*
X121352381Y-115738095D01*
X121276190Y-115700000D01*
X121200000Y-115623809D01*
X121161905Y-115509523D01*
X121161905Y-115433333D01*
X121200000Y-115319047D01*
X121238095Y-115280952D01*
X176461905Y-113038095D02*
X176080952Y-113304762D01*
X176461905Y-113495238D02*
X175661905Y-113495238D01*
X175661905Y-113190476D01*
X175700000Y-113114285D01*
X175738095Y-113076190D01*
X175814286Y-113038095D01*
X175928571Y-113038095D01*
X176004762Y-113076190D01*
X176042857Y-113114285D01*
X176080952Y-113190476D01*
X176080952Y-113495238D01*
X175661905Y-112809524D02*
X175661905Y-112352381D01*
X176461905Y-112580952D02*
X175661905Y-112580952D01*
X176423810Y-112123809D02*
X176461905Y-112009523D01*
X176461905Y-111819047D01*
X176423810Y-111742857D01*
X176385714Y-111704761D01*
X176309524Y-111666666D01*
X176233333Y-111666666D01*
X176157143Y-111704761D01*
X176119048Y-111742857D01*
X176080952Y-111819047D01*
X176042857Y-111971428D01*
X176004762Y-112047619D01*
X175966667Y-112085714D01*
X175890476Y-112123809D01*
X175814286Y-112123809D01*
X175738095Y-112085714D01*
X175700000Y-112047619D01*
X175661905Y-111971428D01*
X175661905Y-111780952D01*
X175700000Y-111666666D01*
X176461905Y-115333333D02*
X176080952Y-115600000D01*
X176461905Y-115790476D02*
X175661905Y-115790476D01*
X175661905Y-115485714D01*
X175700000Y-115409523D01*
X175738095Y-115371428D01*
X175814286Y-115333333D01*
X175928571Y-115333333D01*
X176004762Y-115371428D01*
X176042857Y-115409523D01*
X176080952Y-115485714D01*
X176080952Y-115790476D01*
X175661905Y-115066666D02*
X176461905Y-114533333D01*
X175661905Y-114533333D02*
X176461905Y-115066666D01*
X175661905Y-118309524D02*
X175661905Y-117852381D01*
X176461905Y-118080952D02*
X175661905Y-118080952D01*
X175661905Y-117661904D02*
X176461905Y-117128571D01*
X175661905Y-117128571D02*
X176461905Y-117661904D01*
X175661905Y-121266667D02*
X176461905Y-121000000D01*
X175661905Y-120733333D01*
X176385714Y-120009524D02*
X176423810Y-120047619D01*
X176461905Y-120161905D01*
X176461905Y-120238095D01*
X176423810Y-120352381D01*
X176347619Y-120428572D01*
X176271429Y-120466667D01*
X176119048Y-120504762D01*
X176004762Y-120504762D01*
X175852381Y-120466667D01*
X175776190Y-120428572D01*
X175700000Y-120352381D01*
X175661905Y-120238095D01*
X175661905Y-120161905D01*
X175700000Y-120047619D01*
X175738095Y-120009524D01*
X176385714Y-119209524D02*
X176423810Y-119247619D01*
X176461905Y-119361905D01*
X176461905Y-119438095D01*
X176423810Y-119552381D01*
X176347619Y-119628572D01*
X176271429Y-119666667D01*
X176119048Y-119704762D01*
X176004762Y-119704762D01*
X175852381Y-119666667D01*
X175776190Y-119628572D01*
X175700000Y-119552381D01*
X175661905Y-119438095D01*
X175661905Y-119361905D01*
X175700000Y-119247619D01*
X175738095Y-119209524D01*
X176728571Y-125700000D02*
X175585714Y-125700000D01*
X175700000Y-124709523D02*
X175661905Y-124785714D01*
X175661905Y-124899999D01*
X175700000Y-125014285D01*
X175776190Y-125090476D01*
X175852381Y-125128571D01*
X176004762Y-125166666D01*
X176119048Y-125166666D01*
X176271429Y-125128571D01*
X176347619Y-125090476D01*
X176423810Y-125014285D01*
X176461905Y-124899999D01*
X176461905Y-124823809D01*
X176423810Y-124709523D01*
X176385714Y-124671428D01*
X176119048Y-124671428D01*
X176119048Y-124823809D01*
X176461905Y-124328571D02*
X175661905Y-124328571D01*
X176461905Y-123871428D01*
X175661905Y-123871428D01*
X176461905Y-123490476D02*
X175661905Y-123490476D01*
X175661905Y-123300000D01*
X175700000Y-123185714D01*
X175776190Y-123109523D01*
X175852381Y-123071428D01*
X176004762Y-123033333D01*
X176119048Y-123033333D01*
X176271429Y-123071428D01*
X176347619Y-123109523D01*
X176423810Y-123185714D01*
X176461905Y-123300000D01*
X176461905Y-123490476D01*
X176728571Y-122500000D02*
X175585714Y-122500000D01*
D12*
X122328571Y-132289286D02*
X122500000Y-132346429D01*
X122557143Y-132403571D01*
X122614286Y-132517857D01*
X122614286Y-132689286D01*
X122557143Y-132803571D01*
X122500000Y-132860714D01*
X122385714Y-132917857D01*
X121928571Y-132917857D01*
X121928571Y-131717857D01*
X122328571Y-131717857D01*
X122442857Y-131775000D01*
X122500000Y-131832143D01*
X122557143Y-131946429D01*
X122557143Y-132060714D01*
X122500000Y-132175000D01*
X122442857Y-132232143D01*
X122328571Y-132289286D01*
X121928571Y-132289286D01*
X123071428Y-132575000D02*
X123642857Y-132575000D01*
X122957143Y-132917857D02*
X123357143Y-131717857D01*
X123757143Y-132917857D01*
X123985714Y-131717857D02*
X124671428Y-131717857D01*
X124328571Y-132917857D02*
X124328571Y-131717857D01*
X124900000Y-131717857D02*
X125585714Y-131717857D01*
X125242857Y-132917857D02*
X125242857Y-131717857D01*
X123700000Y-133767857D02*
X123928571Y-133767857D01*
X124042857Y-133825000D01*
X124157143Y-133939286D01*
X124214285Y-134167857D01*
X124214285Y-134567857D01*
X124157143Y-134796429D01*
X124042857Y-134910714D01*
X123928571Y-134967857D01*
X123700000Y-134967857D01*
X123585714Y-134910714D01*
X123471428Y-134796429D01*
X123414285Y-134567857D01*
X123414285Y-134167857D01*
X123471428Y-133939286D01*
X123585714Y-133825000D01*
X123700000Y-133767857D01*
X124728571Y-134967857D02*
X124728571Y-133767857D01*
X125414286Y-134967857D01*
X125414286Y-133767857D01*
D15*
X127400000Y-89230000D02*
X127400000Y-85830000D01*
X127397056Y-89227056D02*
G75*
G02X123300000Y-87530000I-1697056J1697056D01*
G01*
X127397056Y-85832944D02*
G75*
G03X123300000Y-87530000I-1697056J-1697056D01*
G01*
X133278000Y-69587000D02*
X133278000Y-74413000D01*
X133278000Y-74413000D02*
X129722000Y-74413000D01*
X129722000Y-74413000D02*
X129722000Y-69587000D01*
X129722000Y-69587000D02*
X133278000Y-69587000D01*
X130738000Y-70222000D02*
G75*
G03X130738000Y-70222000I-381000J0D01*
G01*
X162670000Y-83130000D02*
X167750000Y-83130000D01*
X167750000Y-83130000D02*
X167750000Y-85670000D01*
X167750000Y-85670000D02*
X162670000Y-85670000D01*
X162670000Y-85670000D02*
X162670000Y-83130000D01*
D16*
X161490000Y-106840000D02*
X166710000Y-106840000D01*
X161490000Y-110160000D02*
X166710000Y-110160000D01*
X161490000Y-106840000D02*
X161490000Y-107504000D01*
X161490000Y-109496000D02*
X161490000Y-110160000D01*
X166710000Y-106840000D02*
X166710000Y-107504000D01*
X166710000Y-109496000D02*
X166710000Y-110160000D01*
X161490000Y-102340000D02*
X166710000Y-102340000D01*
X161490000Y-105660000D02*
X166710000Y-105660000D01*
X161490000Y-102340000D02*
X161490000Y-103004000D01*
X161490000Y-104996000D02*
X161490000Y-105660000D01*
X166710000Y-102340000D02*
X166710000Y-103004000D01*
X166710000Y-104996000D02*
X166710000Y-105660000D01*
X137860000Y-99590000D02*
X137860000Y-104810000D01*
X134540000Y-99590000D02*
X134540000Y-104810000D01*
X137860000Y-99590000D02*
X137196000Y-99590000D01*
X135204000Y-99590000D02*
X134540000Y-99590000D01*
X137860000Y-104810000D02*
X137196000Y-104810000D01*
X135204000Y-104810000D02*
X134540000Y-104810000D01*
X142660000Y-99590000D02*
X142660000Y-104810000D01*
X139340000Y-99590000D02*
X139340000Y-104810000D01*
X142660000Y-99590000D02*
X141996000Y-99590000D01*
X140004000Y-99590000D02*
X139340000Y-99590000D01*
X142660000Y-104810000D02*
X141996000Y-104810000D01*
X140004000Y-104810000D02*
X139340000Y-104810000D01*
X161560000Y-58090000D02*
X161560000Y-63310000D01*
X158240000Y-58090000D02*
X158240000Y-63310000D01*
X161560000Y-58090000D02*
X160896000Y-58090000D01*
X158904000Y-58090000D02*
X158240000Y-58090000D01*
X161560000Y-63310000D02*
X160896000Y-63310000D01*
X158904000Y-63310000D02*
X158240000Y-63310000D01*
X136980000Y-121120000D02*
X136980000Y-120940000D01*
X136980000Y-120940000D02*
X140300000Y-120940000D01*
X140300000Y-120940000D02*
X140300000Y-121120000D01*
X136980000Y-123480000D02*
X136980000Y-123660000D01*
X136980000Y-123660000D02*
X140300000Y-123660000D01*
X140300000Y-123660000D02*
X140300000Y-123480000D01*
X137520000Y-120940000D02*
X137520000Y-123660000D01*
D15*
X122400000Y-115050000D02*
X126900000Y-115050000D01*
X126900000Y-115050000D02*
X126900000Y-120950000D01*
X126900000Y-120950000D02*
X122400000Y-120950000D01*
X122400000Y-120950000D02*
X122400000Y-115050000D01*
X126900000Y-117500000D02*
X126400000Y-117500000D01*
X126400000Y-117500000D02*
X126400000Y-115550000D01*
X126400000Y-115550000D02*
X122900000Y-115550000D01*
X122900000Y-115550000D02*
X122900000Y-120450000D01*
X122900000Y-120450000D02*
X126400000Y-120450000D01*
X126400000Y-120450000D02*
X126400000Y-118500000D01*
X126400000Y-118500000D02*
X126900000Y-118500000D01*
X125700000Y-115050000D02*
X125700000Y-115550000D01*
X124400000Y-115050000D02*
X124400000Y-115550000D01*
X125700000Y-120450000D02*
X125700000Y-120950000D01*
X124400000Y-120450000D02*
X124400000Y-120950000D01*
X126900000Y-116700000D02*
X127100000Y-116700000D01*
X127100000Y-116700000D02*
X127100000Y-116400000D01*
X127100000Y-116400000D02*
X126900000Y-116400000D01*
X127000000Y-116700000D02*
X127000000Y-116400000D01*
X122900000Y-117900000D02*
X123400000Y-117900000D01*
X123400000Y-117900000D02*
X123400000Y-118100000D01*
X123400000Y-118100000D02*
X122900000Y-118100000D01*
X122900000Y-118000000D02*
X123400000Y-118000000D01*
X139270000Y-89270000D02*
X139270000Y-94350000D01*
X139270000Y-94350000D02*
X136730000Y-94350000D01*
X136730000Y-94350000D02*
X136730000Y-89270000D01*
X136730000Y-89270000D02*
X139270000Y-89270000D01*
X140230000Y-94330000D02*
X140230000Y-89250000D01*
X140230000Y-89250000D02*
X142770000Y-89250000D01*
X142770000Y-89250000D02*
X142770000Y-94330000D01*
X142770000Y-94330000D02*
X140230000Y-94330000D01*
X171370000Y-103770000D02*
X171370000Y-108850000D01*
X171370000Y-108850000D02*
X168830000Y-108850000D01*
X168830000Y-108850000D02*
X168830000Y-103770000D01*
X168830000Y-103770000D02*
X171370000Y-103770000D01*
X162870000Y-116230000D02*
X167950000Y-116230000D01*
X167950000Y-116230000D02*
X167950000Y-118770000D01*
X167950000Y-118770000D02*
X162870000Y-118770000D01*
X162870000Y-118770000D02*
X162870000Y-116230000D01*
X167730000Y-89170000D02*
X162650000Y-89170000D01*
X162650000Y-89170000D02*
X162650000Y-86630000D01*
X162650000Y-86630000D02*
X167730000Y-86630000D01*
X167730000Y-86630000D02*
X167730000Y-89170000D01*
X146270000Y-89270000D02*
X146270000Y-94350000D01*
X146270000Y-94350000D02*
X143730000Y-94350000D01*
X143730000Y-94350000D02*
X143730000Y-89270000D01*
X143730000Y-89270000D02*
X146270000Y-89270000D01*
X122190000Y-131170000D02*
X122190000Y-128630000D01*
X122190000Y-128630000D02*
X129810000Y-128630000D01*
X129810000Y-128630000D02*
X129810000Y-131170000D01*
X129810000Y-131170000D02*
X122190000Y-131170000D01*
X124730000Y-128630000D02*
X124730000Y-131170000D01*
D16*
X151990000Y-118890000D02*
G75*
G02X153990000Y-118890000I1000000J0D01*
G01*
X153990000Y-118890000D02*
X155360000Y-118890000D01*
X155360000Y-118890000D02*
X155360000Y-83090000D01*
X155360000Y-83090000D02*
X150620000Y-83090000D01*
X150620000Y-83090000D02*
X150620000Y-118890000D01*
X150620000Y-118890000D02*
X151990000Y-118890000D01*
X158190000Y-118890000D02*
X158190000Y-83090000D01*
X158190000Y-83090000D02*
X147790000Y-83090000D01*
X147790000Y-83090000D02*
X147790000Y-118890000D01*
X147790000Y-118890000D02*
X158190000Y-118890000D01*
X164800000Y-98500000D02*
G75*
G02X159400000Y-98500000I-2700000J0D01*
G01*
X164800000Y-93500000D02*
G75*
G03X159400000Y-93500000I-2700000J0D01*
G01*
X159400000Y-98500000D02*
X159400000Y-93500000D01*
X164800000Y-98500000D02*
X164800000Y-93500000D01*
X142160000Y-78790000D02*
X142160000Y-84010000D01*
X138840000Y-78790000D02*
X138840000Y-84010000D01*
X142160000Y-78790000D02*
X141496000Y-78790000D01*
X139504000Y-78790000D02*
X138840000Y-78790000D01*
X142160000Y-84010000D02*
X141496000Y-84010000D01*
X139504000Y-84010000D02*
X138840000Y-84010000D01*
X136060000Y-61890000D02*
X136060000Y-67110000D01*
X132740000Y-61890000D02*
X132740000Y-67110000D01*
X136060000Y-61890000D02*
X135396000Y-61890000D01*
X133404000Y-61890000D02*
X132740000Y-61890000D01*
X136060000Y-67110000D02*
X135396000Y-67110000D01*
X133404000Y-67110000D02*
X132740000Y-67110000D01*
X125050000Y-69750000D02*
X125050000Y-70850000D01*
X123150000Y-69750000D02*
X123150000Y-70850000D01*
X125000000Y-67600000D02*
X123200000Y-67600000D01*
X134510000Y-96260000D02*
X129290000Y-96260000D01*
X134510000Y-92940000D02*
X129290000Y-92940000D01*
X134510000Y-96260000D02*
X134510000Y-95596000D01*
X134510000Y-93604000D02*
X134510000Y-92940000D01*
X129290000Y-96260000D02*
X129290000Y-95596000D01*
X129290000Y-93604000D02*
X129290000Y-92940000D01*
X129553137Y-88681400D02*
G75*
G03X134347436Y-88680000I2396863J981400D01*
G01*
X129553137Y-86718600D02*
G75*
G02X134347436Y-86720000I2396863J-981400D01*
G01*
X129553137Y-86718600D02*
G75*
G03X129552564Y-88680000I2396863J-981400D01*
G01*
X131950000Y-90250000D02*
X131950000Y-85150000D01*
X131910000Y-90250000D02*
X131910000Y-85150000D01*
X131870000Y-90249000D02*
X131870000Y-85151000D01*
X131830000Y-90248000D02*
X131830000Y-85152000D01*
X131790000Y-90246000D02*
X131790000Y-85154000D01*
X131750000Y-90243000D02*
X131750000Y-85157000D01*
X131710000Y-90239000D02*
X131710000Y-85161000D01*
X131670000Y-90235000D02*
X131670000Y-88680000D01*
X131670000Y-86720000D02*
X131670000Y-85165000D01*
X131630000Y-90231000D02*
X131630000Y-88680000D01*
X131630000Y-86720000D02*
X131630000Y-85169000D01*
X131590000Y-90225000D02*
X131590000Y-88680000D01*
X131590000Y-86720000D02*
X131590000Y-85175000D01*
X131550000Y-90219000D02*
X131550000Y-88680000D01*
X131550000Y-86720000D02*
X131550000Y-85181000D01*
X131510000Y-90213000D02*
X131510000Y-88680000D01*
X131510000Y-86720000D02*
X131510000Y-85187000D01*
X131470000Y-90206000D02*
X131470000Y-88680000D01*
X131470000Y-86720000D02*
X131470000Y-85194000D01*
X131430000Y-90198000D02*
X131430000Y-88680000D01*
X131430000Y-86720000D02*
X131430000Y-85202000D01*
X131390000Y-90189000D02*
X131390000Y-88680000D01*
X131390000Y-86720000D02*
X131390000Y-85211000D01*
X131350000Y-90180000D02*
X131350000Y-88680000D01*
X131350000Y-86720000D02*
X131350000Y-85220000D01*
X131310000Y-90170000D02*
X131310000Y-88680000D01*
X131310000Y-86720000D02*
X131310000Y-85230000D01*
X131270000Y-90160000D02*
X131270000Y-88680000D01*
X131270000Y-86720000D02*
X131270000Y-85240000D01*
X131229000Y-90148000D02*
X131229000Y-88680000D01*
X131229000Y-86720000D02*
X131229000Y-85252000D01*
X131189000Y-90136000D02*
X131189000Y-88680000D01*
X131189000Y-86720000D02*
X131189000Y-85264000D01*
X131149000Y-90124000D02*
X131149000Y-88680000D01*
X131149000Y-86720000D02*
X131149000Y-85276000D01*
X131109000Y-90110000D02*
X131109000Y-88680000D01*
X131109000Y-86720000D02*
X131109000Y-85290000D01*
X131069000Y-90096000D02*
X131069000Y-88680000D01*
X131069000Y-86720000D02*
X131069000Y-85304000D01*
X131029000Y-90082000D02*
X131029000Y-88680000D01*
X131029000Y-86720000D02*
X131029000Y-85318000D01*
X130989000Y-90066000D02*
X130989000Y-88680000D01*
X130989000Y-86720000D02*
X130989000Y-85334000D01*
X130949000Y-90050000D02*
X130949000Y-88680000D01*
X130949000Y-86720000D02*
X130949000Y-85350000D01*
X130909000Y-90033000D02*
X130909000Y-88680000D01*
X130909000Y-86720000D02*
X130909000Y-85367000D01*
X130869000Y-90015000D02*
X130869000Y-88680000D01*
X130869000Y-86720000D02*
X130869000Y-85385000D01*
X130829000Y-89996000D02*
X130829000Y-88680000D01*
X130829000Y-86720000D02*
X130829000Y-85404000D01*
X130789000Y-89976000D02*
X130789000Y-88680000D01*
X130789000Y-86720000D02*
X130789000Y-85424000D01*
X130749000Y-89956000D02*
X130749000Y-88680000D01*
X130749000Y-86720000D02*
X130749000Y-85444000D01*
X130709000Y-89934000D02*
X130709000Y-88680000D01*
X130709000Y-86720000D02*
X130709000Y-85466000D01*
X130669000Y-89912000D02*
X130669000Y-88680000D01*
X130669000Y-86720000D02*
X130669000Y-85488000D01*
X130629000Y-89889000D02*
X130629000Y-88680000D01*
X130629000Y-86720000D02*
X130629000Y-85511000D01*
X130589000Y-89865000D02*
X130589000Y-88680000D01*
X130589000Y-86720000D02*
X130589000Y-85535000D01*
X130549000Y-89840000D02*
X130549000Y-88680000D01*
X130549000Y-86720000D02*
X130549000Y-85560000D01*
X130509000Y-89813000D02*
X130509000Y-88680000D01*
X130509000Y-86720000D02*
X130509000Y-85587000D01*
X130469000Y-89786000D02*
X130469000Y-88680000D01*
X130469000Y-86720000D02*
X130469000Y-85614000D01*
X130429000Y-89758000D02*
X130429000Y-88680000D01*
X130429000Y-86720000D02*
X130429000Y-85642000D01*
X130389000Y-89728000D02*
X130389000Y-88680000D01*
X130389000Y-86720000D02*
X130389000Y-85672000D01*
X130349000Y-89697000D02*
X130349000Y-88680000D01*
X130349000Y-86720000D02*
X130349000Y-85703000D01*
X130309000Y-89665000D02*
X130309000Y-88680000D01*
X130309000Y-86720000D02*
X130309000Y-85735000D01*
X130269000Y-89632000D02*
X130269000Y-88680000D01*
X130269000Y-86720000D02*
X130269000Y-85768000D01*
X130229000Y-89597000D02*
X130229000Y-88680000D01*
X130229000Y-86720000D02*
X130229000Y-85803000D01*
X130189000Y-89561000D02*
X130189000Y-88680000D01*
X130189000Y-86720000D02*
X130189000Y-85839000D01*
X130149000Y-89523000D02*
X130149000Y-88680000D01*
X130149000Y-86720000D02*
X130149000Y-85877000D01*
X130109000Y-89483000D02*
X130109000Y-88680000D01*
X130109000Y-86720000D02*
X130109000Y-85917000D01*
X130069000Y-89442000D02*
X130069000Y-88680000D01*
X130069000Y-86720000D02*
X130069000Y-85958000D01*
X130029000Y-89399000D02*
X130029000Y-88680000D01*
X130029000Y-86720000D02*
X130029000Y-86001000D01*
X129989000Y-89354000D02*
X129989000Y-88680000D01*
X129989000Y-86720000D02*
X129989000Y-86046000D01*
X129949000Y-89306000D02*
X129949000Y-88680000D01*
X129949000Y-86720000D02*
X129949000Y-86094000D01*
X129909000Y-89256000D02*
X129909000Y-88680000D01*
X129909000Y-86720000D02*
X129909000Y-86144000D01*
X129869000Y-89204000D02*
X129869000Y-88680000D01*
X129869000Y-86720000D02*
X129869000Y-86196000D01*
X129829000Y-89148000D02*
X129829000Y-88680000D01*
X129829000Y-86720000D02*
X129829000Y-86252000D01*
X129789000Y-89090000D02*
X129789000Y-88680000D01*
X129789000Y-86720000D02*
X129789000Y-86310000D01*
X129749000Y-89027000D02*
X129749000Y-88680000D01*
X129749000Y-86720000D02*
X129749000Y-86373000D01*
X129709000Y-88961000D02*
X129709000Y-86439000D01*
X129669000Y-88889000D02*
X129669000Y-86511000D01*
X129629000Y-88812000D02*
X129629000Y-86588000D01*
X129589000Y-88728000D02*
X129589000Y-86672000D01*
X129549000Y-88634000D02*
X129549000Y-86766000D01*
X129509000Y-88529000D02*
X129509000Y-86871000D01*
X129469000Y-88407000D02*
X129469000Y-86993000D01*
X129429000Y-88259000D02*
X129429000Y-87141000D01*
X129389000Y-88054000D02*
X129389000Y-87346000D01*
X135400000Y-87700000D02*
X134200000Y-87700000D01*
X134800000Y-88350000D02*
X134800000Y-87050000D01*
X132660639Y-81179089D02*
G75*
G03X136538995Y-81180000I1939361J779089D01*
G01*
X132660639Y-79620911D02*
G75*
G02X136538995Y-79620000I1939361J-779089D01*
G01*
X132660639Y-79620911D02*
G75*
G03X132661005Y-81180000I1939361J-779089D01*
G01*
X134600000Y-82450000D02*
X134600000Y-78350000D01*
X134560000Y-82450000D02*
X134560000Y-78350000D01*
X134520000Y-82449000D02*
X134520000Y-78351000D01*
X134480000Y-82447000D02*
X134480000Y-78353000D01*
X134440000Y-82444000D02*
X134440000Y-78356000D01*
X134400000Y-82441000D02*
X134400000Y-78359000D01*
X134360000Y-82437000D02*
X134360000Y-81180000D01*
X134360000Y-79620000D02*
X134360000Y-78363000D01*
X134320000Y-82432000D02*
X134320000Y-81180000D01*
X134320000Y-79620000D02*
X134320000Y-78368000D01*
X134280000Y-82426000D02*
X134280000Y-81180000D01*
X134280000Y-79620000D02*
X134280000Y-78374000D01*
X134240000Y-82419000D02*
X134240000Y-81180000D01*
X134240000Y-79620000D02*
X134240000Y-78381000D01*
X134200000Y-82412000D02*
X134200000Y-81180000D01*
X134200000Y-79620000D02*
X134200000Y-78388000D01*
X134160000Y-82404000D02*
X134160000Y-81180000D01*
X134160000Y-79620000D02*
X134160000Y-78396000D01*
X134120000Y-82395000D02*
X134120000Y-81180000D01*
X134120000Y-79620000D02*
X134120000Y-78405000D01*
X134080000Y-82385000D02*
X134080000Y-81180000D01*
X134080000Y-79620000D02*
X134080000Y-78415000D01*
X134040000Y-82374000D02*
X134040000Y-81180000D01*
X134040000Y-79620000D02*
X134040000Y-78426000D01*
X134000000Y-82363000D02*
X134000000Y-81180000D01*
X134000000Y-79620000D02*
X134000000Y-78437000D01*
X133960000Y-82350000D02*
X133960000Y-81180000D01*
X133960000Y-79620000D02*
X133960000Y-78450000D01*
X133920000Y-82337000D02*
X133920000Y-81180000D01*
X133920000Y-79620000D02*
X133920000Y-78463000D01*
X133879000Y-82323000D02*
X133879000Y-81180000D01*
X133879000Y-79620000D02*
X133879000Y-78477000D01*
X133839000Y-82307000D02*
X133839000Y-81180000D01*
X133839000Y-79620000D02*
X133839000Y-78493000D01*
X133799000Y-82291000D02*
X133799000Y-81180000D01*
X133799000Y-79620000D02*
X133799000Y-78509000D01*
X133759000Y-82274000D02*
X133759000Y-81180000D01*
X133759000Y-79620000D02*
X133759000Y-78526000D01*
X133719000Y-82256000D02*
X133719000Y-81180000D01*
X133719000Y-79620000D02*
X133719000Y-78544000D01*
X133679000Y-82237000D02*
X133679000Y-81180000D01*
X133679000Y-79620000D02*
X133679000Y-78563000D01*
X133639000Y-82217000D02*
X133639000Y-81180000D01*
X133639000Y-79620000D02*
X133639000Y-78583000D01*
X133599000Y-82196000D02*
X133599000Y-81180000D01*
X133599000Y-79620000D02*
X133599000Y-78604000D01*
X133559000Y-82173000D02*
X133559000Y-81180000D01*
X133559000Y-79620000D02*
X133559000Y-78627000D01*
X133519000Y-82150000D02*
X133519000Y-81180000D01*
X133519000Y-79620000D02*
X133519000Y-78650000D01*
X133479000Y-82125000D02*
X133479000Y-81180000D01*
X133479000Y-79620000D02*
X133479000Y-78675000D01*
X133439000Y-82099000D02*
X133439000Y-81180000D01*
X133439000Y-79620000D02*
X133439000Y-78701000D01*
X133399000Y-82072000D02*
X133399000Y-81180000D01*
X133399000Y-79620000D02*
X133399000Y-78728000D01*
X133359000Y-82043000D02*
X133359000Y-81180000D01*
X133359000Y-79620000D02*
X133359000Y-78757000D01*
X133319000Y-82013000D02*
X133319000Y-81180000D01*
X133319000Y-79620000D02*
X133319000Y-78787000D01*
X133279000Y-81981000D02*
X133279000Y-81180000D01*
X133279000Y-79620000D02*
X133279000Y-78819000D01*
X133239000Y-81947000D02*
X133239000Y-81180000D01*
X133239000Y-79620000D02*
X133239000Y-78853000D01*
X133199000Y-81912000D02*
X133199000Y-81180000D01*
X133199000Y-79620000D02*
X133199000Y-78888000D01*
X133159000Y-81875000D02*
X133159000Y-81180000D01*
X133159000Y-79620000D02*
X133159000Y-78925000D01*
X133119000Y-81836000D02*
X133119000Y-81180000D01*
X133119000Y-79620000D02*
X133119000Y-78964000D01*
X133079000Y-81795000D02*
X133079000Y-81180000D01*
X133079000Y-79620000D02*
X133079000Y-79005000D01*
X133039000Y-81751000D02*
X133039000Y-81180000D01*
X133039000Y-79620000D02*
X133039000Y-79049000D01*
X132999000Y-81705000D02*
X132999000Y-81180000D01*
X132999000Y-79620000D02*
X132999000Y-79095000D01*
X132959000Y-81656000D02*
X132959000Y-81180000D01*
X132959000Y-79620000D02*
X132959000Y-79144000D01*
X132919000Y-81604000D02*
X132919000Y-81180000D01*
X132919000Y-79620000D02*
X132919000Y-79196000D01*
X132879000Y-81548000D02*
X132879000Y-81180000D01*
X132879000Y-79620000D02*
X132879000Y-79252000D01*
X132839000Y-81488000D02*
X132839000Y-81180000D01*
X132839000Y-79620000D02*
X132839000Y-79312000D01*
X132799000Y-81423000D02*
X132799000Y-79377000D01*
X132759000Y-81352000D02*
X132759000Y-79448000D01*
X132719000Y-81274000D02*
X132719000Y-79526000D01*
X132679000Y-81186000D02*
X132679000Y-79614000D01*
X132639000Y-81086000D02*
X132639000Y-79714000D01*
X132599000Y-80967000D02*
X132599000Y-79833000D01*
X132559000Y-80815000D02*
X132559000Y-79985000D01*
X132519000Y-80565000D02*
X132519000Y-80235000D01*
X137300000Y-80400000D02*
X136400000Y-80400000D01*
X136850000Y-80850000D02*
X136850000Y-79950000D01*
X166360000Y-58090000D02*
X166360000Y-63310000D01*
X163040000Y-58090000D02*
X163040000Y-63310000D01*
X166360000Y-58090000D02*
X165696000Y-58090000D01*
X163704000Y-58090000D02*
X163040000Y-58090000D01*
X166360000Y-63310000D02*
X165696000Y-63310000D01*
X163704000Y-63310000D02*
X163040000Y-63310000D01*
D15*
X169000000Y-65400000D02*
X169000000Y-81400000D01*
X145300000Y-65400000D02*
X169000000Y-65400000D01*
X145300000Y-81400000D02*
X145300000Y-65400000D01*
X169000000Y-81400000D02*
X145300000Y-81400000D01*
D16*
X165720000Y-114680000D02*
X165720000Y-114860000D01*
X165720000Y-114860000D02*
X162400000Y-114860000D01*
X162400000Y-114860000D02*
X162400000Y-114680000D01*
X165720000Y-112320000D02*
X165720000Y-112140000D01*
X165720000Y-112140000D02*
X162400000Y-112140000D01*
X162400000Y-112140000D02*
X162400000Y-112320000D01*
X165180000Y-114860000D02*
X165180000Y-112140000D01*
D15*
X138599120Y-143000500D02*
X147600880Y-143000500D01*
X138599120Y-146500620D02*
X147600880Y-146500620D01*
X147600880Y-146500620D02*
X147600880Y-131999760D01*
X147600880Y-131999760D02*
X138599120Y-131999760D01*
X138599120Y-131999760D02*
X138599120Y-146500620D01*
D16*
X179390000Y-124030000D02*
X179390000Y-111210000D01*
X179390000Y-111210000D02*
X176610000Y-111210000D01*
X176610000Y-111210000D02*
X176610000Y-124030000D01*
X176610000Y-124030000D02*
X179390000Y-124030000D01*
X179390000Y-125300000D02*
X179390000Y-126690000D01*
X179390000Y-126690000D02*
X178000000Y-126690000D01*
X165640000Y-100460000D02*
X165640000Y-96540000D01*
X168360000Y-100460000D02*
X168360000Y-96540000D01*
X165640000Y-100460000D02*
X166250000Y-100460000D01*
X167750000Y-100460000D02*
X168360000Y-100460000D01*
X165640000Y-96540000D02*
X166250000Y-96540000D01*
X167750000Y-96540000D02*
X168360000Y-96540000D01*
X168360000Y-91540000D02*
X168360000Y-95460000D01*
X165640000Y-91540000D02*
X165640000Y-95460000D01*
X168360000Y-91540000D02*
X167750000Y-91540000D01*
X166250000Y-91540000D02*
X165640000Y-91540000D01*
X168360000Y-95460000D02*
X167750000Y-95460000D01*
X166250000Y-95460000D02*
X165640000Y-95460000D01*
X129079089Y-112939361D02*
G75*
G03X129080000Y-109061005I-779089J1939361D01*
G01*
X127520911Y-112939361D02*
G75*
G02X127520000Y-109061005I779089J1939361D01*
G01*
X127520911Y-112939361D02*
G75*
G03X129080000Y-112938995I779089J1939361D01*
G01*
X130350000Y-111000000D02*
X126250000Y-111000000D01*
X130350000Y-111040000D02*
X126250000Y-111040000D01*
X130349000Y-111080000D02*
X126251000Y-111080000D01*
X130347000Y-111120000D02*
X126253000Y-111120000D01*
X130344000Y-111160000D02*
X126256000Y-111160000D01*
X130341000Y-111200000D02*
X126259000Y-111200000D01*
X130337000Y-111240000D02*
X129080000Y-111240000D01*
X127520000Y-111240000D02*
X126263000Y-111240000D01*
X130332000Y-111280000D02*
X129080000Y-111280000D01*
X127520000Y-111280000D02*
X126268000Y-111280000D01*
X130326000Y-111320000D02*
X129080000Y-111320000D01*
X127520000Y-111320000D02*
X126274000Y-111320000D01*
X130319000Y-111360000D02*
X129080000Y-111360000D01*
X127520000Y-111360000D02*
X126281000Y-111360000D01*
X130312000Y-111400000D02*
X129080000Y-111400000D01*
X127520000Y-111400000D02*
X126288000Y-111400000D01*
X130304000Y-111440000D02*
X129080000Y-111440000D01*
X127520000Y-111440000D02*
X126296000Y-111440000D01*
X130295000Y-111480000D02*
X129080000Y-111480000D01*
X127520000Y-111480000D02*
X126305000Y-111480000D01*
X130285000Y-111520000D02*
X129080000Y-111520000D01*
X127520000Y-111520000D02*
X126315000Y-111520000D01*
X130274000Y-111560000D02*
X129080000Y-111560000D01*
X127520000Y-111560000D02*
X126326000Y-111560000D01*
X130263000Y-111600000D02*
X129080000Y-111600000D01*
X127520000Y-111600000D02*
X126337000Y-111600000D01*
X130250000Y-111640000D02*
X129080000Y-111640000D01*
X127520000Y-111640000D02*
X126350000Y-111640000D01*
X130237000Y-111680000D02*
X129080000Y-111680000D01*
X127520000Y-111680000D02*
X126363000Y-111680000D01*
X130223000Y-111721000D02*
X129080000Y-111721000D01*
X127520000Y-111721000D02*
X126377000Y-111721000D01*
X130207000Y-111761000D02*
X129080000Y-111761000D01*
X127520000Y-111761000D02*
X126393000Y-111761000D01*
X130191000Y-111801000D02*
X129080000Y-111801000D01*
X127520000Y-111801000D02*
X126409000Y-111801000D01*
X130174000Y-111841000D02*
X129080000Y-111841000D01*
X127520000Y-111841000D02*
X126426000Y-111841000D01*
X130156000Y-111881000D02*
X129080000Y-111881000D01*
X127520000Y-111881000D02*
X126444000Y-111881000D01*
X130137000Y-111921000D02*
X129080000Y-111921000D01*
X127520000Y-111921000D02*
X126463000Y-111921000D01*
X130117000Y-111961000D02*
X129080000Y-111961000D01*
X127520000Y-111961000D02*
X126483000Y-111961000D01*
X130096000Y-112001000D02*
X129080000Y-112001000D01*
X127520000Y-112001000D02*
X126504000Y-112001000D01*
X130073000Y-112041000D02*
X129080000Y-112041000D01*
X127520000Y-112041000D02*
X126527000Y-112041000D01*
X130050000Y-112081000D02*
X129080000Y-112081000D01*
X127520000Y-112081000D02*
X126550000Y-112081000D01*
X130025000Y-112121000D02*
X129080000Y-112121000D01*
X127520000Y-112121000D02*
X126575000Y-112121000D01*
X129999000Y-112161000D02*
X129080000Y-112161000D01*
X127520000Y-112161000D02*
X126601000Y-112161000D01*
X129972000Y-112201000D02*
X129080000Y-112201000D01*
X127520000Y-112201000D02*
X126628000Y-112201000D01*
X129943000Y-112241000D02*
X129080000Y-112241000D01*
X127520000Y-112241000D02*
X126657000Y-112241000D01*
X129913000Y-112281000D02*
X129080000Y-112281000D01*
X127520000Y-112281000D02*
X126687000Y-112281000D01*
X129881000Y-112321000D02*
X129080000Y-112321000D01*
X127520000Y-112321000D02*
X126719000Y-112321000D01*
X129847000Y-112361000D02*
X129080000Y-112361000D01*
X127520000Y-112361000D02*
X126753000Y-112361000D01*
X129812000Y-112401000D02*
X129080000Y-112401000D01*
X127520000Y-112401000D02*
X126788000Y-112401000D01*
X129775000Y-112441000D02*
X129080000Y-112441000D01*
X127520000Y-112441000D02*
X126825000Y-112441000D01*
X129736000Y-112481000D02*
X129080000Y-112481000D01*
X127520000Y-112481000D02*
X126864000Y-112481000D01*
X129695000Y-112521000D02*
X129080000Y-112521000D01*
X127520000Y-112521000D02*
X126905000Y-112521000D01*
X129651000Y-112561000D02*
X129080000Y-112561000D01*
X127520000Y-112561000D02*
X126949000Y-112561000D01*
X129605000Y-112601000D02*
X129080000Y-112601000D01*
X127520000Y-112601000D02*
X126995000Y-112601000D01*
X129556000Y-112641000D02*
X129080000Y-112641000D01*
X127520000Y-112641000D02*
X127044000Y-112641000D01*
X129504000Y-112681000D02*
X129080000Y-112681000D01*
X127520000Y-112681000D02*
X127096000Y-112681000D01*
X129448000Y-112721000D02*
X129080000Y-112721000D01*
X127520000Y-112721000D02*
X127152000Y-112721000D01*
X129388000Y-112761000D02*
X129080000Y-112761000D01*
X127520000Y-112761000D02*
X127212000Y-112761000D01*
X129323000Y-112801000D02*
X127277000Y-112801000D01*
X129252000Y-112841000D02*
X127348000Y-112841000D01*
X129174000Y-112881000D02*
X127426000Y-112881000D01*
X129086000Y-112921000D02*
X127514000Y-112921000D01*
X128986000Y-112961000D02*
X127614000Y-112961000D01*
X128867000Y-113001000D02*
X127733000Y-113001000D01*
X128715000Y-113041000D02*
X127885000Y-113041000D01*
X128465000Y-113081000D02*
X128135000Y-113081000D01*
X128300000Y-108300000D02*
X128300000Y-109200000D01*
X128750000Y-108750000D02*
X127850000Y-108750000D01*
D15*
X134350580Y-128598980D02*
X142849420Y-128598980D01*
X142849420Y-128598980D02*
X142849420Y-124601020D01*
X142849420Y-124601020D02*
X134350580Y-124601020D01*
X134350580Y-124601020D02*
X134350580Y-128598980D01*
X155450000Y-145900000D02*
X155450000Y-132950000D01*
X155450000Y-132950000D02*
X162950000Y-132950000D01*
X162950000Y-145900000D02*
X162950000Y-132950000D01*
X161600000Y-147900000D02*
X161600000Y-145900000D01*
X161600000Y-147900000D02*
X156000000Y-147900000D01*
X156000000Y-147900000D02*
X156000000Y-145900000D01*
X155450000Y-145900000D02*
X162950000Y-145900000D01*
X131350000Y-145900000D02*
X131350000Y-132950000D01*
X131350000Y-132950000D02*
X138850000Y-132950000D01*
X138850000Y-145900000D02*
X138850000Y-132950000D01*
X137500000Y-147900000D02*
X137500000Y-145900000D01*
X137500000Y-147900000D02*
X131900000Y-147900000D01*
X131900000Y-147900000D02*
X131900000Y-145900000D01*
X131350000Y-145900000D02*
X138850000Y-145900000D01*
X147270000Y-122770000D02*
X147270000Y-127850000D01*
X147270000Y-127850000D02*
X144730000Y-127850000D01*
X144730000Y-127850000D02*
X144730000Y-122770000D01*
X144730000Y-122770000D02*
X147270000Y-122770000D01*
X166170000Y-139170000D02*
X166170000Y-144250000D01*
X166170000Y-144250000D02*
X163630000Y-144250000D01*
X163630000Y-144250000D02*
X163630000Y-139170000D01*
X163630000Y-139170000D02*
X166170000Y-139170000D01*
X143970000Y-111270000D02*
X143970000Y-116350000D01*
X143970000Y-116350000D02*
X141430000Y-116350000D01*
X141430000Y-116350000D02*
X141430000Y-111270000D01*
X141430000Y-111270000D02*
X143970000Y-111270000D01*
X132430000Y-116330000D02*
X132430000Y-111250000D01*
X132430000Y-111250000D02*
X134970000Y-111250000D01*
X134970000Y-111250000D02*
X134970000Y-116330000D01*
X134970000Y-116330000D02*
X132430000Y-116330000D01*
X138430000Y-116330000D02*
X138430000Y-111250000D01*
X138430000Y-111250000D02*
X140970000Y-111250000D01*
X140970000Y-111250000D02*
X140970000Y-116330000D01*
X140970000Y-116330000D02*
X138430000Y-116330000D01*
X137970000Y-111270000D02*
X137970000Y-116350000D01*
X137970000Y-116350000D02*
X135430000Y-116350000D01*
X135430000Y-116350000D02*
X135430000Y-111270000D01*
X135430000Y-111270000D02*
X137970000Y-111270000D01*
D16*
X162804296Y-128914691D02*
G75*
G02X160495000Y-128955000I-1154296J-40309D01*
G01*
X160495948Y-128975121D02*
G75*
G02X161890000Y-127826000I1154052J20121D01*
G01*
X165270000Y-120635000D02*
X165270000Y-130285000D01*
X160319000Y-120635000D02*
X160319000Y-130285000D01*
X165270000Y-120635000D02*
X160319000Y-120635000D01*
X165270000Y-130285000D02*
X160319000Y-130285000D01*
X162384000Y-129831000D02*
X160774000Y-128220000D01*
X162525000Y-129691000D02*
X160915000Y-128079000D01*
X157204296Y-128914691D02*
G75*
G02X154895000Y-128955000I-1154296J-40309D01*
G01*
X154895948Y-128975121D02*
G75*
G02X156290000Y-127826000I1154052J20121D01*
G01*
X159670000Y-120635000D02*
X159670000Y-130285000D01*
X154719000Y-120635000D02*
X154719000Y-130285000D01*
X159670000Y-120635000D02*
X154719000Y-120635000D01*
X159670000Y-130285000D02*
X154719000Y-130285000D01*
X156784000Y-129831000D02*
X155174000Y-128220000D01*
X156925000Y-129691000D02*
X155315000Y-128079000D01*
X171610000Y-134000000D02*
X171610000Y-132200000D01*
X168390000Y-132200000D02*
X168390000Y-134650000D01*
X165940000Y-129110000D02*
X165940000Y-123890000D01*
X169260000Y-129110000D02*
X169260000Y-123890000D01*
X165940000Y-129110000D02*
X166604000Y-129110000D01*
X168596000Y-129110000D02*
X169260000Y-129110000D01*
X165940000Y-123890000D02*
X166604000Y-123890000D01*
X168596000Y-123890000D02*
X169260000Y-123890000D01*
X163540000Y-136010000D02*
X163540000Y-132090000D01*
X166260000Y-136010000D02*
X166260000Y-132090000D01*
X163540000Y-136010000D02*
X164150000Y-136010000D01*
X165650000Y-136010000D02*
X166260000Y-136010000D01*
X163540000Y-132090000D02*
X164150000Y-132090000D01*
X165650000Y-132090000D02*
X166260000Y-132090000D01*
X151410000Y-122970000D02*
X151410000Y-138330000D01*
X151410000Y-138330000D02*
X154190000Y-138330000D01*
X154190000Y-138330000D02*
X154190000Y-122970000D01*
X154190000Y-122970000D02*
X151410000Y-122970000D01*
X151410000Y-121700000D02*
X151410000Y-120310000D01*
X151410000Y-120310000D02*
X152800000Y-120310000D01*
D15*
X169370000Y-139170000D02*
X169370000Y-144250000D01*
X169370000Y-144250000D02*
X166830000Y-144250000D01*
X166830000Y-144250000D02*
X166830000Y-139170000D01*
X166830000Y-139170000D02*
X169370000Y-139170000D01*
X121388095Y-87002381D02*
X121388095Y-87811905D01*
X121435714Y-87907143D01*
X121483333Y-87954762D01*
X121578571Y-88002381D01*
X121769048Y-88002381D01*
X121864286Y-87954762D01*
X121911905Y-87907143D01*
X121959524Y-87811905D01*
X121959524Y-87002381D01*
X122959524Y-88002381D02*
X122388095Y-88002381D01*
X122673809Y-88002381D02*
X122673809Y-87002381D01*
X122578571Y-87145238D01*
X122483333Y-87240476D01*
X122388095Y-87288095D01*
X130738095Y-68352381D02*
X130738095Y-69161905D01*
X130785714Y-69257143D01*
X130833333Y-69304762D01*
X130928571Y-69352381D01*
X131119048Y-69352381D01*
X131214286Y-69304762D01*
X131261905Y-69257143D01*
X131309524Y-69161905D01*
X131309524Y-68352381D01*
X131690476Y-68352381D02*
X132309524Y-68352381D01*
X131976190Y-68733333D01*
X132119048Y-68733333D01*
X132214286Y-68780952D01*
X132261905Y-68828571D01*
X132309524Y-68923810D01*
X132309524Y-69161905D01*
X132261905Y-69257143D01*
X132214286Y-69304762D01*
X132119048Y-69352381D01*
X131833333Y-69352381D01*
X131738095Y-69304762D01*
X131690476Y-69257143D01*
X159852381Y-84466666D02*
X159376190Y-84800000D01*
X159852381Y-85038095D02*
X158852381Y-85038095D01*
X158852381Y-84657142D01*
X158900000Y-84561904D01*
X158947619Y-84514285D01*
X159042857Y-84466666D01*
X159185714Y-84466666D01*
X159280952Y-84514285D01*
X159328571Y-84561904D01*
X159376190Y-84657142D01*
X159376190Y-85038095D01*
X158852381Y-84133333D02*
X158852381Y-83466666D01*
X159852381Y-83895238D01*
X164509524Y-84952381D02*
X163938095Y-84952381D01*
X164223809Y-84952381D02*
X164223809Y-83952381D01*
X164128571Y-84095238D01*
X164033333Y-84190476D01*
X163938095Y-84238095D01*
X165128571Y-83952381D02*
X165223810Y-83952381D01*
X165319048Y-84000000D01*
X165366667Y-84047619D01*
X165414286Y-84142857D01*
X165461905Y-84333333D01*
X165461905Y-84571429D01*
X165414286Y-84761905D01*
X165366667Y-84857143D01*
X165319048Y-84904762D01*
X165223810Y-84952381D01*
X165128571Y-84952381D01*
X165033333Y-84904762D01*
X164985714Y-84857143D01*
X164938095Y-84761905D01*
X164890476Y-84571429D01*
X164890476Y-84333333D01*
X164938095Y-84142857D01*
X164985714Y-84047619D01*
X165033333Y-84000000D01*
X165128571Y-83952381D01*
X165890476Y-84952381D02*
X165890476Y-83952381D01*
X166461905Y-84952381D02*
X166033333Y-84380952D01*
X166461905Y-83952381D02*
X165890476Y-84523810D01*
X160257143Y-108666666D02*
X160304762Y-108714285D01*
X160352381Y-108857142D01*
X160352381Y-108952380D01*
X160304762Y-109095238D01*
X160209524Y-109190476D01*
X160114286Y-109238095D01*
X159923810Y-109285714D01*
X159780952Y-109285714D01*
X159590476Y-109238095D01*
X159495238Y-109190476D01*
X159400000Y-109095238D01*
X159352381Y-108952380D01*
X159352381Y-108857142D01*
X159400000Y-108714285D01*
X159447619Y-108666666D01*
X159352381Y-107761904D02*
X159352381Y-108238095D01*
X159828571Y-108285714D01*
X159780952Y-108238095D01*
X159733333Y-108142857D01*
X159733333Y-107904761D01*
X159780952Y-107809523D01*
X159828571Y-107761904D01*
X159923810Y-107714285D01*
X160161905Y-107714285D01*
X160257143Y-107761904D01*
X160304762Y-107809523D01*
X160352381Y-107904761D01*
X160352381Y-108142857D01*
X160304762Y-108238095D01*
X160257143Y-108285714D01*
X162861905Y-107761905D02*
X162404762Y-107761905D01*
X162633333Y-107761905D02*
X162633333Y-106961905D01*
X162557143Y-107076190D01*
X162480952Y-107152381D01*
X162404762Y-107190476D01*
X163357143Y-106961905D02*
X163433334Y-106961905D01*
X163509524Y-107000000D01*
X163547619Y-107038095D01*
X163585715Y-107114286D01*
X163623810Y-107266667D01*
X163623810Y-107457143D01*
X163585715Y-107609524D01*
X163547619Y-107685714D01*
X163509524Y-107723810D01*
X163433334Y-107761905D01*
X163357143Y-107761905D01*
X163280953Y-107723810D01*
X163242857Y-107685714D01*
X163204762Y-107609524D01*
X163166667Y-107457143D01*
X163166667Y-107266667D01*
X163204762Y-107114286D01*
X163242857Y-107038095D01*
X163280953Y-107000000D01*
X163357143Y-106961905D01*
X164119048Y-106961905D02*
X164195239Y-106961905D01*
X164271429Y-107000000D01*
X164309524Y-107038095D01*
X164347620Y-107114286D01*
X164385715Y-107266667D01*
X164385715Y-107457143D01*
X164347620Y-107609524D01*
X164309524Y-107685714D01*
X164271429Y-107723810D01*
X164195239Y-107761905D01*
X164119048Y-107761905D01*
X164042858Y-107723810D01*
X164004762Y-107685714D01*
X163966667Y-107609524D01*
X163928572Y-107457143D01*
X163928572Y-107266667D01*
X163966667Y-107114286D01*
X164004762Y-107038095D01*
X164042858Y-107000000D01*
X164119048Y-106961905D01*
X164728572Y-107228571D02*
X164728572Y-107761905D01*
X164728572Y-107304762D02*
X164766667Y-107266667D01*
X164842858Y-107228571D01*
X164957144Y-107228571D01*
X165033334Y-107266667D01*
X165071429Y-107342857D01*
X165071429Y-107761905D01*
X165719049Y-107342857D02*
X165452382Y-107342857D01*
X165452382Y-107761905D02*
X165452382Y-106961905D01*
X165833335Y-106961905D01*
X160257143Y-104166666D02*
X160304762Y-104214285D01*
X160352381Y-104357142D01*
X160352381Y-104452380D01*
X160304762Y-104595238D01*
X160209524Y-104690476D01*
X160114286Y-104738095D01*
X159923810Y-104785714D01*
X159780952Y-104785714D01*
X159590476Y-104738095D01*
X159495238Y-104690476D01*
X159400000Y-104595238D01*
X159352381Y-104452380D01*
X159352381Y-104357142D01*
X159400000Y-104214285D01*
X159447619Y-104166666D01*
X159352381Y-103309523D02*
X159352381Y-103500000D01*
X159400000Y-103595238D01*
X159447619Y-103642857D01*
X159590476Y-103738095D01*
X159780952Y-103785714D01*
X160161905Y-103785714D01*
X160257143Y-103738095D01*
X160304762Y-103690476D01*
X160352381Y-103595238D01*
X160352381Y-103404761D01*
X160304762Y-103309523D01*
X160257143Y-103261904D01*
X160161905Y-103214285D01*
X159923810Y-103214285D01*
X159828571Y-103261904D01*
X159780952Y-103309523D01*
X159733333Y-103404761D01*
X159733333Y-103595238D01*
X159780952Y-103690476D01*
X159828571Y-103738095D01*
X159923810Y-103785714D01*
X162861905Y-103461905D02*
X162404762Y-103461905D01*
X162633333Y-103461905D02*
X162633333Y-102661905D01*
X162557143Y-102776190D01*
X162480952Y-102852381D01*
X162404762Y-102890476D01*
X163357143Y-102661905D02*
X163433334Y-102661905D01*
X163509524Y-102700000D01*
X163547619Y-102738095D01*
X163585715Y-102814286D01*
X163623810Y-102966667D01*
X163623810Y-103157143D01*
X163585715Y-103309524D01*
X163547619Y-103385714D01*
X163509524Y-103423810D01*
X163433334Y-103461905D01*
X163357143Y-103461905D01*
X163280953Y-103423810D01*
X163242857Y-103385714D01*
X163204762Y-103309524D01*
X163166667Y-103157143D01*
X163166667Y-102966667D01*
X163204762Y-102814286D01*
X163242857Y-102738095D01*
X163280953Y-102700000D01*
X163357143Y-102661905D01*
X164119048Y-102661905D02*
X164195239Y-102661905D01*
X164271429Y-102700000D01*
X164309524Y-102738095D01*
X164347620Y-102814286D01*
X164385715Y-102966667D01*
X164385715Y-103157143D01*
X164347620Y-103309524D01*
X164309524Y-103385714D01*
X164271429Y-103423810D01*
X164195239Y-103461905D01*
X164119048Y-103461905D01*
X164042858Y-103423810D01*
X164004762Y-103385714D01*
X163966667Y-103309524D01*
X163928572Y-103157143D01*
X163928572Y-102966667D01*
X163966667Y-102814286D01*
X164004762Y-102738095D01*
X164042858Y-102700000D01*
X164119048Y-102661905D01*
X164728572Y-102928571D02*
X164728572Y-103461905D01*
X164728572Y-103004762D02*
X164766667Y-102966667D01*
X164842858Y-102928571D01*
X164957144Y-102928571D01*
X165033334Y-102966667D01*
X165071429Y-103042857D01*
X165071429Y-103461905D01*
X165719049Y-103042857D02*
X165452382Y-103042857D01*
X165452382Y-103461905D02*
X165452382Y-102661905D01*
X165833335Y-102661905D01*
X134257143Y-102266666D02*
X134304762Y-102314285D01*
X134352381Y-102457142D01*
X134352381Y-102552380D01*
X134304762Y-102695238D01*
X134209524Y-102790476D01*
X134114286Y-102838095D01*
X133923810Y-102885714D01*
X133780952Y-102885714D01*
X133590476Y-102838095D01*
X133495238Y-102790476D01*
X133400000Y-102695238D01*
X133352381Y-102552380D01*
X133352381Y-102457142D01*
X133400000Y-102314285D01*
X133447619Y-102266666D01*
X133352381Y-101933333D02*
X133352381Y-101266666D01*
X134352381Y-101695238D01*
X137561905Y-103438095D02*
X137561905Y-103895238D01*
X137561905Y-103666667D02*
X136761905Y-103666667D01*
X136876190Y-103742857D01*
X136952381Y-103819048D01*
X136990476Y-103895238D01*
X136761905Y-102942857D02*
X136761905Y-102866666D01*
X136800000Y-102790476D01*
X136838095Y-102752381D01*
X136914286Y-102714285D01*
X137066667Y-102676190D01*
X137257143Y-102676190D01*
X137409524Y-102714285D01*
X137485714Y-102752381D01*
X137523810Y-102790476D01*
X137561905Y-102866666D01*
X137561905Y-102942857D01*
X137523810Y-103019047D01*
X137485714Y-103057143D01*
X137409524Y-103095238D01*
X137257143Y-103133333D01*
X137066667Y-103133333D01*
X136914286Y-103095238D01*
X136838095Y-103057143D01*
X136800000Y-103019047D01*
X136761905Y-102942857D01*
X136761905Y-102180952D02*
X136761905Y-102104761D01*
X136800000Y-102028571D01*
X136838095Y-101990476D01*
X136914286Y-101952380D01*
X137066667Y-101914285D01*
X137257143Y-101914285D01*
X137409524Y-101952380D01*
X137485714Y-101990476D01*
X137523810Y-102028571D01*
X137561905Y-102104761D01*
X137561905Y-102180952D01*
X137523810Y-102257142D01*
X137485714Y-102295238D01*
X137409524Y-102333333D01*
X137257143Y-102371428D01*
X137066667Y-102371428D01*
X136914286Y-102333333D01*
X136838095Y-102295238D01*
X136800000Y-102257142D01*
X136761905Y-102180952D01*
X137028571Y-101571428D02*
X137561905Y-101571428D01*
X137104762Y-101571428D02*
X137066667Y-101533333D01*
X137028571Y-101457142D01*
X137028571Y-101342856D01*
X137066667Y-101266666D01*
X137142857Y-101228571D01*
X137561905Y-101228571D01*
X137142857Y-100580951D02*
X137142857Y-100847618D01*
X137561905Y-100847618D02*
X136761905Y-100847618D01*
X136761905Y-100466665D01*
X143857143Y-102266666D02*
X143904762Y-102314285D01*
X143952381Y-102457142D01*
X143952381Y-102552380D01*
X143904762Y-102695238D01*
X143809524Y-102790476D01*
X143714286Y-102838095D01*
X143523810Y-102885714D01*
X143380952Y-102885714D01*
X143190476Y-102838095D01*
X143095238Y-102790476D01*
X143000000Y-102695238D01*
X142952381Y-102552380D01*
X142952381Y-102457142D01*
X143000000Y-102314285D01*
X143047619Y-102266666D01*
X143380952Y-101695238D02*
X143333333Y-101790476D01*
X143285714Y-101838095D01*
X143190476Y-101885714D01*
X143142857Y-101885714D01*
X143047619Y-101838095D01*
X143000000Y-101790476D01*
X142952381Y-101695238D01*
X142952381Y-101504761D01*
X143000000Y-101409523D01*
X143047619Y-101361904D01*
X143142857Y-101314285D01*
X143190476Y-101314285D01*
X143285714Y-101361904D01*
X143333333Y-101409523D01*
X143380952Y-101504761D01*
X143380952Y-101695238D01*
X143428571Y-101790476D01*
X143476190Y-101838095D01*
X143571429Y-101885714D01*
X143761905Y-101885714D01*
X143857143Y-101838095D01*
X143904762Y-101790476D01*
X143952381Y-101695238D01*
X143952381Y-101504761D01*
X143904762Y-101409523D01*
X143857143Y-101361904D01*
X143761905Y-101314285D01*
X143571429Y-101314285D01*
X143476190Y-101361904D01*
X143428571Y-101409523D01*
X143380952Y-101504761D01*
X142361905Y-103438095D02*
X142361905Y-103895238D01*
X142361905Y-103666667D02*
X141561905Y-103666667D01*
X141676190Y-103742857D01*
X141752381Y-103819048D01*
X141790476Y-103895238D01*
X141561905Y-102942857D02*
X141561905Y-102866666D01*
X141600000Y-102790476D01*
X141638095Y-102752381D01*
X141714286Y-102714285D01*
X141866667Y-102676190D01*
X142057143Y-102676190D01*
X142209524Y-102714285D01*
X142285714Y-102752381D01*
X142323810Y-102790476D01*
X142361905Y-102866666D01*
X142361905Y-102942857D01*
X142323810Y-103019047D01*
X142285714Y-103057143D01*
X142209524Y-103095238D01*
X142057143Y-103133333D01*
X141866667Y-103133333D01*
X141714286Y-103095238D01*
X141638095Y-103057143D01*
X141600000Y-103019047D01*
X141561905Y-102942857D01*
X141561905Y-102180952D02*
X141561905Y-102104761D01*
X141600000Y-102028571D01*
X141638095Y-101990476D01*
X141714286Y-101952380D01*
X141866667Y-101914285D01*
X142057143Y-101914285D01*
X142209524Y-101952380D01*
X142285714Y-101990476D01*
X142323810Y-102028571D01*
X142361905Y-102104761D01*
X142361905Y-102180952D01*
X142323810Y-102257142D01*
X142285714Y-102295238D01*
X142209524Y-102333333D01*
X142057143Y-102371428D01*
X141866667Y-102371428D01*
X141714286Y-102333333D01*
X141638095Y-102295238D01*
X141600000Y-102257142D01*
X141561905Y-102180952D01*
X141828571Y-101571428D02*
X142361905Y-101571428D01*
X141904762Y-101571428D02*
X141866667Y-101533333D01*
X141828571Y-101457142D01*
X141828571Y-101342856D01*
X141866667Y-101266666D01*
X141942857Y-101228571D01*
X142361905Y-101228571D01*
X141942857Y-100580951D02*
X141942857Y-100847618D01*
X142361905Y-100847618D02*
X141561905Y-100847618D01*
X141561905Y-100466665D01*
X157557143Y-61342857D02*
X157604762Y-61390476D01*
X157652381Y-61533333D01*
X157652381Y-61628571D01*
X157604762Y-61771429D01*
X157509524Y-61866667D01*
X157414286Y-61914286D01*
X157223810Y-61961905D01*
X157080952Y-61961905D01*
X156890476Y-61914286D01*
X156795238Y-61866667D01*
X156700000Y-61771429D01*
X156652381Y-61628571D01*
X156652381Y-61533333D01*
X156700000Y-61390476D01*
X156747619Y-61342857D01*
X157652381Y-60390476D02*
X157652381Y-60961905D01*
X157652381Y-60676191D02*
X156652381Y-60676191D01*
X156795238Y-60771429D01*
X156890476Y-60866667D01*
X156938095Y-60961905D01*
X156747619Y-60009524D02*
X156700000Y-59961905D01*
X156652381Y-59866667D01*
X156652381Y-59628571D01*
X156700000Y-59533333D01*
X156747619Y-59485714D01*
X156842857Y-59438095D01*
X156938095Y-59438095D01*
X157080952Y-59485714D01*
X157652381Y-60057143D01*
X157652381Y-59438095D01*
X161161905Y-61276190D02*
X161161905Y-61733333D01*
X161161905Y-61504762D02*
X160361905Y-61504762D01*
X160476190Y-61580952D01*
X160552381Y-61657143D01*
X160590476Y-61733333D01*
X160628571Y-60590476D02*
X161161905Y-60590476D01*
X160628571Y-60933333D02*
X161047619Y-60933333D01*
X161123810Y-60895238D01*
X161161905Y-60819047D01*
X161161905Y-60704761D01*
X161123810Y-60628571D01*
X161085714Y-60590476D01*
X160742857Y-59942856D02*
X160742857Y-60209523D01*
X161161905Y-60209523D02*
X160361905Y-60209523D01*
X160361905Y-59828570D01*
X138161905Y-120552381D02*
X138161905Y-119552381D01*
X138400000Y-119552381D01*
X138542858Y-119600000D01*
X138638096Y-119695238D01*
X138685715Y-119790476D01*
X138733334Y-119980952D01*
X138733334Y-120123810D01*
X138685715Y-120314286D01*
X138638096Y-120409524D01*
X138542858Y-120504762D01*
X138400000Y-120552381D01*
X138161905Y-120552381D01*
X139685715Y-120552381D02*
X139114286Y-120552381D01*
X139400000Y-120552381D02*
X139400000Y-119552381D01*
X139304762Y-119695238D01*
X139209524Y-119790476D01*
X139114286Y-119838095D01*
X137833334Y-86552381D02*
X137500000Y-86076190D01*
X137261905Y-86552381D02*
X137261905Y-85552381D01*
X137642858Y-85552381D01*
X137738096Y-85600000D01*
X137785715Y-85647619D01*
X137833334Y-85742857D01*
X137833334Y-85885714D01*
X137785715Y-85980952D01*
X137738096Y-86028571D01*
X137642858Y-86076190D01*
X137261905Y-86076190D01*
X138785715Y-86552381D02*
X138214286Y-86552381D01*
X138500000Y-86552381D02*
X138500000Y-85552381D01*
X138404762Y-85695238D01*
X138309524Y-85790476D01*
X138214286Y-85838095D01*
X137488095Y-92866667D02*
X137450000Y-92828572D01*
X137411905Y-92752381D01*
X137411905Y-92561905D01*
X137450000Y-92485715D01*
X137488095Y-92447619D01*
X137564286Y-92409524D01*
X137640476Y-92409524D01*
X137754762Y-92447619D01*
X138211905Y-92904762D01*
X138211905Y-92409524D01*
X138211905Y-92066667D02*
X137411905Y-92066667D01*
X137983333Y-91800000D01*
X137411905Y-91533333D01*
X138211905Y-91533333D01*
X137411905Y-91228571D02*
X137411905Y-90695238D01*
X138211905Y-91038095D01*
X141333334Y-86552381D02*
X141000000Y-86076190D01*
X140761905Y-86552381D02*
X140761905Y-85552381D01*
X141142858Y-85552381D01*
X141238096Y-85600000D01*
X141285715Y-85647619D01*
X141333334Y-85742857D01*
X141333334Y-85885714D01*
X141285715Y-85980952D01*
X141238096Y-86028571D01*
X141142858Y-86076190D01*
X140761905Y-86076190D01*
X141714286Y-85647619D02*
X141761905Y-85600000D01*
X141857143Y-85552381D01*
X142095239Y-85552381D01*
X142190477Y-85600000D01*
X142238096Y-85647619D01*
X142285715Y-85742857D01*
X142285715Y-85838095D01*
X142238096Y-85980952D01*
X141666667Y-86552381D01*
X142285715Y-86552381D01*
X141861905Y-91928571D02*
X141861905Y-92385714D01*
X141861905Y-92157143D02*
X141061905Y-92157143D01*
X141176190Y-92233333D01*
X141252381Y-92309524D01*
X141290476Y-92385714D01*
X141861905Y-91585714D02*
X141061905Y-91585714D01*
X141633333Y-91319047D01*
X141061905Y-91052380D01*
X141861905Y-91052380D01*
X168552381Y-106366666D02*
X168076190Y-106700000D01*
X168552381Y-106938095D02*
X167552381Y-106938095D01*
X167552381Y-106557142D01*
X167600000Y-106461904D01*
X167647619Y-106414285D01*
X167742857Y-106366666D01*
X167885714Y-106366666D01*
X167980952Y-106414285D01*
X168028571Y-106461904D01*
X168076190Y-106557142D01*
X168076190Y-106938095D01*
X167552381Y-106033333D02*
X167552381Y-105414285D01*
X167933333Y-105747619D01*
X167933333Y-105604761D01*
X167980952Y-105509523D01*
X168028571Y-105461904D01*
X168123810Y-105414285D01*
X168361905Y-105414285D01*
X168457143Y-105461904D01*
X168504762Y-105509523D01*
X168552381Y-105604761D01*
X168552381Y-105890476D01*
X168504762Y-105985714D01*
X168457143Y-106033333D01*
X170552381Y-106990476D02*
X170552381Y-107561905D01*
X170552381Y-107276191D02*
X169552381Y-107276191D01*
X169695238Y-107371429D01*
X169790476Y-107466667D01*
X169838095Y-107561905D01*
X169552381Y-106371429D02*
X169552381Y-106276190D01*
X169600000Y-106180952D01*
X169647619Y-106133333D01*
X169742857Y-106085714D01*
X169933333Y-106038095D01*
X170171429Y-106038095D01*
X170361905Y-106085714D01*
X170457143Y-106133333D01*
X170504762Y-106180952D01*
X170552381Y-106276190D01*
X170552381Y-106371429D01*
X170504762Y-106466667D01*
X170457143Y-106514286D01*
X170361905Y-106561905D01*
X170171429Y-106609524D01*
X169933333Y-106609524D01*
X169742857Y-106561905D01*
X169647619Y-106514286D01*
X169600000Y-106466667D01*
X169552381Y-106371429D01*
X170552381Y-105609524D02*
X169552381Y-105609524D01*
X170552381Y-105038095D02*
X169980952Y-105466667D01*
X169552381Y-105038095D02*
X170123810Y-105609524D01*
X167133334Y-120152381D02*
X166800000Y-119676190D01*
X166561905Y-120152381D02*
X166561905Y-119152381D01*
X166942858Y-119152381D01*
X167038096Y-119200000D01*
X167085715Y-119247619D01*
X167133334Y-119342857D01*
X167133334Y-119485714D01*
X167085715Y-119580952D01*
X167038096Y-119628571D01*
X166942858Y-119676190D01*
X166561905Y-119676190D01*
X167990477Y-119485714D02*
X167990477Y-120152381D01*
X167752381Y-119104762D02*
X167514286Y-119819048D01*
X168133334Y-119819048D01*
X164809524Y-117952381D02*
X164238095Y-117952381D01*
X164523809Y-117952381D02*
X164523809Y-116952381D01*
X164428571Y-117095238D01*
X164333333Y-117190476D01*
X164238095Y-117238095D01*
X165428571Y-116952381D02*
X165523810Y-116952381D01*
X165619048Y-117000000D01*
X165666667Y-117047619D01*
X165714286Y-117142857D01*
X165761905Y-117333333D01*
X165761905Y-117571429D01*
X165714286Y-117761905D01*
X165666667Y-117857143D01*
X165619048Y-117904762D01*
X165523810Y-117952381D01*
X165428571Y-117952381D01*
X165333333Y-117904762D01*
X165285714Y-117857143D01*
X165238095Y-117761905D01*
X165190476Y-117571429D01*
X165190476Y-117333333D01*
X165238095Y-117142857D01*
X165285714Y-117047619D01*
X165333333Y-117000000D01*
X165428571Y-116952381D01*
X166190476Y-117952381D02*
X166190476Y-116952381D01*
X166761905Y-117952381D02*
X166333333Y-117380952D01*
X166761905Y-116952381D02*
X166190476Y-117523810D01*
X159852381Y-88066666D02*
X159376190Y-88400000D01*
X159852381Y-88638095D02*
X158852381Y-88638095D01*
X158852381Y-88257142D01*
X158900000Y-88161904D01*
X158947619Y-88114285D01*
X159042857Y-88066666D01*
X159185714Y-88066666D01*
X159280952Y-88114285D01*
X159328571Y-88161904D01*
X159376190Y-88257142D01*
X159376190Y-88638095D01*
X158852381Y-87161904D02*
X158852381Y-87638095D01*
X159328571Y-87685714D01*
X159280952Y-87638095D01*
X159233333Y-87542857D01*
X159233333Y-87304761D01*
X159280952Y-87209523D01*
X159328571Y-87161904D01*
X159423810Y-87114285D01*
X159661905Y-87114285D01*
X159757143Y-87161904D01*
X159804762Y-87209523D01*
X159852381Y-87304761D01*
X159852381Y-87542857D01*
X159804762Y-87638095D01*
X159757143Y-87685714D01*
X164509524Y-88252381D02*
X163938095Y-88252381D01*
X164223809Y-88252381D02*
X164223809Y-87252381D01*
X164128571Y-87395238D01*
X164033333Y-87490476D01*
X163938095Y-87538095D01*
X165128571Y-87252381D02*
X165223810Y-87252381D01*
X165319048Y-87300000D01*
X165366667Y-87347619D01*
X165414286Y-87442857D01*
X165461905Y-87633333D01*
X165461905Y-87871429D01*
X165414286Y-88061905D01*
X165366667Y-88157143D01*
X165319048Y-88204762D01*
X165223810Y-88252381D01*
X165128571Y-88252381D01*
X165033333Y-88204762D01*
X164985714Y-88157143D01*
X164938095Y-88061905D01*
X164890476Y-87871429D01*
X164890476Y-87633333D01*
X164938095Y-87442857D01*
X164985714Y-87347619D01*
X165033333Y-87300000D01*
X165128571Y-87252381D01*
X165890476Y-88252381D02*
X165890476Y-87252381D01*
X166461905Y-88252381D02*
X166033333Y-87680952D01*
X166461905Y-87252381D02*
X165890476Y-87823810D01*
X144833334Y-86552381D02*
X144500000Y-86076190D01*
X144261905Y-86552381D02*
X144261905Y-85552381D01*
X144642858Y-85552381D01*
X144738096Y-85600000D01*
X144785715Y-85647619D01*
X144833334Y-85742857D01*
X144833334Y-85885714D01*
X144785715Y-85980952D01*
X144738096Y-86028571D01*
X144642858Y-86076190D01*
X144261905Y-86076190D01*
X145404762Y-85980952D02*
X145309524Y-85933333D01*
X145261905Y-85885714D01*
X145214286Y-85790476D01*
X145214286Y-85742857D01*
X145261905Y-85647619D01*
X145309524Y-85600000D01*
X145404762Y-85552381D01*
X145595239Y-85552381D01*
X145690477Y-85600000D01*
X145738096Y-85647619D01*
X145785715Y-85742857D01*
X145785715Y-85790476D01*
X145738096Y-85885714D01*
X145690477Y-85933333D01*
X145595239Y-85980952D01*
X145404762Y-85980952D01*
X145309524Y-86028571D01*
X145261905Y-86076190D01*
X145214286Y-86171429D01*
X145214286Y-86361905D01*
X145261905Y-86457143D01*
X145309524Y-86504762D01*
X145404762Y-86552381D01*
X145595239Y-86552381D01*
X145690477Y-86504762D01*
X145738096Y-86457143D01*
X145785715Y-86361905D01*
X145785715Y-86171429D01*
X145738096Y-86076190D01*
X145690477Y-86028571D01*
X145595239Y-85980952D01*
X145352381Y-92490476D02*
X145352381Y-93061905D01*
X145352381Y-92776191D02*
X144352381Y-92776191D01*
X144495238Y-92871429D01*
X144590476Y-92966667D01*
X144638095Y-93061905D01*
X144352381Y-91871429D02*
X144352381Y-91776190D01*
X144400000Y-91680952D01*
X144447619Y-91633333D01*
X144542857Y-91585714D01*
X144733333Y-91538095D01*
X144971429Y-91538095D01*
X145161905Y-91585714D01*
X145257143Y-91633333D01*
X145304762Y-91680952D01*
X145352381Y-91776190D01*
X145352381Y-91871429D01*
X145304762Y-91966667D01*
X145257143Y-92014286D01*
X145161905Y-92061905D01*
X144971429Y-92109524D01*
X144733333Y-92109524D01*
X144542857Y-92061905D01*
X144447619Y-92014286D01*
X144400000Y-91966667D01*
X144352381Y-91871429D01*
X145352381Y-91109524D02*
X144352381Y-91109524D01*
X145352381Y-90538095D02*
X144780952Y-90966667D01*
X144352381Y-90538095D02*
X144923810Y-91109524D01*
X146552381Y-118561905D02*
X147361905Y-118561905D01*
X147457143Y-118514286D01*
X147504762Y-118466667D01*
X147552381Y-118371429D01*
X147552381Y-118180952D01*
X147504762Y-118085714D01*
X147457143Y-118038095D01*
X147361905Y-117990476D01*
X146552381Y-117990476D01*
X146647619Y-117561905D02*
X146600000Y-117514286D01*
X146552381Y-117419048D01*
X146552381Y-117180952D01*
X146600000Y-117085714D01*
X146647619Y-117038095D01*
X146742857Y-116990476D01*
X146838095Y-116990476D01*
X146980952Y-117038095D01*
X147552381Y-117609524D01*
X147552381Y-116990476D01*
X153166667Y-106342857D02*
X153166667Y-105866666D01*
X153452381Y-106438095D02*
X152452381Y-106104762D01*
X153452381Y-105771428D01*
X152452381Y-105580952D02*
X152452381Y-105009523D01*
X153452381Y-105295238D02*
X152452381Y-105295238D01*
X153452381Y-104676190D02*
X152452381Y-104676190D01*
X153166667Y-104342856D01*
X152452381Y-104009523D01*
X153452381Y-104009523D01*
X152928571Y-103533333D02*
X152928571Y-103199999D01*
X153452381Y-103057142D02*
X153452381Y-103533333D01*
X152452381Y-103533333D01*
X152452381Y-103057142D01*
X152500000Y-102104761D02*
X152452381Y-102199999D01*
X152452381Y-102342856D01*
X152500000Y-102485714D01*
X152595238Y-102580952D01*
X152690476Y-102628571D01*
X152880952Y-102676190D01*
X153023810Y-102676190D01*
X153214286Y-102628571D01*
X153309524Y-102580952D01*
X153404762Y-102485714D01*
X153452381Y-102342856D01*
X153452381Y-102247618D01*
X153404762Y-102104761D01*
X153357143Y-102057142D01*
X153023810Y-102057142D01*
X153023810Y-102247618D01*
X153166667Y-101676190D02*
X153166667Y-101199999D01*
X153452381Y-101771428D02*
X152452381Y-101438095D01*
X153452381Y-101104761D01*
X152452381Y-100866666D02*
X152452381Y-100247618D01*
X152833333Y-100580952D01*
X152833333Y-100438094D01*
X152880952Y-100342856D01*
X152928571Y-100295237D01*
X153023810Y-100247618D01*
X153261905Y-100247618D01*
X153357143Y-100295237D01*
X153404762Y-100342856D01*
X153452381Y-100438094D01*
X153452381Y-100723809D01*
X153404762Y-100819047D01*
X153357143Y-100866666D01*
X152547619Y-99866666D02*
X152500000Y-99819047D01*
X152452381Y-99723809D01*
X152452381Y-99485713D01*
X152500000Y-99390475D01*
X152547619Y-99342856D01*
X152642857Y-99295237D01*
X152738095Y-99295237D01*
X152880952Y-99342856D01*
X153452381Y-99914285D01*
X153452381Y-99295237D01*
X152880952Y-98723809D02*
X152833333Y-98819047D01*
X152785714Y-98866666D01*
X152690476Y-98914285D01*
X152642857Y-98914285D01*
X152547619Y-98866666D01*
X152500000Y-98819047D01*
X152452381Y-98723809D01*
X152452381Y-98533332D01*
X152500000Y-98438094D01*
X152547619Y-98390475D01*
X152642857Y-98342856D01*
X152690476Y-98342856D01*
X152785714Y-98390475D01*
X152833333Y-98438094D01*
X152880952Y-98533332D01*
X152880952Y-98723809D01*
X152928571Y-98819047D01*
X152976190Y-98866666D01*
X153071429Y-98914285D01*
X153261905Y-98914285D01*
X153357143Y-98866666D01*
X153404762Y-98819047D01*
X153452381Y-98723809D01*
X153452381Y-98533332D01*
X153404762Y-98438094D01*
X153357143Y-98390475D01*
X153261905Y-98342856D01*
X153071429Y-98342856D01*
X152976190Y-98390475D01*
X152928571Y-98438094D01*
X152880952Y-98533332D01*
X153452381Y-97914285D02*
X152452381Y-97914285D01*
X152452381Y-97533332D01*
X152500000Y-97438094D01*
X152547619Y-97390475D01*
X152642857Y-97342856D01*
X152785714Y-97342856D01*
X152880952Y-97390475D01*
X152928571Y-97438094D01*
X152976190Y-97533332D01*
X152976190Y-97914285D01*
X153071429Y-96914285D02*
X153071429Y-96152380D01*
X153452381Y-95676190D02*
X152452381Y-95676190D01*
X152452381Y-95295237D01*
X152500000Y-95199999D01*
X152547619Y-95152380D01*
X152642857Y-95104761D01*
X152785714Y-95104761D01*
X152880952Y-95152380D01*
X152928571Y-95199999D01*
X152976190Y-95295237D01*
X152976190Y-95676190D01*
X152452381Y-94676190D02*
X153261905Y-94676190D01*
X153357143Y-94628571D01*
X153404762Y-94580952D01*
X153452381Y-94485714D01*
X153452381Y-94295237D01*
X153404762Y-94199999D01*
X153357143Y-94152380D01*
X153261905Y-94104761D01*
X152452381Y-94104761D01*
X159052381Y-91609524D02*
X160052381Y-90942857D01*
X159052381Y-90942857D02*
X160052381Y-91609524D01*
X160052381Y-90038095D02*
X160052381Y-90609524D01*
X160052381Y-90323810D02*
X159052381Y-90323810D01*
X159195238Y-90419048D01*
X159290476Y-90514286D01*
X159338095Y-90609524D01*
X164161905Y-97352381D02*
X164161905Y-97809524D01*
X164161905Y-97580953D02*
X163361905Y-97580953D01*
X163476190Y-97657143D01*
X163552381Y-97733334D01*
X163590476Y-97809524D01*
X163361905Y-96666667D02*
X163361905Y-96819048D01*
X163400000Y-96895238D01*
X163438095Y-96933333D01*
X163552381Y-97009524D01*
X163704762Y-97047619D01*
X164009524Y-97047619D01*
X164085714Y-97009524D01*
X164123810Y-96971429D01*
X164161905Y-96895238D01*
X164161905Y-96742857D01*
X164123810Y-96666667D01*
X164085714Y-96628571D01*
X164009524Y-96590476D01*
X163819048Y-96590476D01*
X163742857Y-96628571D01*
X163704762Y-96666667D01*
X163666667Y-96742857D01*
X163666667Y-96895238D01*
X163704762Y-96971429D01*
X163742857Y-97009524D01*
X163819048Y-97047619D01*
X164161905Y-96247619D02*
X163361905Y-96247619D01*
X163933333Y-95980952D01*
X163361905Y-95714285D01*
X164161905Y-95714285D01*
X164161905Y-95333333D02*
X163361905Y-95333333D01*
X163742857Y-95333333D02*
X163742857Y-94876190D01*
X164161905Y-94876190D02*
X163361905Y-94876190D01*
X163628571Y-94571428D02*
X163628571Y-94152381D01*
X164161905Y-94571428D01*
X164161905Y-94152381D01*
X140333334Y-77457143D02*
X140285715Y-77504762D01*
X140142858Y-77552381D01*
X140047620Y-77552381D01*
X139904762Y-77504762D01*
X139809524Y-77409524D01*
X139761905Y-77314286D01*
X139714286Y-77123810D01*
X139714286Y-76980952D01*
X139761905Y-76790476D01*
X139809524Y-76695238D01*
X139904762Y-76600000D01*
X140047620Y-76552381D01*
X140142858Y-76552381D01*
X140285715Y-76600000D01*
X140333334Y-76647619D01*
X141190477Y-76885714D02*
X141190477Y-77552381D01*
X140952381Y-76504762D02*
X140714286Y-77219048D01*
X141333334Y-77219048D01*
X140861905Y-81876190D02*
X140861905Y-82333333D01*
X140861905Y-82104762D02*
X140061905Y-82104762D01*
X140176190Y-82180952D01*
X140252381Y-82257143D01*
X140290476Y-82333333D01*
X140328571Y-81190476D02*
X140861905Y-81190476D01*
X140328571Y-81533333D02*
X140747619Y-81533333D01*
X140823810Y-81495238D01*
X140861905Y-81419047D01*
X140861905Y-81304761D01*
X140823810Y-81228571D01*
X140785714Y-81190476D01*
X140442857Y-80542856D02*
X140442857Y-80809523D01*
X140861905Y-80809523D02*
X140061905Y-80809523D01*
X140061905Y-80428570D01*
X132257143Y-65142857D02*
X132304762Y-65190476D01*
X132352381Y-65333333D01*
X132352381Y-65428571D01*
X132304762Y-65571429D01*
X132209524Y-65666667D01*
X132114286Y-65714286D01*
X131923810Y-65761905D01*
X131780952Y-65761905D01*
X131590476Y-65714286D01*
X131495238Y-65666667D01*
X131400000Y-65571429D01*
X131352381Y-65428571D01*
X131352381Y-65333333D01*
X131400000Y-65190476D01*
X131447619Y-65142857D01*
X132352381Y-64190476D02*
X132352381Y-64761905D01*
X132352381Y-64476191D02*
X131352381Y-64476191D01*
X131495238Y-64571429D01*
X131590476Y-64666667D01*
X131638095Y-64761905D01*
X132352381Y-63238095D02*
X132352381Y-63809524D01*
X132352381Y-63523810D02*
X131352381Y-63523810D01*
X131495238Y-63619048D01*
X131590476Y-63714286D01*
X131638095Y-63809524D01*
X137061905Y-65738095D02*
X137061905Y-66195238D01*
X137061905Y-65966667D02*
X136261905Y-65966667D01*
X136376190Y-66042857D01*
X136452381Y-66119048D01*
X136490476Y-66195238D01*
X136261905Y-65242857D02*
X136261905Y-65166666D01*
X136300000Y-65090476D01*
X136338095Y-65052381D01*
X136414286Y-65014285D01*
X136566667Y-64976190D01*
X136757143Y-64976190D01*
X136909524Y-65014285D01*
X136985714Y-65052381D01*
X137023810Y-65090476D01*
X137061905Y-65166666D01*
X137061905Y-65242857D01*
X137023810Y-65319047D01*
X136985714Y-65357143D01*
X136909524Y-65395238D01*
X136757143Y-65433333D01*
X136566667Y-65433333D01*
X136414286Y-65395238D01*
X136338095Y-65357143D01*
X136300000Y-65319047D01*
X136261905Y-65242857D01*
X136261905Y-64480952D02*
X136261905Y-64404761D01*
X136300000Y-64328571D01*
X136338095Y-64290476D01*
X136414286Y-64252380D01*
X136566667Y-64214285D01*
X136757143Y-64214285D01*
X136909524Y-64252380D01*
X136985714Y-64290476D01*
X137023810Y-64328571D01*
X137061905Y-64404761D01*
X137061905Y-64480952D01*
X137023810Y-64557142D01*
X136985714Y-64595238D01*
X136909524Y-64633333D01*
X136757143Y-64671428D01*
X136566667Y-64671428D01*
X136414286Y-64633333D01*
X136338095Y-64595238D01*
X136300000Y-64557142D01*
X136261905Y-64480952D01*
X136528571Y-63871428D02*
X137061905Y-63871428D01*
X136604762Y-63871428D02*
X136566667Y-63833333D01*
X136528571Y-63757142D01*
X136528571Y-63642856D01*
X136566667Y-63566666D01*
X136642857Y-63528571D01*
X137061905Y-63528571D01*
X136642857Y-62880951D02*
X136642857Y-63147618D01*
X137061905Y-63147618D02*
X136261905Y-63147618D01*
X136261905Y-62766665D01*
X121552381Y-71209524D02*
X122552381Y-70542857D01*
X121552381Y-70542857D02*
X122552381Y-71209524D01*
X121647619Y-70209524D02*
X121600000Y-70161905D01*
X121552381Y-70066667D01*
X121552381Y-69828571D01*
X121600000Y-69733333D01*
X121647619Y-69685714D01*
X121742857Y-69638095D01*
X121838095Y-69638095D01*
X121980952Y-69685714D01*
X122552381Y-70257143D01*
X122552381Y-69638095D01*
X131733334Y-97617143D02*
X131685715Y-97664762D01*
X131542858Y-97712381D01*
X131447620Y-97712381D01*
X131304762Y-97664762D01*
X131209524Y-97569524D01*
X131161905Y-97474286D01*
X131114286Y-97283810D01*
X131114286Y-97140952D01*
X131161905Y-96950476D01*
X131209524Y-96855238D01*
X131304762Y-96760000D01*
X131447620Y-96712381D01*
X131542858Y-96712381D01*
X131685715Y-96760000D01*
X131733334Y-96807619D01*
X132685715Y-97712381D02*
X132114286Y-97712381D01*
X132400000Y-97712381D02*
X132400000Y-96712381D01*
X132304762Y-96855238D01*
X132209524Y-96950476D01*
X132114286Y-96998095D01*
X130711905Y-94011905D02*
X130254762Y-94011905D01*
X130483333Y-94011905D02*
X130483333Y-93211905D01*
X130407143Y-93326190D01*
X130330952Y-93402381D01*
X130254762Y-93440476D01*
X131207143Y-93211905D02*
X131283334Y-93211905D01*
X131359524Y-93250000D01*
X131397619Y-93288095D01*
X131435715Y-93364286D01*
X131473810Y-93516667D01*
X131473810Y-93707143D01*
X131435715Y-93859524D01*
X131397619Y-93935714D01*
X131359524Y-93973810D01*
X131283334Y-94011905D01*
X131207143Y-94011905D01*
X131130953Y-93973810D01*
X131092857Y-93935714D01*
X131054762Y-93859524D01*
X131016667Y-93707143D01*
X131016667Y-93516667D01*
X131054762Y-93364286D01*
X131092857Y-93288095D01*
X131130953Y-93250000D01*
X131207143Y-93211905D01*
X131969048Y-93211905D02*
X132045239Y-93211905D01*
X132121429Y-93250000D01*
X132159524Y-93288095D01*
X132197620Y-93364286D01*
X132235715Y-93516667D01*
X132235715Y-93707143D01*
X132197620Y-93859524D01*
X132159524Y-93935714D01*
X132121429Y-93973810D01*
X132045239Y-94011905D01*
X131969048Y-94011905D01*
X131892858Y-93973810D01*
X131854762Y-93935714D01*
X131816667Y-93859524D01*
X131778572Y-93707143D01*
X131778572Y-93516667D01*
X131816667Y-93364286D01*
X131854762Y-93288095D01*
X131892858Y-93250000D01*
X131969048Y-93211905D01*
X132578572Y-93478571D02*
X132578572Y-94011905D01*
X132578572Y-93554762D02*
X132616667Y-93516667D01*
X132692858Y-93478571D01*
X132807144Y-93478571D01*
X132883334Y-93516667D01*
X132921429Y-93592857D01*
X132921429Y-94011905D01*
X133569049Y-93592857D02*
X133302382Y-93592857D01*
X133302382Y-94011905D02*
X133302382Y-93211905D01*
X133683335Y-93211905D01*
X131783334Y-91617143D02*
X131735715Y-91664762D01*
X131592858Y-91712381D01*
X131497620Y-91712381D01*
X131354762Y-91664762D01*
X131259524Y-91569524D01*
X131211905Y-91474286D01*
X131164286Y-91283810D01*
X131164286Y-91140952D01*
X131211905Y-90950476D01*
X131259524Y-90855238D01*
X131354762Y-90760000D01*
X131497620Y-90712381D01*
X131592858Y-90712381D01*
X131735715Y-90760000D01*
X131783334Y-90807619D01*
X132164286Y-90807619D02*
X132211905Y-90760000D01*
X132307143Y-90712381D01*
X132545239Y-90712381D01*
X132640477Y-90760000D01*
X132688096Y-90807619D01*
X132735715Y-90902857D01*
X132735715Y-90998095D01*
X132688096Y-91140952D01*
X132116667Y-91712381D01*
X132735715Y-91712381D01*
X129823810Y-84961905D02*
X129366667Y-84961905D01*
X129595238Y-84961905D02*
X129595238Y-84161905D01*
X129519048Y-84276190D01*
X129442857Y-84352381D01*
X129366667Y-84390476D01*
X130509524Y-84428571D02*
X130509524Y-84961905D01*
X130166667Y-84428571D02*
X130166667Y-84847619D01*
X130204762Y-84923810D01*
X130280953Y-84961905D01*
X130395239Y-84961905D01*
X130471429Y-84923810D01*
X130509524Y-84885714D01*
X131157144Y-84542857D02*
X130890477Y-84542857D01*
X130890477Y-84961905D02*
X130890477Y-84161905D01*
X131271430Y-84161905D01*
X134433334Y-83817143D02*
X134385715Y-83864762D01*
X134242858Y-83912381D01*
X134147620Y-83912381D01*
X134004762Y-83864762D01*
X133909524Y-83769524D01*
X133861905Y-83674286D01*
X133814286Y-83483810D01*
X133814286Y-83340952D01*
X133861905Y-83150476D01*
X133909524Y-83055238D01*
X134004762Y-82960000D01*
X134147620Y-82912381D01*
X134242858Y-82912381D01*
X134385715Y-82960000D01*
X134433334Y-83007619D01*
X134766667Y-82912381D02*
X135385715Y-82912381D01*
X135052381Y-83293333D01*
X135195239Y-83293333D01*
X135290477Y-83340952D01*
X135338096Y-83388571D01*
X135385715Y-83483810D01*
X135385715Y-83721905D01*
X135338096Y-83817143D01*
X135290477Y-83864762D01*
X135195239Y-83912381D01*
X134909524Y-83912381D01*
X134814286Y-83864762D01*
X134766667Y-83817143D01*
X133742857Y-77701905D02*
X133285714Y-77701905D01*
X133514285Y-77701905D02*
X133514285Y-76901905D01*
X133438095Y-77016190D01*
X133361904Y-77092381D01*
X133285714Y-77130476D01*
X134238095Y-76901905D02*
X134314286Y-76901905D01*
X134390476Y-76940000D01*
X134428571Y-76978095D01*
X134466667Y-77054286D01*
X134504762Y-77206667D01*
X134504762Y-77397143D01*
X134466667Y-77549524D01*
X134428571Y-77625714D01*
X134390476Y-77663810D01*
X134314286Y-77701905D01*
X134238095Y-77701905D01*
X134161905Y-77663810D01*
X134123809Y-77625714D01*
X134085714Y-77549524D01*
X134047619Y-77397143D01*
X134047619Y-77206667D01*
X134085714Y-77054286D01*
X134123809Y-76978095D01*
X134161905Y-76940000D01*
X134238095Y-76901905D01*
X135190476Y-77168571D02*
X135190476Y-77701905D01*
X134847619Y-77168571D02*
X134847619Y-77587619D01*
X134885714Y-77663810D01*
X134961905Y-77701905D01*
X135076191Y-77701905D01*
X135152381Y-77663810D01*
X135190476Y-77625714D01*
X135838096Y-77282857D02*
X135571429Y-77282857D01*
X135571429Y-77701905D02*
X135571429Y-76901905D01*
X135952382Y-76901905D01*
X167717143Y-61342857D02*
X167764762Y-61390476D01*
X167812381Y-61533333D01*
X167812381Y-61628571D01*
X167764762Y-61771429D01*
X167669524Y-61866667D01*
X167574286Y-61914286D01*
X167383810Y-61961905D01*
X167240952Y-61961905D01*
X167050476Y-61914286D01*
X166955238Y-61866667D01*
X166860000Y-61771429D01*
X166812381Y-61628571D01*
X166812381Y-61533333D01*
X166860000Y-61390476D01*
X166907619Y-61342857D01*
X167812381Y-60390476D02*
X167812381Y-60961905D01*
X167812381Y-60676191D02*
X166812381Y-60676191D01*
X166955238Y-60771429D01*
X167050476Y-60866667D01*
X167098095Y-60961905D01*
X166812381Y-60057143D02*
X166812381Y-59438095D01*
X167193333Y-59771429D01*
X167193333Y-59628571D01*
X167240952Y-59533333D01*
X167288571Y-59485714D01*
X167383810Y-59438095D01*
X167621905Y-59438095D01*
X167717143Y-59485714D01*
X167764762Y-59533333D01*
X167812381Y-59628571D01*
X167812381Y-59914286D01*
X167764762Y-60009524D01*
X167717143Y-60057143D01*
X165961905Y-61938095D02*
X165961905Y-62395238D01*
X165961905Y-62166667D02*
X165161905Y-62166667D01*
X165276190Y-62242857D01*
X165352381Y-62319048D01*
X165390476Y-62395238D01*
X165161905Y-61442857D02*
X165161905Y-61366666D01*
X165200000Y-61290476D01*
X165238095Y-61252381D01*
X165314286Y-61214285D01*
X165466667Y-61176190D01*
X165657143Y-61176190D01*
X165809524Y-61214285D01*
X165885714Y-61252381D01*
X165923810Y-61290476D01*
X165961905Y-61366666D01*
X165961905Y-61442857D01*
X165923810Y-61519047D01*
X165885714Y-61557143D01*
X165809524Y-61595238D01*
X165657143Y-61633333D01*
X165466667Y-61633333D01*
X165314286Y-61595238D01*
X165238095Y-61557143D01*
X165200000Y-61519047D01*
X165161905Y-61442857D01*
X165161905Y-60680952D02*
X165161905Y-60604761D01*
X165200000Y-60528571D01*
X165238095Y-60490476D01*
X165314286Y-60452380D01*
X165466667Y-60414285D01*
X165657143Y-60414285D01*
X165809524Y-60452380D01*
X165885714Y-60490476D01*
X165923810Y-60528571D01*
X165961905Y-60604761D01*
X165961905Y-60680952D01*
X165923810Y-60757142D01*
X165885714Y-60795238D01*
X165809524Y-60833333D01*
X165657143Y-60871428D01*
X165466667Y-60871428D01*
X165314286Y-60833333D01*
X165238095Y-60795238D01*
X165200000Y-60757142D01*
X165161905Y-60680952D01*
X165428571Y-60071428D02*
X165961905Y-60071428D01*
X165504762Y-60071428D02*
X165466667Y-60033333D01*
X165428571Y-59957142D01*
X165428571Y-59842856D01*
X165466667Y-59766666D01*
X165542857Y-59728571D01*
X165961905Y-59728571D01*
X165542857Y-59080951D02*
X165542857Y-59347618D01*
X165961905Y-59347618D02*
X165161905Y-59347618D01*
X165161905Y-58966665D01*
D17*
X169490476Y-78461905D02*
X169490476Y-79109524D01*
X169528571Y-79185714D01*
X169566667Y-79223810D01*
X169642857Y-79261905D01*
X169795238Y-79261905D01*
X169871429Y-79223810D01*
X169909524Y-79185714D01*
X169947619Y-79109524D01*
X169947619Y-78461905D01*
X170671428Y-78728571D02*
X170671428Y-79261905D01*
X170480952Y-78423810D02*
X170290476Y-78995238D01*
X170785714Y-78995238D01*
D15*
X163261905Y-111852381D02*
X163261905Y-110852381D01*
X163500000Y-110852381D01*
X163642858Y-110900000D01*
X163738096Y-110995238D01*
X163785715Y-111090476D01*
X163833334Y-111280952D01*
X163833334Y-111423810D01*
X163785715Y-111614286D01*
X163738096Y-111709524D01*
X163642858Y-111804762D01*
X163500000Y-111852381D01*
X163261905Y-111852381D01*
X164214286Y-110947619D02*
X164261905Y-110900000D01*
X164357143Y-110852381D01*
X164595239Y-110852381D01*
X164690477Y-110900000D01*
X164738096Y-110947619D01*
X164785715Y-111042857D01*
X164785715Y-111138095D01*
X164738096Y-111280952D01*
X164166667Y-111852381D01*
X164785715Y-111852381D01*
X142766667Y-144152381D02*
X142766667Y-144866667D01*
X142719047Y-145009524D01*
X142623809Y-145104762D01*
X142480952Y-145152381D01*
X142385714Y-145152381D01*
X143195238Y-144247619D02*
X143242857Y-144200000D01*
X143338095Y-144152381D01*
X143576191Y-144152381D01*
X143671429Y-144200000D01*
X143719048Y-144247619D01*
X143766667Y-144342857D01*
X143766667Y-144438095D01*
X143719048Y-144580952D01*
X143147619Y-145152381D01*
X143766667Y-145152381D01*
X166833334Y-101907143D02*
X166785715Y-101954762D01*
X166642858Y-102002381D01*
X166547620Y-102002381D01*
X166404762Y-101954762D01*
X166309524Y-101859524D01*
X166261905Y-101764286D01*
X166214286Y-101573810D01*
X166214286Y-101430952D01*
X166261905Y-101240476D01*
X166309524Y-101145238D01*
X166404762Y-101050000D01*
X166547620Y-101002381D01*
X166642858Y-101002381D01*
X166785715Y-101050000D01*
X166833334Y-101097619D01*
X167309524Y-102002381D02*
X167500000Y-102002381D01*
X167595239Y-101954762D01*
X167642858Y-101907143D01*
X167738096Y-101764286D01*
X167785715Y-101573810D01*
X167785715Y-101192857D01*
X167738096Y-101097619D01*
X167690477Y-101050000D01*
X167595239Y-101002381D01*
X167404762Y-101002381D01*
X167309524Y-101050000D01*
X167261905Y-101097619D01*
X167214286Y-101192857D01*
X167214286Y-101430952D01*
X167261905Y-101526190D01*
X167309524Y-101573810D01*
X167404762Y-101621429D01*
X167595239Y-101621429D01*
X167690477Y-101573810D01*
X167738096Y-101526190D01*
X167785715Y-101430952D01*
X168638095Y-100314286D02*
X168600000Y-100276191D01*
X168561905Y-100200000D01*
X168561905Y-100009524D01*
X168600000Y-99933334D01*
X168638095Y-99895238D01*
X168714286Y-99857143D01*
X168790476Y-99857143D01*
X168904762Y-99895238D01*
X169361905Y-100352381D01*
X169361905Y-99857143D01*
X168638095Y-99552381D02*
X168600000Y-99514286D01*
X168561905Y-99438095D01*
X168561905Y-99247619D01*
X168600000Y-99171429D01*
X168638095Y-99133333D01*
X168714286Y-99095238D01*
X168790476Y-99095238D01*
X168904762Y-99133333D01*
X169361905Y-99590476D01*
X169361905Y-99095238D01*
X168828571Y-98752381D02*
X169628571Y-98752381D01*
X168866667Y-98752381D02*
X168828571Y-98676190D01*
X168828571Y-98523809D01*
X168866667Y-98447619D01*
X168904762Y-98409524D01*
X168980952Y-98371428D01*
X169209524Y-98371428D01*
X169285714Y-98409524D01*
X169323810Y-98447619D01*
X169361905Y-98523809D01*
X169361905Y-98676190D01*
X169323810Y-98752381D01*
X168942857Y-97761904D02*
X168942857Y-98028571D01*
X169361905Y-98028571D02*
X168561905Y-98028571D01*
X168561905Y-97647618D01*
X166357143Y-90807143D02*
X166309524Y-90854762D01*
X166166667Y-90902381D01*
X166071429Y-90902381D01*
X165928571Y-90854762D01*
X165833333Y-90759524D01*
X165785714Y-90664286D01*
X165738095Y-90473810D01*
X165738095Y-90330952D01*
X165785714Y-90140476D01*
X165833333Y-90045238D01*
X165928571Y-89950000D01*
X166071429Y-89902381D01*
X166166667Y-89902381D01*
X166309524Y-89950000D01*
X166357143Y-89997619D01*
X167309524Y-90902381D02*
X166738095Y-90902381D01*
X167023809Y-90902381D02*
X167023809Y-89902381D01*
X166928571Y-90045238D01*
X166833333Y-90140476D01*
X166738095Y-90188095D01*
X167928571Y-89902381D02*
X168023810Y-89902381D01*
X168119048Y-89950000D01*
X168166667Y-89997619D01*
X168214286Y-90092857D01*
X168261905Y-90283333D01*
X168261905Y-90521429D01*
X168214286Y-90711905D01*
X168166667Y-90807143D01*
X168119048Y-90854762D01*
X168023810Y-90902381D01*
X167928571Y-90902381D01*
X167833333Y-90854762D01*
X167785714Y-90807143D01*
X167738095Y-90711905D01*
X167690476Y-90521429D01*
X167690476Y-90283333D01*
X167738095Y-90092857D01*
X167785714Y-89997619D01*
X167833333Y-89950000D01*
X167928571Y-89902381D01*
X168638095Y-94314286D02*
X168600000Y-94276191D01*
X168561905Y-94200000D01*
X168561905Y-94009524D01*
X168600000Y-93933334D01*
X168638095Y-93895238D01*
X168714286Y-93857143D01*
X168790476Y-93857143D01*
X168904762Y-93895238D01*
X169361905Y-94352381D01*
X169361905Y-93857143D01*
X168638095Y-93552381D02*
X168600000Y-93514286D01*
X168561905Y-93438095D01*
X168561905Y-93247619D01*
X168600000Y-93171429D01*
X168638095Y-93133333D01*
X168714286Y-93095238D01*
X168790476Y-93095238D01*
X168904762Y-93133333D01*
X169361905Y-93590476D01*
X169361905Y-93095238D01*
X168828571Y-92752381D02*
X169628571Y-92752381D01*
X168866667Y-92752381D02*
X168828571Y-92676190D01*
X168828571Y-92523809D01*
X168866667Y-92447619D01*
X168904762Y-92409524D01*
X168980952Y-92371428D01*
X169209524Y-92371428D01*
X169285714Y-92409524D01*
X169323810Y-92447619D01*
X169361905Y-92523809D01*
X169361905Y-92676190D01*
X169323810Y-92752381D01*
X168942857Y-91761904D02*
X168942857Y-92028571D01*
X169361905Y-92028571D02*
X168561905Y-92028571D01*
X168561905Y-91647618D01*
X173600000Y-133607143D02*
X173814286Y-133678571D01*
X174171429Y-133678571D01*
X174314286Y-133607143D01*
X174385715Y-133535714D01*
X174457143Y-133392857D01*
X174457143Y-133250000D01*
X174385715Y-133107143D01*
X174314286Y-133035714D01*
X174171429Y-132964286D01*
X173885715Y-132892857D01*
X173742857Y-132821429D01*
X173671429Y-132750000D01*
X173600000Y-132607143D01*
X173600000Y-132464286D01*
X173671429Y-132321429D01*
X173742857Y-132250000D01*
X173885715Y-132178571D01*
X174242857Y-132178571D01*
X174457143Y-132250000D01*
X174957143Y-132178571D02*
X175314286Y-133678571D01*
X175600000Y-132607143D01*
X175885714Y-133678571D01*
X176242857Y-132178571D01*
X176742857Y-132321429D02*
X176814286Y-132250000D01*
X176957143Y-132178571D01*
X177314286Y-132178571D01*
X177457143Y-132250000D01*
X177528572Y-132321429D01*
X177600000Y-132464286D01*
X177600000Y-132607143D01*
X177528572Y-132821429D01*
X176671429Y-133678571D01*
X177600000Y-133678571D01*
D12*
X173621429Y-128678571D02*
X173121429Y-127964286D01*
X172764286Y-128678571D02*
X172764286Y-127178571D01*
X173335714Y-127178571D01*
X173478572Y-127250000D01*
X173550000Y-127321429D01*
X173621429Y-127464286D01*
X173621429Y-127678571D01*
X173550000Y-127821429D01*
X173478572Y-127892857D01*
X173335714Y-127964286D01*
X172764286Y-127964286D01*
X174264286Y-127892857D02*
X174764286Y-127892857D01*
X174978572Y-128678571D02*
X174264286Y-128678571D01*
X174264286Y-127178571D01*
X174978572Y-127178571D01*
X175550000Y-128607143D02*
X175764286Y-128678571D01*
X176121429Y-128678571D01*
X176264286Y-128607143D01*
X176335715Y-128535714D01*
X176407143Y-128392857D01*
X176407143Y-128250000D01*
X176335715Y-128107143D01*
X176264286Y-128035714D01*
X176121429Y-127964286D01*
X175835715Y-127892857D01*
X175692857Y-127821429D01*
X175621429Y-127750000D01*
X175550000Y-127607143D01*
X175550000Y-127464286D01*
X175621429Y-127321429D01*
X175692857Y-127250000D01*
X175835715Y-127178571D01*
X176192857Y-127178571D01*
X176407143Y-127250000D01*
X177050000Y-127892857D02*
X177550000Y-127892857D01*
X177764286Y-128678571D02*
X177050000Y-128678571D01*
X177050000Y-127178571D01*
X177764286Y-127178571D01*
X178192857Y-127178571D02*
X179050000Y-127178571D01*
X178621429Y-128678571D02*
X178621429Y-127178571D01*
D15*
X176507143Y-108100000D02*
X176578571Y-107885714D01*
X176578571Y-107528571D01*
X176507143Y-107385714D01*
X176435714Y-107314285D01*
X176292857Y-107242857D01*
X176150000Y-107242857D01*
X176007143Y-107314285D01*
X175935714Y-107385714D01*
X175864286Y-107528571D01*
X175792857Y-107814285D01*
X175721429Y-107957143D01*
X175650000Y-108028571D01*
X175507143Y-108100000D01*
X175364286Y-108100000D01*
X175221429Y-108028571D01*
X175150000Y-107957143D01*
X175078571Y-107814285D01*
X175078571Y-107457143D01*
X175150000Y-107242857D01*
X175078571Y-106742857D02*
X176578571Y-106385714D01*
X175507143Y-106100000D01*
X176578571Y-105814286D01*
X175078571Y-105457143D01*
X175078571Y-105028571D02*
X175078571Y-104100000D01*
X175650000Y-104600000D01*
X175650000Y-104385714D01*
X175721429Y-104242857D01*
X175792857Y-104171428D01*
X175935714Y-104100000D01*
X176292857Y-104100000D01*
X176435714Y-104171428D01*
X176507143Y-104242857D01*
X176578571Y-104385714D01*
X176578571Y-104814286D01*
X176507143Y-104957143D01*
X176435714Y-105028571D01*
X127557143Y-114357143D02*
X127509524Y-114404762D01*
X127366667Y-114452381D01*
X127271429Y-114452381D01*
X127128571Y-114404762D01*
X127033333Y-114309524D01*
X126985714Y-114214286D01*
X126938095Y-114023810D01*
X126938095Y-113880952D01*
X126985714Y-113690476D01*
X127033333Y-113595238D01*
X127128571Y-113500000D01*
X127271429Y-113452381D01*
X127366667Y-113452381D01*
X127509524Y-113500000D01*
X127557143Y-113547619D01*
X128509524Y-114452381D02*
X127938095Y-114452381D01*
X128223809Y-114452381D02*
X128223809Y-113452381D01*
X128128571Y-113595238D01*
X128033333Y-113690476D01*
X127938095Y-113738095D01*
X129366667Y-113785714D02*
X129366667Y-114452381D01*
X129128571Y-113404762D02*
X128890476Y-114119048D01*
X129509524Y-114119048D01*
X127228572Y-108052381D02*
X126657143Y-108052381D01*
X126942857Y-108052381D02*
X126942857Y-107052381D01*
X126847619Y-107195238D01*
X126752381Y-107290476D01*
X126657143Y-107338095D01*
X127847619Y-107052381D02*
X127942858Y-107052381D01*
X128038096Y-107100000D01*
X128085715Y-107147619D01*
X128133334Y-107242857D01*
X128180953Y-107433333D01*
X128180953Y-107671429D01*
X128133334Y-107861905D01*
X128085715Y-107957143D01*
X128038096Y-108004762D01*
X127942858Y-108052381D01*
X127847619Y-108052381D01*
X127752381Y-108004762D01*
X127704762Y-107957143D01*
X127657143Y-107861905D01*
X127609524Y-107671429D01*
X127609524Y-107433333D01*
X127657143Y-107242857D01*
X127704762Y-107147619D01*
X127752381Y-107100000D01*
X127847619Y-107052381D01*
X129038096Y-107385714D02*
X129038096Y-108052381D01*
X128609524Y-107385714D02*
X128609524Y-107909524D01*
X128657143Y-108004762D01*
X128752381Y-108052381D01*
X128895239Y-108052381D01*
X128990477Y-108004762D01*
X129038096Y-107957143D01*
X129847620Y-107528571D02*
X129514286Y-107528571D01*
X129514286Y-108052381D02*
X129514286Y-107052381D01*
X129990477Y-107052381D01*
X138266667Y-129328571D02*
X137933333Y-129328571D01*
X137933333Y-129852381D02*
X137933333Y-128852381D01*
X138409524Y-128852381D01*
X139314286Y-129852381D02*
X138742857Y-129852381D01*
X139028571Y-129852381D02*
X139028571Y-128852381D01*
X138933333Y-128995238D01*
X138838095Y-129090476D01*
X138742857Y-129138095D01*
X158866667Y-139652381D02*
X158866667Y-140366667D01*
X158819047Y-140509524D01*
X158723809Y-140604762D01*
X158580952Y-140652381D01*
X158485714Y-140652381D01*
X159247619Y-139652381D02*
X159914286Y-139652381D01*
X159485714Y-140652381D01*
X135566667Y-139252381D02*
X135566667Y-139966667D01*
X135519047Y-140109524D01*
X135423809Y-140204762D01*
X135280952Y-140252381D01*
X135185714Y-140252381D01*
X136090476Y-140252381D02*
X136280952Y-140252381D01*
X136376191Y-140204762D01*
X136423810Y-140157143D01*
X136519048Y-140014286D01*
X136566667Y-139823810D01*
X136566667Y-139442857D01*
X136519048Y-139347619D01*
X136471429Y-139300000D01*
X136376191Y-139252381D01*
X136185714Y-139252381D01*
X136090476Y-139300000D01*
X136042857Y-139347619D01*
X135995238Y-139442857D01*
X135995238Y-139680952D01*
X136042857Y-139776190D01*
X136090476Y-139823810D01*
X136185714Y-139871429D01*
X136376191Y-139871429D01*
X136471429Y-139823810D01*
X136519048Y-139776190D01*
X136566667Y-139680952D01*
X144552381Y-125366666D02*
X144076190Y-125700000D01*
X144552381Y-125938095D02*
X143552381Y-125938095D01*
X143552381Y-125557142D01*
X143600000Y-125461904D01*
X143647619Y-125414285D01*
X143742857Y-125366666D01*
X143885714Y-125366666D01*
X143980952Y-125414285D01*
X144028571Y-125461904D01*
X144076190Y-125557142D01*
X144076190Y-125938095D01*
X144552381Y-124890476D02*
X144552381Y-124700000D01*
X144504762Y-124604761D01*
X144457143Y-124557142D01*
X144314286Y-124461904D01*
X144123810Y-124414285D01*
X143742857Y-124414285D01*
X143647619Y-124461904D01*
X143600000Y-124509523D01*
X143552381Y-124604761D01*
X143552381Y-124795238D01*
X143600000Y-124890476D01*
X143647619Y-124938095D01*
X143742857Y-124985714D01*
X143980952Y-124985714D01*
X144076190Y-124938095D01*
X144123810Y-124890476D01*
X144171429Y-124795238D01*
X144171429Y-124604761D01*
X144123810Y-124509523D01*
X144076190Y-124461904D01*
X143980952Y-124414285D01*
X146452381Y-125214285D02*
X146452381Y-125785714D01*
X146452381Y-125500000D02*
X145452381Y-125500000D01*
X145595238Y-125595238D01*
X145690476Y-125690476D01*
X145738095Y-125785714D01*
X146452381Y-124785714D02*
X145452381Y-124785714D01*
X146452381Y-124214285D02*
X145880952Y-124642857D01*
X145452381Y-124214285D02*
X146023810Y-124785714D01*
X164257143Y-147952381D02*
X163923809Y-147476190D01*
X163685714Y-147952381D02*
X163685714Y-146952381D01*
X164066667Y-146952381D01*
X164161905Y-147000000D01*
X164209524Y-147047619D01*
X164257143Y-147142857D01*
X164257143Y-147285714D01*
X164209524Y-147380952D01*
X164161905Y-147428571D01*
X164066667Y-147476190D01*
X163685714Y-147476190D01*
X165209524Y-147952381D02*
X164638095Y-147952381D01*
X164923809Y-147952381D02*
X164923809Y-146952381D01*
X164828571Y-147095238D01*
X164733333Y-147190476D01*
X164638095Y-147238095D01*
X165828571Y-146952381D02*
X165923810Y-146952381D01*
X166019048Y-147000000D01*
X166066667Y-147047619D01*
X166114286Y-147142857D01*
X166161905Y-147333333D01*
X166161905Y-147571429D01*
X166114286Y-147761905D01*
X166066667Y-147857143D01*
X166019048Y-147904762D01*
X165923810Y-147952381D01*
X165828571Y-147952381D01*
X165733333Y-147904762D01*
X165685714Y-147857143D01*
X165638095Y-147761905D01*
X165590476Y-147571429D01*
X165590476Y-147333333D01*
X165638095Y-147142857D01*
X165685714Y-147047619D01*
X165733333Y-147000000D01*
X165828571Y-146952381D01*
X165352381Y-141914285D02*
X165352381Y-142485714D01*
X165352381Y-142200000D02*
X164352381Y-142200000D01*
X164495238Y-142295238D01*
X164590476Y-142390476D01*
X164638095Y-142485714D01*
X165352381Y-141485714D02*
X164352381Y-141485714D01*
X165352381Y-140914285D02*
X164780952Y-141342857D01*
X164352381Y-140914285D02*
X164923810Y-141485714D01*
X143152381Y-107742857D02*
X142676190Y-108076191D01*
X143152381Y-108314286D02*
X142152381Y-108314286D01*
X142152381Y-107933333D01*
X142200000Y-107838095D01*
X142247619Y-107790476D01*
X142342857Y-107742857D01*
X142485714Y-107742857D01*
X142580952Y-107790476D01*
X142628571Y-107838095D01*
X142676190Y-107933333D01*
X142676190Y-108314286D01*
X143152381Y-106790476D02*
X143152381Y-107361905D01*
X143152381Y-107076191D02*
X142152381Y-107076191D01*
X142295238Y-107171429D01*
X142390476Y-107266667D01*
X142438095Y-107361905D01*
X143152381Y-105838095D02*
X143152381Y-106409524D01*
X143152381Y-106123810D02*
X142152381Y-106123810D01*
X142295238Y-106219048D01*
X142390476Y-106314286D01*
X142438095Y-106409524D01*
X143152381Y-114014285D02*
X143152381Y-114585714D01*
X143152381Y-114300000D02*
X142152381Y-114300000D01*
X142295238Y-114395238D01*
X142390476Y-114490476D01*
X142438095Y-114585714D01*
X143152381Y-113585714D02*
X142152381Y-113585714D01*
X143152381Y-113014285D02*
X142580952Y-113442857D01*
X142152381Y-113014285D02*
X142723810Y-113585714D01*
X134252381Y-107742857D02*
X133776190Y-108076191D01*
X134252381Y-108314286D02*
X133252381Y-108314286D01*
X133252381Y-107933333D01*
X133300000Y-107838095D01*
X133347619Y-107790476D01*
X133442857Y-107742857D01*
X133585714Y-107742857D01*
X133680952Y-107790476D01*
X133728571Y-107838095D01*
X133776190Y-107933333D01*
X133776190Y-108314286D01*
X134252381Y-106790476D02*
X134252381Y-107361905D01*
X134252381Y-107076191D02*
X133252381Y-107076191D01*
X133395238Y-107171429D01*
X133490476Y-107266667D01*
X133538095Y-107361905D01*
X133347619Y-106409524D02*
X133300000Y-106361905D01*
X133252381Y-106266667D01*
X133252381Y-106028571D01*
X133300000Y-105933333D01*
X133347619Y-105885714D01*
X133442857Y-105838095D01*
X133538095Y-105838095D01*
X133680952Y-105885714D01*
X134252381Y-106457143D01*
X134252381Y-105838095D01*
X133247619Y-114461905D02*
X133200000Y-114414286D01*
X133152381Y-114319048D01*
X133152381Y-114080952D01*
X133200000Y-113985714D01*
X133247619Y-113938095D01*
X133342857Y-113890476D01*
X133438095Y-113890476D01*
X133580952Y-113938095D01*
X134152381Y-114509524D01*
X134152381Y-113890476D01*
X133247619Y-113509524D02*
X133200000Y-113461905D01*
X133152381Y-113366667D01*
X133152381Y-113128571D01*
X133200000Y-113033333D01*
X133247619Y-112985714D01*
X133342857Y-112938095D01*
X133438095Y-112938095D01*
X133580952Y-112985714D01*
X134152381Y-113557143D01*
X134152381Y-112938095D01*
X140152381Y-107842857D02*
X139676190Y-108176191D01*
X140152381Y-108414286D02*
X139152381Y-108414286D01*
X139152381Y-108033333D01*
X139200000Y-107938095D01*
X139247619Y-107890476D01*
X139342857Y-107842857D01*
X139485714Y-107842857D01*
X139580952Y-107890476D01*
X139628571Y-107938095D01*
X139676190Y-108033333D01*
X139676190Y-108414286D01*
X140152381Y-106890476D02*
X140152381Y-107461905D01*
X140152381Y-107176191D02*
X139152381Y-107176191D01*
X139295238Y-107271429D01*
X139390476Y-107366667D01*
X139438095Y-107461905D01*
X139152381Y-106557143D02*
X139152381Y-105938095D01*
X139533333Y-106271429D01*
X139533333Y-106128571D01*
X139580952Y-106033333D01*
X139628571Y-105985714D01*
X139723810Y-105938095D01*
X139961905Y-105938095D01*
X140057143Y-105985714D01*
X140104762Y-106033333D01*
X140152381Y-106128571D01*
X140152381Y-106414286D01*
X140104762Y-106509524D01*
X140057143Y-106557143D01*
X139585714Y-115161904D02*
X140252381Y-115161904D01*
X139204762Y-115400000D02*
X139919048Y-115638095D01*
X139919048Y-115019047D01*
X139252381Y-114733333D02*
X139252381Y-114066666D01*
X140252381Y-114495238D01*
X139252381Y-113495238D02*
X139252381Y-113399999D01*
X139300000Y-113304761D01*
X139347619Y-113257142D01*
X139442857Y-113209523D01*
X139633333Y-113161904D01*
X139871429Y-113161904D01*
X140061905Y-113209523D01*
X140157143Y-113257142D01*
X140204762Y-113304761D01*
X140252381Y-113399999D01*
X140252381Y-113495238D01*
X140204762Y-113590476D01*
X140157143Y-113638095D01*
X140061905Y-113685714D01*
X139871429Y-113733333D01*
X139633333Y-113733333D01*
X139442857Y-113685714D01*
X139347619Y-113638095D01*
X139300000Y-113590476D01*
X139252381Y-113495238D01*
X140252381Y-112733333D02*
X139252381Y-112733333D01*
X140252381Y-112161904D02*
X139680952Y-112590476D01*
X139252381Y-112161904D02*
X139823810Y-112733333D01*
X137252381Y-107842857D02*
X136776190Y-108176191D01*
X137252381Y-108414286D02*
X136252381Y-108414286D01*
X136252381Y-108033333D01*
X136300000Y-107938095D01*
X136347619Y-107890476D01*
X136442857Y-107842857D01*
X136585714Y-107842857D01*
X136680952Y-107890476D01*
X136728571Y-107938095D01*
X136776190Y-108033333D01*
X136776190Y-108414286D01*
X137252381Y-106890476D02*
X137252381Y-107461905D01*
X137252381Y-107176191D02*
X136252381Y-107176191D01*
X136395238Y-107271429D01*
X136490476Y-107366667D01*
X136538095Y-107461905D01*
X136585714Y-106033333D02*
X137252381Y-106033333D01*
X136204762Y-106271429D02*
X136919048Y-106509524D01*
X136919048Y-105890476D01*
X136585714Y-114961904D02*
X137252381Y-114961904D01*
X136204762Y-115200000D02*
X136919048Y-115438095D01*
X136919048Y-114819047D01*
X136252381Y-114533333D02*
X136252381Y-113866666D01*
X137252381Y-114295238D01*
X136252381Y-113295238D02*
X136252381Y-113199999D01*
X136300000Y-113104761D01*
X136347619Y-113057142D01*
X136442857Y-113009523D01*
X136633333Y-112961904D01*
X136871429Y-112961904D01*
X137061905Y-113009523D01*
X137157143Y-113057142D01*
X137204762Y-113104761D01*
X137252381Y-113199999D01*
X137252381Y-113295238D01*
X137204762Y-113390476D01*
X137157143Y-113438095D01*
X137061905Y-113485714D01*
X136871429Y-113533333D01*
X136633333Y-113533333D01*
X136442857Y-113485714D01*
X136347619Y-113438095D01*
X136300000Y-113390476D01*
X136252381Y-113295238D01*
X137252381Y-112533333D02*
X136252381Y-112533333D01*
X137252381Y-111961904D02*
X136680952Y-112390476D01*
X136252381Y-111961904D02*
X136823810Y-112533333D01*
X164852381Y-126366666D02*
X164852381Y-126938095D01*
X164852381Y-126652381D02*
X163852381Y-126652381D01*
X163995238Y-126747619D01*
X164090476Y-126842857D01*
X164138095Y-126938095D01*
X163852381Y-125747619D02*
X163852381Y-125652380D01*
X163900000Y-125557142D01*
X163947619Y-125509523D01*
X164042857Y-125461904D01*
X164233333Y-125414285D01*
X164471429Y-125414285D01*
X164661905Y-125461904D01*
X164757143Y-125509523D01*
X164804762Y-125557142D01*
X164852381Y-125652380D01*
X164852381Y-125747619D01*
X164804762Y-125842857D01*
X164757143Y-125890476D01*
X164661905Y-125938095D01*
X164471429Y-125985714D01*
X164233333Y-125985714D01*
X164042857Y-125938095D01*
X163947619Y-125890476D01*
X163900000Y-125842857D01*
X163852381Y-125747619D01*
X163852381Y-124795238D02*
X163852381Y-124699999D01*
X163900000Y-124604761D01*
X163947619Y-124557142D01*
X164042857Y-124509523D01*
X164233333Y-124461904D01*
X164471429Y-124461904D01*
X164661905Y-124509523D01*
X164757143Y-124557142D01*
X164804762Y-124604761D01*
X164852381Y-124699999D01*
X164852381Y-124795238D01*
X164804762Y-124890476D01*
X164757143Y-124938095D01*
X164661905Y-124985714D01*
X164471429Y-125033333D01*
X164233333Y-125033333D01*
X164042857Y-124985714D01*
X163947619Y-124938095D01*
X163900000Y-124890476D01*
X163852381Y-124795238D01*
X164852381Y-124033333D02*
X163852381Y-124033333D01*
X164852381Y-123461904D02*
X164280952Y-123890476D01*
X163852381Y-123461904D02*
X164423810Y-124033333D01*
X159252381Y-125485714D02*
X159252381Y-126057143D01*
X159252381Y-125771429D02*
X158252381Y-125771429D01*
X158395238Y-125866667D01*
X158490476Y-125961905D01*
X158538095Y-126057143D01*
X159252381Y-125057143D02*
X158252381Y-125057143D01*
X158966667Y-124723809D01*
X158252381Y-124390476D01*
X159252381Y-124390476D01*
X169338095Y-129752381D02*
X169338095Y-130561905D01*
X169385714Y-130657143D01*
X169433333Y-130704762D01*
X169528571Y-130752381D01*
X169719048Y-130752381D01*
X169814286Y-130704762D01*
X169861905Y-130657143D01*
X169909524Y-130561905D01*
X169909524Y-129752381D01*
X170861905Y-129752381D02*
X170385714Y-129752381D01*
X170338095Y-130228571D01*
X170385714Y-130180952D01*
X170480952Y-130133333D01*
X170719048Y-130133333D01*
X170814286Y-130180952D01*
X170861905Y-130228571D01*
X170909524Y-130323810D01*
X170909524Y-130561905D01*
X170861905Y-130657143D01*
X170814286Y-130704762D01*
X170719048Y-130752381D01*
X170480952Y-130752381D01*
X170385714Y-130704762D01*
X170338095Y-130657143D01*
X166857143Y-122657143D02*
X166809524Y-122704762D01*
X166666667Y-122752381D01*
X166571429Y-122752381D01*
X166428571Y-122704762D01*
X166333333Y-122609524D01*
X166285714Y-122514286D01*
X166238095Y-122323810D01*
X166238095Y-122180952D01*
X166285714Y-121990476D01*
X166333333Y-121895238D01*
X166428571Y-121800000D01*
X166571429Y-121752381D01*
X166666667Y-121752381D01*
X166809524Y-121800000D01*
X166857143Y-121847619D01*
X167809524Y-122752381D02*
X167238095Y-122752381D01*
X167523809Y-122752381D02*
X167523809Y-121752381D01*
X167428571Y-121895238D01*
X167333333Y-121990476D01*
X167238095Y-122038095D01*
X168714286Y-121752381D02*
X168238095Y-121752381D01*
X168190476Y-122228571D01*
X168238095Y-122180952D01*
X168333333Y-122133333D01*
X168571429Y-122133333D01*
X168666667Y-122180952D01*
X168714286Y-122228571D01*
X168761905Y-122323810D01*
X168761905Y-122561905D01*
X168714286Y-122657143D01*
X168666667Y-122704762D01*
X168571429Y-122752381D01*
X168333333Y-122752381D01*
X168238095Y-122704762D01*
X168190476Y-122657143D01*
X169061905Y-127638095D02*
X169061905Y-128095238D01*
X169061905Y-127866667D02*
X168261905Y-127866667D01*
X168376190Y-127942857D01*
X168452381Y-128019048D01*
X168490476Y-128095238D01*
X168261905Y-127142857D02*
X168261905Y-127066666D01*
X168300000Y-126990476D01*
X168338095Y-126952381D01*
X168414286Y-126914285D01*
X168566667Y-126876190D01*
X168757143Y-126876190D01*
X168909524Y-126914285D01*
X168985714Y-126952381D01*
X169023810Y-126990476D01*
X169061905Y-127066666D01*
X169061905Y-127142857D01*
X169023810Y-127219047D01*
X168985714Y-127257143D01*
X168909524Y-127295238D01*
X168757143Y-127333333D01*
X168566667Y-127333333D01*
X168414286Y-127295238D01*
X168338095Y-127257143D01*
X168300000Y-127219047D01*
X168261905Y-127142857D01*
X168261905Y-126380952D02*
X168261905Y-126304761D01*
X168300000Y-126228571D01*
X168338095Y-126190476D01*
X168414286Y-126152380D01*
X168566667Y-126114285D01*
X168757143Y-126114285D01*
X168909524Y-126152380D01*
X168985714Y-126190476D01*
X169023810Y-126228571D01*
X169061905Y-126304761D01*
X169061905Y-126380952D01*
X169023810Y-126457142D01*
X168985714Y-126495238D01*
X168909524Y-126533333D01*
X168757143Y-126571428D01*
X168566667Y-126571428D01*
X168414286Y-126533333D01*
X168338095Y-126495238D01*
X168300000Y-126457142D01*
X168261905Y-126380952D01*
X168528571Y-125771428D02*
X169061905Y-125771428D01*
X168604762Y-125771428D02*
X168566667Y-125733333D01*
X168528571Y-125657142D01*
X168528571Y-125542856D01*
X168566667Y-125466666D01*
X168642857Y-125428571D01*
X169061905Y-125428571D01*
X168642857Y-124780951D02*
X168642857Y-125047618D01*
X169061905Y-125047618D02*
X168261905Y-125047618D01*
X168261905Y-124666665D01*
X167185714Y-136114286D02*
X167223810Y-136152381D01*
X167261905Y-136266667D01*
X167261905Y-136342857D01*
X167223810Y-136457143D01*
X167147619Y-136533334D01*
X167071429Y-136571429D01*
X166919048Y-136609524D01*
X166804762Y-136609524D01*
X166652381Y-136571429D01*
X166576190Y-136533334D01*
X166500000Y-136457143D01*
X166461905Y-136342857D01*
X166461905Y-136266667D01*
X166500000Y-136152381D01*
X166538095Y-136114286D01*
X167261905Y-135352381D02*
X167261905Y-135809524D01*
X167261905Y-135580953D02*
X166461905Y-135580953D01*
X166576190Y-135657143D01*
X166652381Y-135733334D01*
X166690476Y-135809524D01*
X166461905Y-134666667D02*
X166461905Y-134819048D01*
X166500000Y-134895238D01*
X166538095Y-134933333D01*
X166652381Y-135009524D01*
X166804762Y-135047619D01*
X167109524Y-135047619D01*
X167185714Y-135009524D01*
X167223810Y-134971429D01*
X167261905Y-134895238D01*
X167261905Y-134742857D01*
X167223810Y-134666667D01*
X167185714Y-134628571D01*
X167109524Y-134590476D01*
X166919048Y-134590476D01*
X166842857Y-134628571D01*
X166804762Y-134666667D01*
X166766667Y-134742857D01*
X166766667Y-134895238D01*
X166804762Y-134971429D01*
X166842857Y-135009524D01*
X166919048Y-135047619D01*
X166438095Y-133614286D02*
X166400000Y-133576191D01*
X166361905Y-133500000D01*
X166361905Y-133309524D01*
X166400000Y-133233334D01*
X166438095Y-133195238D01*
X166514286Y-133157143D01*
X166590476Y-133157143D01*
X166704762Y-133195238D01*
X167161905Y-133652381D01*
X167161905Y-133157143D01*
X166438095Y-132852381D02*
X166400000Y-132814286D01*
X166361905Y-132738095D01*
X166361905Y-132547619D01*
X166400000Y-132471429D01*
X166438095Y-132433333D01*
X166514286Y-132395238D01*
X166590476Y-132395238D01*
X166704762Y-132433333D01*
X167161905Y-132890476D01*
X167161905Y-132395238D01*
X166628571Y-132052381D02*
X167428571Y-132052381D01*
X166666667Y-132052381D02*
X166628571Y-131976190D01*
X166628571Y-131823809D01*
X166666667Y-131747619D01*
X166704762Y-131709524D01*
X166780952Y-131671428D01*
X167009524Y-131671428D01*
X167085714Y-131709524D01*
X167123810Y-131747619D01*
X167161905Y-131823809D01*
X167161905Y-131976190D01*
X167123810Y-132052381D01*
X166742857Y-131061904D02*
X166742857Y-131328571D01*
X167161905Y-131328571D02*
X166361905Y-131328571D01*
X166361905Y-130947618D01*
X167457143Y-147852381D02*
X167123809Y-147376190D01*
X166885714Y-147852381D02*
X166885714Y-146852381D01*
X167266667Y-146852381D01*
X167361905Y-146900000D01*
X167409524Y-146947619D01*
X167457143Y-147042857D01*
X167457143Y-147185714D01*
X167409524Y-147280952D01*
X167361905Y-147328571D01*
X167266667Y-147376190D01*
X166885714Y-147376190D01*
X168409524Y-147852381D02*
X167838095Y-147852381D01*
X168123809Y-147852381D02*
X168123809Y-146852381D01*
X168028571Y-146995238D01*
X167933333Y-147090476D01*
X167838095Y-147138095D01*
X169314286Y-146852381D02*
X168838095Y-146852381D01*
X168790476Y-147328571D01*
X168838095Y-147280952D01*
X168933333Y-147233333D01*
X169171429Y-147233333D01*
X169266667Y-147280952D01*
X169314286Y-147328571D01*
X169361905Y-147423810D01*
X169361905Y-147661905D01*
X169314286Y-147757143D01*
X169266667Y-147804762D01*
X169171429Y-147852381D01*
X168933333Y-147852381D01*
X168838095Y-147804762D01*
X168790476Y-147757143D01*
X168552381Y-142390476D02*
X168552381Y-142961905D01*
X168552381Y-142676191D02*
X167552381Y-142676191D01*
X167695238Y-142771429D01*
X167790476Y-142866667D01*
X167838095Y-142961905D01*
X167552381Y-141771429D02*
X167552381Y-141676190D01*
X167600000Y-141580952D01*
X167647619Y-141533333D01*
X167742857Y-141485714D01*
X167933333Y-141438095D01*
X168171429Y-141438095D01*
X168361905Y-141485714D01*
X168457143Y-141533333D01*
X168504762Y-141580952D01*
X168552381Y-141676190D01*
X168552381Y-141771429D01*
X168504762Y-141866667D01*
X168457143Y-141914286D01*
X168361905Y-141961905D01*
X168171429Y-142009524D01*
X167933333Y-142009524D01*
X167742857Y-141961905D01*
X167647619Y-141914286D01*
X167600000Y-141866667D01*
X167552381Y-141771429D01*
X168552381Y-141009524D02*
X167552381Y-141009524D01*
X168552381Y-140438095D02*
X167980952Y-140866667D01*
X167552381Y-140438095D02*
X168123810Y-141009524D01*
M02*
