G04 #@! TF.FileFunction,Soldermask,Bot*
%FSLAX46Y46*%
G04 Gerber Fmt 4.6, Leading zero omitted, Abs format (unit mm)*
G04 Created by KiCad (PCBNEW 4.0.6) date Thursday, 05 October 2017 'PMt' 05:15:57 PM*
%MOMM*%
%LPD*%
G01*
G04 APERTURE LIST*
%ADD10C,0.100000*%
%ADD11C,1.300000*%
%ADD12C,2.200000*%
%ADD13C,1.998980*%
%ADD14C,1.600000*%
%ADD15R,2.000000X2.000000*%
%ADD16O,2.000000X2.000000*%
%ADD17R,1.700000X1.200000*%
%ADD18O,1.700000X1.200000*%
%ADD19R,1.397000X1.397000*%
%ADD20C,1.397000*%
%ADD21R,2.400000X1.600000*%
%ADD22O,2.400000X1.600000*%
%ADD23C,1.500000*%
%ADD24R,1.600000X1.600000*%
%ADD25R,1.200000X1.200000*%
%ADD26C,1.200000*%
%ADD27R,3.500120X3.500120*%
%ADD28R,1.700000X1.700000*%
%ADD29O,1.700000X1.700000*%
%ADD30R,1.270000X4.200000*%
%ADD31C,1.700000*%
%ADD32C,1.501140*%
%ADD33O,1.700000X2.400000*%
%ADD34C,1.440000*%
G04 APERTURE END LIST*
D10*
D11*
X124430000Y-87530000D03*
X125700000Y-86260000D03*
X125700000Y-88800000D03*
D12*
X128200000Y-123700000D03*
D13*
X161400000Y-84400000D03*
X169020000Y-84400000D03*
D14*
X161600000Y-108500000D03*
X166600000Y-108500000D03*
X161600000Y-104000000D03*
X166600000Y-104000000D03*
X136200000Y-99700000D03*
X136200000Y-104700000D03*
X141000000Y-99700000D03*
X141000000Y-104700000D03*
X159900000Y-58200000D03*
X159900000Y-63200000D03*
D15*
X136100000Y-122300000D03*
D16*
X141180000Y-122300000D03*
D17*
X125200000Y-117000000D03*
D18*
X125200000Y-119000000D03*
D13*
X138000000Y-88000000D03*
X138000000Y-95620000D03*
X141500000Y-95600000D03*
X141500000Y-87980000D03*
X170100000Y-102500000D03*
X170100000Y-110120000D03*
X161600000Y-117500000D03*
X169220000Y-117500000D03*
X169000000Y-87900000D03*
X161380000Y-87900000D03*
X145000000Y-88000000D03*
X145000000Y-95620000D03*
D19*
X123460000Y-129900000D03*
D20*
X126000000Y-129900000D03*
X128540000Y-129900000D03*
D21*
X156800000Y-117500000D03*
D22*
X149180000Y-84480000D03*
X156800000Y-114960000D03*
X149180000Y-87020000D03*
X156800000Y-112420000D03*
X149180000Y-89560000D03*
X156800000Y-109880000D03*
X149180000Y-92100000D03*
X156800000Y-107340000D03*
X149180000Y-94640000D03*
X156800000Y-104800000D03*
X149180000Y-97180000D03*
X156800000Y-102260000D03*
X149180000Y-99720000D03*
X156800000Y-99720000D03*
X149180000Y-102260000D03*
X156800000Y-97180000D03*
X149180000Y-104800000D03*
X156800000Y-94640000D03*
X149180000Y-107340000D03*
X156800000Y-92100000D03*
X149180000Y-109880000D03*
X156800000Y-89560000D03*
X149180000Y-112420000D03*
X156800000Y-87020000D03*
X149180000Y-114960000D03*
X156800000Y-84480000D03*
X149180000Y-117500000D03*
D23*
X162100000Y-98500000D03*
X162100000Y-93500000D03*
D14*
X140500000Y-78900000D03*
X140500000Y-83900000D03*
X134400000Y-62000000D03*
X134400000Y-67000000D03*
X134400000Y-94600000D03*
X129400000Y-94600000D03*
D24*
X133200000Y-87700000D03*
D14*
X130700000Y-87700000D03*
D25*
X135600000Y-80400000D03*
D26*
X133600000Y-80400000D03*
D14*
X164700000Y-58200000D03*
X164700000Y-63200000D03*
D15*
X166600000Y-113500000D03*
D16*
X161520000Y-113500000D03*
D27*
X143100000Y-132799860D03*
X143100000Y-138799340D03*
X147799000Y-135799600D03*
D28*
X178000000Y-125300000D03*
D29*
X178000000Y-122760000D03*
X178000000Y-120220000D03*
X178000000Y-117680000D03*
X178000000Y-115140000D03*
X178000000Y-112600000D03*
D30*
X138100000Y-58200000D03*
X143100000Y-58200000D03*
D14*
X167000000Y-99750000D03*
X167000000Y-97250000D03*
X167000000Y-92250000D03*
X167000000Y-94750000D03*
D31*
X178000000Y-129900000D03*
X178000000Y-135900000D03*
X173500000Y-135900000D03*
X173500000Y-129900000D03*
X178000000Y-103200000D03*
X178000000Y-109200000D03*
X173500000Y-109200000D03*
X173500000Y-103200000D03*
D11*
X140600000Y-61400000D03*
D25*
X128300000Y-110000000D03*
D26*
X128300000Y-112000000D03*
D32*
X136060000Y-126600000D03*
X141140000Y-126610160D03*
D26*
X158750000Y-137600000D03*
D33*
X156450000Y-142900000D03*
X156450000Y-135900000D03*
X160950000Y-134400000D03*
X156450000Y-139900000D03*
D26*
X158750000Y-144600000D03*
X134650000Y-137600000D03*
D33*
X132350000Y-142900000D03*
X132350000Y-135900000D03*
X136850000Y-134400000D03*
X132350000Y-139900000D03*
D26*
X134650000Y-144600000D03*
D13*
X146000000Y-121500000D03*
X146000000Y-129120000D03*
X164900000Y-137900000D03*
X164900000Y-145520000D03*
X142700000Y-110000000D03*
X142700000Y-117620000D03*
X133700000Y-117600000D03*
X133700000Y-109980000D03*
X139700000Y-117600000D03*
X139700000Y-109980000D03*
X136700000Y-110000000D03*
X136700000Y-117620000D03*
D34*
X162800000Y-128000000D03*
X162800000Y-125460000D03*
X162800000Y-122920000D03*
X157200000Y-128000000D03*
X157200000Y-125460000D03*
X157200000Y-122920000D03*
D14*
X167600000Y-129000000D03*
X167600000Y-124000000D03*
X164900000Y-135300000D03*
X164900000Y-132800000D03*
D28*
X152800000Y-121700000D03*
D29*
X152800000Y-124240000D03*
X152800000Y-126780000D03*
X152800000Y-129320000D03*
X152800000Y-131860000D03*
X152800000Y-134400000D03*
X152800000Y-136940000D03*
D12*
X173000000Y-80400000D03*
X173000000Y-123700000D03*
X128200000Y-80400000D03*
X150600000Y-62250000D03*
X150600000Y-141750000D03*
D13*
X168100000Y-137900000D03*
X168100000Y-145520000D03*
M02*
