G04 #@! TF.FileFunction,Legend,Bot*
%FSLAX46Y46*%
G04 Gerber Fmt 4.6, Leading zero omitted, Abs format (unit mm)*
G04 Created by KiCad (PCBNEW 4.0.6) date Thursday, 05 October 2017 'PMt' 05:15:57 PM*
%MOMM*%
%LPD*%
G01*
G04 APERTURE LIST*
%ADD10C,0.100000*%
%ADD11C,0.150000*%
%ADD12C,1.000000*%
G04 APERTURE END LIST*
D10*
D11*
X179752381Y-90395237D02*
X178752381Y-90395237D01*
X179752381Y-90823809D02*
X179228571Y-90823809D01*
X179133333Y-90776190D01*
X179085714Y-90680952D01*
X179085714Y-90538094D01*
X179133333Y-90442856D01*
X179180952Y-90395237D01*
X179085714Y-91157142D02*
X179085714Y-91538094D01*
X178752381Y-91299999D02*
X179609524Y-91299999D01*
X179704762Y-91347618D01*
X179752381Y-91442856D01*
X179752381Y-91538094D01*
X179085714Y-91728571D02*
X179085714Y-92109523D01*
X178752381Y-91871428D02*
X179609524Y-91871428D01*
X179704762Y-91919047D01*
X179752381Y-92014285D01*
X179752381Y-92109523D01*
X179085714Y-92442857D02*
X180085714Y-92442857D01*
X179133333Y-92442857D02*
X179085714Y-92538095D01*
X179085714Y-92728572D01*
X179133333Y-92823810D01*
X179180952Y-92871429D01*
X179276190Y-92919048D01*
X179561905Y-92919048D01*
X179657143Y-92871429D01*
X179704762Y-92823810D01*
X179752381Y-92728572D01*
X179752381Y-92538095D01*
X179704762Y-92442857D01*
X179657143Y-93347619D02*
X179704762Y-93395238D01*
X179752381Y-93347619D01*
X179704762Y-93300000D01*
X179657143Y-93347619D01*
X179752381Y-93347619D01*
X179133333Y-93347619D02*
X179180952Y-93395238D01*
X179228571Y-93347619D01*
X179180952Y-93300000D01*
X179133333Y-93347619D01*
X179228571Y-93347619D01*
X178704762Y-94538095D02*
X179990476Y-93680952D01*
X178704762Y-95585714D02*
X179990476Y-94728571D01*
X179752381Y-96061904D02*
X179704762Y-95966666D01*
X179609524Y-95919047D01*
X178752381Y-95919047D01*
X179704762Y-96823810D02*
X179752381Y-96728572D01*
X179752381Y-96538095D01*
X179704762Y-96442857D01*
X179609524Y-96395238D01*
X179228571Y-96395238D01*
X179133333Y-96442857D01*
X179085714Y-96538095D01*
X179085714Y-96728572D01*
X179133333Y-96823810D01*
X179228571Y-96871429D01*
X179323810Y-96871429D01*
X179419048Y-96395238D01*
X179704762Y-97680953D02*
X179752381Y-97585715D01*
X179752381Y-97395238D01*
X179704762Y-97300000D01*
X179609524Y-97252381D01*
X179228571Y-97252381D01*
X179133333Y-97300000D01*
X179085714Y-97395238D01*
X179085714Y-97585715D01*
X179133333Y-97680953D01*
X179228571Y-97728572D01*
X179323810Y-97728572D01*
X179419048Y-97252381D01*
X179752381Y-98157143D02*
X178752381Y-98157143D01*
X179752381Y-98585715D02*
X179228571Y-98585715D01*
X179133333Y-98538096D01*
X179085714Y-98442858D01*
X179085714Y-98300000D01*
X179133333Y-98204762D01*
X179180952Y-98157143D01*
X179752381Y-99204762D02*
X179704762Y-99109524D01*
X179657143Y-99061905D01*
X179561905Y-99014286D01*
X179276190Y-99014286D01*
X179180952Y-99061905D01*
X179133333Y-99109524D01*
X179085714Y-99204762D01*
X179085714Y-99347620D01*
X179133333Y-99442858D01*
X179180952Y-99490477D01*
X179276190Y-99538096D01*
X179561905Y-99538096D01*
X179657143Y-99490477D01*
X179704762Y-99442858D01*
X179752381Y-99347620D01*
X179752381Y-99204762D01*
X179085714Y-99966667D02*
X179752381Y-99966667D01*
X179180952Y-99966667D02*
X179133333Y-100014286D01*
X179085714Y-100109524D01*
X179085714Y-100252382D01*
X179133333Y-100347620D01*
X179228571Y-100395239D01*
X179752381Y-100395239D01*
X179752381Y-101300001D02*
X179228571Y-101300001D01*
X179133333Y-101252382D01*
X179085714Y-101157144D01*
X179085714Y-100966667D01*
X179133333Y-100871429D01*
X179704762Y-101300001D02*
X179752381Y-101204763D01*
X179752381Y-100966667D01*
X179704762Y-100871429D01*
X179609524Y-100823810D01*
X179514286Y-100823810D01*
X179419048Y-100871429D01*
X179371429Y-100966667D01*
X179371429Y-101204763D01*
X179323810Y-101300001D01*
X179085714Y-101776191D02*
X179752381Y-101776191D01*
X179180952Y-101776191D02*
X179133333Y-101823810D01*
X179085714Y-101919048D01*
X179085714Y-102061906D01*
X179133333Y-102157144D01*
X179228571Y-102204763D01*
X179752381Y-102204763D01*
X179657143Y-102680953D02*
X179704762Y-102728572D01*
X179752381Y-102680953D01*
X179704762Y-102633334D01*
X179657143Y-102680953D01*
X179752381Y-102680953D01*
X179704762Y-103585715D02*
X179752381Y-103490477D01*
X179752381Y-103300000D01*
X179704762Y-103204762D01*
X179657143Y-103157143D01*
X179561905Y-103109524D01*
X179276190Y-103109524D01*
X179180952Y-103157143D01*
X179133333Y-103204762D01*
X179085714Y-103300000D01*
X179085714Y-103490477D01*
X179133333Y-103585715D01*
X179752381Y-104157143D02*
X179704762Y-104061905D01*
X179657143Y-104014286D01*
X179561905Y-103966667D01*
X179276190Y-103966667D01*
X179180952Y-104014286D01*
X179133333Y-104061905D01*
X179085714Y-104157143D01*
X179085714Y-104300001D01*
X179133333Y-104395239D01*
X179180952Y-104442858D01*
X179276190Y-104490477D01*
X179561905Y-104490477D01*
X179657143Y-104442858D01*
X179704762Y-104395239D01*
X179752381Y-104300001D01*
X179752381Y-104157143D01*
X179752381Y-104919048D02*
X179085714Y-104919048D01*
X179180952Y-104919048D02*
X179133333Y-104966667D01*
X179085714Y-105061905D01*
X179085714Y-105204763D01*
X179133333Y-105300001D01*
X179228571Y-105347620D01*
X179752381Y-105347620D01*
X179228571Y-105347620D02*
X179133333Y-105395239D01*
X179085714Y-105490477D01*
X179085714Y-105633334D01*
X179133333Y-105728572D01*
X179228571Y-105776191D01*
X179752381Y-105776191D01*
X178704762Y-106966667D02*
X179990476Y-106109524D01*
X179752381Y-107300000D02*
X179085714Y-107300000D01*
X179180952Y-107300000D02*
X179133333Y-107347619D01*
X179085714Y-107442857D01*
X179085714Y-107585715D01*
X179133333Y-107680953D01*
X179228571Y-107728572D01*
X179752381Y-107728572D01*
X179228571Y-107728572D02*
X179133333Y-107776191D01*
X179085714Y-107871429D01*
X179085714Y-108014286D01*
X179133333Y-108109524D01*
X179228571Y-108157143D01*
X179752381Y-108157143D01*
X179704762Y-109014286D02*
X179752381Y-108919048D01*
X179752381Y-108728571D01*
X179704762Y-108633333D01*
X179609524Y-108585714D01*
X179228571Y-108585714D01*
X179133333Y-108633333D01*
X179085714Y-108728571D01*
X179085714Y-108919048D01*
X179133333Y-109014286D01*
X179228571Y-109061905D01*
X179323810Y-109061905D01*
X179419048Y-108585714D01*
X179085714Y-109347619D02*
X179085714Y-109728571D01*
X178752381Y-109490476D02*
X179609524Y-109490476D01*
X179704762Y-109538095D01*
X179752381Y-109633333D01*
X179752381Y-109728571D01*
X179704762Y-110442858D02*
X179752381Y-110347620D01*
X179752381Y-110157143D01*
X179704762Y-110061905D01*
X179609524Y-110014286D01*
X179228571Y-110014286D01*
X179133333Y-110061905D01*
X179085714Y-110157143D01*
X179085714Y-110347620D01*
X179133333Y-110442858D01*
X179228571Y-110490477D01*
X179323810Y-110490477D01*
X179419048Y-110014286D01*
X179752381Y-110919048D02*
X179085714Y-110919048D01*
X179276190Y-110919048D02*
X179180952Y-110966667D01*
X179133333Y-111014286D01*
X179085714Y-111109524D01*
X179085714Y-111204763D01*
X179752381Y-111538096D02*
X179085714Y-111538096D01*
X179180952Y-111538096D02*
X179133333Y-111585715D01*
X179085714Y-111680953D01*
X179085714Y-111823811D01*
X179133333Y-111919049D01*
X179228571Y-111966668D01*
X179752381Y-111966668D01*
X179228571Y-111966668D02*
X179133333Y-112014287D01*
X179085714Y-112109525D01*
X179085714Y-112252382D01*
X179133333Y-112347620D01*
X179228571Y-112395239D01*
X179752381Y-112395239D01*
X179752381Y-113300001D02*
X179228571Y-113300001D01*
X179133333Y-113252382D01*
X179085714Y-113157144D01*
X179085714Y-112966667D01*
X179133333Y-112871429D01*
X179704762Y-113300001D02*
X179752381Y-113204763D01*
X179752381Y-112966667D01*
X179704762Y-112871429D01*
X179609524Y-112823810D01*
X179514286Y-112823810D01*
X179419048Y-112871429D01*
X179371429Y-112966667D01*
X179371429Y-113204763D01*
X179323810Y-113300001D01*
X179085714Y-113776191D02*
X179752381Y-113776191D01*
X179180952Y-113776191D02*
X179133333Y-113823810D01*
X179085714Y-113919048D01*
X179085714Y-114061906D01*
X179133333Y-114157144D01*
X179228571Y-114204763D01*
X179752381Y-114204763D01*
D12*
X125109524Y-71850000D02*
X121109524Y-72350000D01*
X123966667Y-73326190D01*
X121109524Y-75016667D01*
X125109524Y-74516667D01*
X123014286Y-76683333D02*
X123014286Y-78016666D01*
X125109524Y-78326191D02*
X125109524Y-76421429D01*
X121109524Y-76921429D01*
X121109524Y-78826191D01*
X121109524Y-79969048D02*
X121109524Y-82254763D01*
X125109524Y-80611906D02*
X121109524Y-81111906D01*
X123014286Y-83350000D02*
X123014286Y-84683333D01*
X125109524Y-84992858D02*
X125109524Y-83088096D01*
X121109524Y-83588096D01*
X121109524Y-85492858D01*
X125109524Y-88992858D02*
X123204762Y-87897620D01*
X125109524Y-86707144D02*
X121109524Y-87207144D01*
X121109524Y-88730953D01*
X121300000Y-89088096D01*
X121490476Y-89254763D01*
X121871429Y-89397619D01*
X122442857Y-89326191D01*
X122823810Y-89088096D01*
X123014286Y-88873810D01*
X123204762Y-88469048D01*
X123204762Y-86945239D01*
X125109524Y-90707144D02*
X121109524Y-91207144D01*
X123966667Y-92183334D01*
X121109524Y-93873811D01*
X125109524Y-93373811D01*
X123966667Y-95230954D02*
X123966667Y-97135716D01*
X125109524Y-94707144D02*
X121109524Y-96540478D01*
X125109524Y-97373811D01*
X125109524Y-98707144D02*
X121109524Y-99207144D01*
X125109524Y-100992858D01*
X121109524Y-101492858D01*
X125109524Y-105945239D02*
X121109524Y-106445239D01*
X125109524Y-108230953D01*
X121109524Y-108730953D01*
X121109524Y-111397620D02*
X121109524Y-112159524D01*
X121300000Y-112516667D01*
X121680952Y-112850000D01*
X122442857Y-112945238D01*
X123776190Y-112778571D01*
X124538095Y-112492857D01*
X124919048Y-112064286D01*
X125109524Y-111659524D01*
X125109524Y-110897620D01*
X124919048Y-110540476D01*
X124538095Y-110207143D01*
X123776190Y-110111905D01*
X122442857Y-110278572D01*
X121680952Y-110564286D01*
X121300000Y-110992857D01*
X121109524Y-111397620D01*
X125109524Y-114326191D02*
X121109524Y-114826191D01*
X121109524Y-115778572D01*
X121300000Y-116326190D01*
X121680952Y-116659524D01*
X122061905Y-116802381D01*
X122823810Y-116897619D01*
X123395238Y-116826190D01*
X124157143Y-116540476D01*
X124538095Y-116302381D01*
X124919048Y-115873809D01*
X125109524Y-115278572D01*
X125109524Y-114326191D01*
X123014286Y-118588095D02*
X123014286Y-119921428D01*
X125109524Y-120230953D02*
X125109524Y-118326191D01*
X121109524Y-118826191D01*
X121109524Y-120730953D01*
X125109524Y-127278572D02*
X123204762Y-126183334D01*
X125109524Y-124992858D02*
X121109524Y-125492858D01*
X121109524Y-127016667D01*
X121300000Y-127373810D01*
X121490476Y-127540477D01*
X121871429Y-127683333D01*
X122442857Y-127611905D01*
X122823810Y-127373810D01*
X123014286Y-127159524D01*
X123204762Y-126754762D01*
X123204762Y-125230953D01*
X125109524Y-131088096D02*
X125109524Y-128802382D01*
X125109524Y-129945239D02*
X121109524Y-130445239D01*
X121680952Y-129992858D01*
X122061905Y-129564286D01*
X122252381Y-129159524D01*
M02*
